SplineFontDB: 3.2
FontName: ATM110-Regular
FullName: ATM110-Regular
FamilyName: ATM 110
Weight: Book
Copyright: AzhaguThamizh
Version: 1.001
ItalicAngle: -11
UnderlinePosition: -271
UnderlineWidth: 102
Ascent: 1600
Descent: 400
InvalidEm: 0
sfntRevision: 0x00010042
LayerCount: 2
Layer: 0 1 "Back" 1
Layer: 1 1 "Fore" 0
XUID: [1021 192 2086997156 20522]
StyleMap: 0x0040
FSType: 8
OS2Version: 3
OS2_WeightWidthSlopeOnly: 0
OS2_UseTypoMetrics: 0
CreationTime: 1537158207
ModificationTime: 1545794345
PfmFamily: 17
TTFWeight: 400
TTFWidth: 5
LineGap: 0
VLineGap: 0
Panose: 2 11 6 4 2 2 2 2 2 4
OS2TypoAscent: 2000
OS2TypoAOffset: 0
OS2TypoDescent: -1320
OS2TypoDOffset: 0
OS2TypoLinegap: 0
OS2WinAscent: 2000
OS2WinAOffset: 0
OS2WinDescent: 744
OS2WinDOffset: 0
HheadAscent: 2000
HheadAOffset: 0
HheadDescent: -1320
HheadDOffset: 0
OS2SubXSize: 1400
OS2SubYSize: 1300
OS2SubXOff: 0
OS2SubYOff: 0
OS2SupXSize: 1400
OS2SupYSize: 1300
OS2SupXOff: 0
OS2SupYOff: 0
OS2StrikeYSize: 100
OS2StrikeYPos: 518
OS2CapHeight: 1586
OS2XHeight: -200
OS2Vendor: '    '
OS2CodePages: 00000001.00000000
OS2UnicodeRanges: 00100003.00000000.00000000.00000000
Lookup: 4 0 0 "'akhn' Akhand in Tamil2 lookup 0" { "'akhn' Akhand in Tamil2 lookup 0 subtable"  } ['akhn' ('tml2' <'dflt' > ) ]
Lookup: 4 0 0 "'akhn' Akhand in Tamil lookup 1" { "'akhn' Akhand in Tamil lookup 1 subtable"  } ['akhn' ('taml' <'dflt' > ) ]
Lookup: 4 0 0 "'half' Half Forms in Tamil lookup 2" { "'half' Half Forms in Tamil lookup 2 subtable"  } ['half' ('taml' <'dflt' > ) ]
Lookup: 4 0 0 "'haln' Halant Forms in Tamil2 lookup 3" { "'haln' Halant Forms in Tamil2 lookup 3 subtable"  } ['haln' ('tml2' <'dflt' > ) ]
Lookup: 4 0 0 "'haln' Halant Forms in Tamil lookup 4" { "'haln' Halant Forms in Tamil lookup 4 subtable"  } ['haln' ('taml' <'dflt' > ) ]
Lookup: 4 0 0 "'abvs' Above Base Substitutions lookup 5" { "'abvs' Above Base Substitutions lookup 5 subtable"  } ['abvs' ('taml' <'dflt' > 'tml2' <'dflt' > ) ]

StartChar: .notdef
Encoding: 65536 -1 0
Width: 1000
Flags: W
LayerCount: 2
Fore
SplineSet
126 0 m 1,0,-1
 126 1600 l 1,1,-1
 876 1600 l 1,2,-1
 876 0 l 1,3,-1
 126 0 l 1,0,-1
250 126 m 1,4,-1
 750 126 l 1,5,-1
 750 1476 l 1,6,-1
 250 1476 l 1,7,-1
 250 126 l 1,4,-1
EndSplineSet
EndChar

StartChar: exclam
Encoding: 33 33 4
Width: 814
GlyphClass: 2
Flags: W
LayerCount: 2
Fore
SplineSet
696 1050 m 2,0,-1
 692 982 l 1,1,-1
 684 926 l 1,2,-1
 500 378 l 1,3,-1
 442 378 l 1,4,-1
 460 536 l 1,5,-1
 460 638 l 1,6,-1
 466 778 l 1,7,-1
 476 846 l 1,8,-1
 494 932 l 2,9,10
 502 974 502 974 536 1068 c 1,11,12
 584 1164 584 1164 632 1164 c 0,13,14
 702 1164 702 1164 696 1050 c 2,0,-1
496 98 m 0,15,16
 496 50 496 50 461 11 c 128,-1,17
 426 -28 426 -28 378 -28 c 0,18,19
 312 -28 312 -28 312 70 c 1,20,21
 348 164 348 164 422 164 c 256,22,23
 496 164 496 164 496 98 c 0,15,16
EndSplineSet
EndChar

StartChar: quotedbl
Encoding: 34 34 5
Width: 840
GlyphClass: 2
Flags: W
LayerCount: 2
Fore
SplineSet
904 1288 m 1,0,1
 904 1264 904 1264 890 1222 c 0,2,3
 860 1132 860 1132 830 1070 c 2,4,-1
 692 784 l 1,5,-1
 646 784 l 1,6,-1
 674 1070 l 1,7,-1
 690 1200 l 2,8,9
 696 1254 696 1254 718 1288 c 0,10,11
 760 1354 760 1354 832 1354 c 0,12,13
 862 1354 862 1354 880 1338 c 128,-1,14
 898 1322 898 1322 904 1288 c 1,0,1
546 1286 m 0,15,16
 546 1268 546 1268 534 1232 c 0,17,18
 530 1212 530 1212 464 1072 c 2,19,-1
 330 784 l 1,20,-1
 288 784 l 1,21,-1
 318 1074 l 2,22,23
 330 1192 330 1192 334 1210 c 0,24,25
 350 1290 350 1290 396 1328 c 1,26,-1
 432 1346 l 1,27,-1
 472 1354 l 1,28,29
 546 1354 546 1354 546 1286 c 0,15,16
EndSplineSet
EndChar

StartChar: numbersign
Encoding: 35 35 6
Width: 1068
GlyphClass: 2
Flags: W
LayerCount: 2
Fore
SplineSet
998 278 m 1,0,-1
 746 278 l 1,1,-1
 680 -36 l 1,2,-1
 584 -36 l 1,3,-1
 650 278 l 1,4,-1
 320 278 l 1,5,-1
 254 -36 l 1,6,-1
 158 -36 l 1,7,-1
 224 278 l 1,8,-1
 68 278 l 1,9,-1
 68 374 l 1,10,-1
 244 374 l 1,11,-1
 304 664 l 1,12,-1
 68 664 l 1,13,-1
 68 760 l 1,14,-1
 324 760 l 1,15,-1
 392 1076 l 1,16,-1
 488 1076 l 1,17,-1
 420 760 l 1,18,-1
 748 760 l 1,19,-1
 814 1076 l 1,20,-1
 910 1076 l 1,21,-1
 844 760 l 1,22,-1
 998 760 l 1,23,-1
 998 664 l 1,24,-1
 826 664 l 1,25,-1
 764 374 l 1,26,-1
 998 374 l 1,27,-1
 998 278 l 1,0,-1
730 664 m 1,28,-1
 400 664 l 1,29,-1
 340 374 l 1,30,-1
 668 374 l 1,31,-1
 730 664 l 1,28,-1
EndSplineSet
EndChar

StartChar: dollar
Encoding: 36 36 7
Width: 932
GlyphClass: 2
Flags: W
LayerCount: 2
Fore
SplineSet
882 1008 m 1,0,-1
 830 830 l 1,1,-1
 786 830 l 1,2,-1
 788 868 l 2,3,4
 792 938 792 938 749 984 c 128,-1,5
 706 1030 706 1030 614 1030 c 1,6,-1
 524 602 l 1,7,8
 682 534 682 534 731 482 c 128,-1,9
 780 430 780 430 780 350 c 1,10,-1
 774 296 l 1,11,12
 724 52 724 52 392 -16 c 1,13,-1
 376 -90 l 1,14,-1
 314 -90 l 1,15,-1
 328 -20 l 1,16,-1
 302 -20 l 1,17,-1
 242 -18 l 1,18,-1
 210 -18 l 1,19,-1
 188 -10 l 1,20,21
 112 6 112 6 30 46 c 1,22,-1
 46 88 l 1,23,-1
 66 160 l 1,24,-1
 86 242 l 1,25,-1
 130 242 l 1,26,-1
 124 188 l 1,27,28
 124 104 124 104 190 58 c 0,29,30
 248 20 248 20 336 20 c 1,31,-1
 432 464 l 1,32,33
 284 518 284 518 228 580 c 128,-1,34
 172 642 172 642 172 724 c 0,35,36
 172 760 172 760 176 776 c 0,37,38
 202 882 202 882 292 960 c 0,39,40
 394 1050 394 1050 562 1074 c 1,41,-1
 574 1134 l 1,42,-1
 636 1134 l 1,43,-1
 624 1074 l 1,44,45
 706 1074 706 1074 770 1056 c 0,46,47
 826 1042 826 1042 882 1008 c 1,0,-1
552 1028 m 1,48,49
 450 1010 450 1010 374 938 c 1,50,51
 332 890 332 890 314 824 c 1,52,-1
 310 792 l 1,53,54
 310 736 310 736 360 690 c 0,55,56
 388 664 388 664 468 630 c 1,57,-1
 552 1028 l 1,48,49
642 278 m 1,58,59
 642 364 642 364 488 438 c 1,60,-1
 398 20 l 1,61,62
 484 34 484 34 550 94 c 128,-1,63
 616 154 616 154 638 238 c 1,64,-1
 642 278 l 1,58,59
EndSplineSet
EndChar

StartChar: percent
Encoding: 37 37 8
Width: 1016
GlyphClass: 2
Flags: W
LayerCount: 2
Fore
SplineSet
458 900 m 0,0,1
 458 804 458 804 380 736 c 0,2,3
 322 686 322 686 240 686 c 0,4,5
 150 686 150 686 68 764 c 1,6,-1
 30 826 l 1,7,8
 18 860 18 860 18 898 c 0,9,10
 18 1048 18 1048 166 1100 c 0,11,12
 206 1114 206 1114 236 1114 c 0,13,14
 330 1114 330 1114 408 1036 c 1,15,16
 458 974 458 974 458 900 c 0,0,1
938 1172 m 1,17,-1
 660 708 l 1,18,-1
 244 -6 l 1,19,-1
 84 -6 l 1,20,-1
 508 718 l 1,21,-1
 794 1172 l 1,22,-1
 938 1172 l 1,17,-1
998 308 m 0,23,24
 998 156 998 156 850 106 c 0,25,26
 808 92 808 92 780 92 c 0,27,28
 690 92 690 92 608 170 c 1,29,30
 558 232 558 232 558 306 c 0,31,32
 558 402 558 402 636 470 c 0,33,34
 694 520 694 520 776 520 c 0,35,36
 870 520 870 520 948 442 c 1,37,38
 998 380 998 380 998 308 c 0,23,24
336 904 m 0,39,40
 336 942 336 942 305 973 c 128,-1,41
 274 1004 274 1004 236 1004 c 0,42,43
 200 1004 200 1004 168 972 c 128,-1,44
 136 940 136 940 136 904 c 0,45,46
 136 872 136 872 167 838 c 128,-1,47
 198 804 198 804 236 804 c 0,48,49
 278 804 278 804 307 833 c 128,-1,50
 336 862 336 862 336 904 c 0,39,40
880 304 m 0,51,52
 880 340 880 340 848 372 c 128,-1,53
 816 404 816 404 780 404 c 256,54,55
 744 404 744 404 712 372 c 128,-1,56
 680 340 680 340 680 304 c 0,57,58
 680 264 680 264 710 234 c 128,-1,59
 740 204 740 204 780 204 c 0,60,61
 822 204 822 204 851 233 c 128,-1,62
 880 262 880 262 880 304 c 0,51,52
EndSplineSet
EndChar

StartChar: ampersand
Encoding: 38 38 9
Width: 1034
GlyphClass: 2
Flags: W
LayerCount: 2
Fore
SplineSet
1006 -4 m 1,0,-1
 928 0 l 1,1,-1
 850 0 l 1,2,-1
 754 -4 l 1,3,-1
 676 98 l 1,4,5
 598 32 598 32 524 2 c 1,6,-1
 462 -14 l 1,7,-1
 416 -22 l 1,8,-1
 370 -24 l 2,9,10
 230 -30 230 -30 133 58 c 128,-1,11
 36 146 36 146 36 284 c 0,12,13
 36 406 36 406 118 488 c 0,14,15
 168 538 168 538 260 586 c 2,16,-1
 310 612 l 1,17,-1
 248 730 l 1,18,-1
 232 778 l 1,19,-1
 226 828 l 1,20,21
 226 936 226 936 326 1010 c 0,22,23
 416 1076 416 1076 528 1076 c 0,24,25
 594 1076 594 1076 659 1032 c 128,-1,26
 724 988 724 988 724 908 c 0,27,28
 724 806 724 806 626 746 c 2,29,-1
 552 700 l 1,30,-1
 452 644 l 1,31,-1
 568 472 l 1,32,-1
 748 228 l 1,33,34
 812 312 812 312 812 416 c 256,35,36
 812 520 812 520 716 516 c 2,37,-1
 676 514 l 1,38,-1
 688 552 l 1,39,-1
 1006 552 l 1,40,-1
 1006 514 l 1,41,-1
 968 514 l 2,42,43
 916 514 916 514 892 486 c 0,44,45
 876 468 876 468 862 408 c 2,46,-1
 848 352 l 2,47,48
 840 322 840 322 828 300 c 0,49,50
 816 270 816 270 772 200 c 1,51,-1
 862 98 l 1,52,-1
 888 72 l 1,53,-1
 934 44 l 2,54,55
 950 32 950 32 980 32 c 2,56,-1
 1006 32 l 1,57,-1
 1006 -4 l 1,0,-1
590 890 m 0,58,59
 590 950 590 950 558 992 c 128,-1,60
 526 1034 526 1034 468 1034 c 0,61,62
 414 1034 414 1034 376 996 c 128,-1,63
 338 958 338 958 338 904 c 0,64,65
 338 870 338 870 342 858 c 2,66,-1
 360 806 l 2,67,68
 376 758 376 758 434 672 c 1,69,70
 500 712 500 712 530 744 c 0,71,72
 590 808 590 808 590 890 c 0,58,59
652 124 m 1,73,-1
 484 348 l 1,74,-1
 422 440 l 1,75,-1
 330 582 l 1,76,77
 272 540 272 540 238 498 c 0,78,79
 178 424 178 424 178 326 c 0,80,81
 178 208 178 208 274 124 c 0,82,83
 354 54 354 54 468 54 c 0,84,85
 520 54 520 54 580 78 c 0,86,87
 606 88 606 88 610 94 c 2,88,-1
 652 124 l 1,73,-1
EndSplineSet
EndChar

StartChar: quotesingle
Encoding: 39 39 10
Width: 428
GlyphClass: 2
Flags: W
LayerCount: 2
Fore
SplineSet
522 1286 m 1,0,1
 522 1254 522 1254 512 1236 c 1,2,3
 502 1204 502 1204 440 1072 c 2,4,-1
 306 784 l 1,5,-1
 262 784 l 1,6,-1
 304 1182 l 1,7,-1
 322 1262 l 2,8,9
 330 1302 330 1302 370 1328 c 1,10,-1
 406 1346 l 1,11,-1
 446 1354 l 1,12,13
 510 1354 510 1354 522 1286 c 1,0,1
EndSplineSet
EndChar

StartChar: parenleft
Encoding: 40 40 11
Width: 460
GlyphClass: 2
Flags: W
LayerCount: 2
Fore
SplineSet
554 1132 m 1,0,1
 360 914 360 914 232 620 c 0,2,3
 196 536 196 536 176 474 c 0,4,5
 166 446 166 446 156 412 c 0,6,7
 150 388 150 388 138 322 c 0,8,9
 102 126 102 126 108 24 c 2,10,-1
 116 -100 l 1,11,-1
 134 -228 l 1,12,13
 170 -372 170 -372 214 -472 c 1,14,-1
 94 -472 l 1,15,16
 6 -254 6 -254 6 0 c 0,17,18
 6 178 6 178 36 302 c 2,19,-1
 74 458 l 1,20,-1
 124 602 l 2,21,22
 218 870 218 870 438 1132 c 1,23,-1
 554 1132 l 1,0,1
EndSplineSet
EndChar

StartChar: parenright
Encoding: 41 41 12
Width: 370
GlyphClass: 2
Flags: W
LayerCount: 2
Fore
SplineSet
294 666 m 0,0,1
 294 366 294 366 176 60 c 0,2,3
 62 -236 62 -236 -136 -472 c 1,4,-1
 -258 -472 l 1,5,6
 -52 -242 -52 -242 66 46 c 0,7,8
 188 344 188 344 188 642 c 0,9,10
 188 722 188 722 162 892 c 1,11,-1
 126 1022 l 1,12,-1
 86 1132 l 1,13,-1
 208 1132 l 1,14,15
 294 912 294 912 294 666 c 0,0,1
EndSplineSet
EndChar

StartChar: asterisk
Encoding: 42 42 13
Width: 724
GlyphClass: 2
Flags: W
LayerCount: 2
Fore
SplineSet
618 622 m 0,0,1
 618 574 618 574 570 556 c 0,2,3
 552 546 552 546 484 546 c 2,4,-1
 442 546 l 1,5,-1
 408 544 l 1,6,-1
 364 536 l 1,7,-1
 484 434 l 1,8,9
 526 386 526 386 532 360 c 1,10,11
 532 330 532 330 508 306 c 128,-1,12
 484 282 484 282 454 282 c 0,13,14
 404 282 404 282 368 372 c 2,15,-1
 316 500 l 1,16,17
 310 494 310 494 264 378 c 0,18,19
 226 282 226 282 180 282 c 1,20,21
 136 294 136 294 126 304 c 0,22,23
 102 338 102 338 102 356 c 0,24,25
 102 400 102 400 172 454 c 0,26,27
 260 522 260 522 266 536 c 1,28,29
 244 546 244 546 192 546 c 2,30,-1
 148 546 l 1,31,-1
 68 558 l 1,32,33
 22 584 22 584 16 610 c 1,34,35
 16 696 16 696 82 696 c 0,36,37
 120 696 120 696 164 666 c 0,38,39
 270 594 270 594 286 590 c 1,40,-1
 272 668 l 1,41,42
 246 758 246 758 246 790 c 256,43,44
 246 822 246 822 266 842 c 1,45,46
 300 860 300 860 312 860 c 0,47,48
 382 860 382 860 382 790 c 0,49,50
 382 756 382 756 370 716 c 0,51,52
 344 630 344 630 344 590 c 1,53,-1
 442 654 l 2,54,55
 506 696 506 696 546 696 c 0,56,57
 576 696 576 696 597 674 c 128,-1,58
 618 652 618 652 618 622 c 0,0,1
EndSplineSet
EndChar

StartChar: plus
Encoding: 43 43 14
Width: 1068
GlyphClass: 2
Flags: W
LayerCount: 2
Fore
SplineSet
956 474 m 1,0,-1
 584 474 l 1,1,-1
 584 100 l 1,2,-1
 482 100 l 1,3,-1
 482 474 l 1,4,-1
 108 474 l 1,5,-1
 108 576 l 1,6,-1
 482 576 l 1,7,-1
 482 948 l 1,8,-1
 584 948 l 1,9,-1
 584 576 l 1,10,-1
 956 576 l 1,11,-1
 956 474 l 1,0,-1
EndSplineSet
EndChar

StartChar: comma
Encoding: 44 44 15
Width: 370
GlyphClass: 2
Flags: W
LayerCount: 2
Fore
SplineSet
282 38 m 1,0,-1
 278 -4 l 1,1,2
 248 -108 248 -108 174 -188 c 0,3,4
 94 -276 94 -276 -4 -300 c 1,5,-1
 0 -270 l 1,6,7
 180 -148 180 -148 180 -36 c 1,8,-1
 176 -4 l 1,9,-1
 122 -8 l 2,10,11
 56 -12 56 -12 56 50 c 0,12,13
 56 94 56 94 91 137 c 128,-1,14
 126 180 126 180 168 180 c 0,15,16
 282 180 282 180 282 38 c 1,0,-1
EndSplineSet
EndChar

StartChar: hyphen
Encoding: 45 45 16
Width: 1930
GlyphClass: 2
Flags: W
LayerCount: 2
Fore
SplineSet
1880 458 m 1,0,-1
 1834 314 l 1,1,-1
 18 314 l 1,2,-1
 68 458 l 1,3,-1
 1880 458 l 1,0,-1
EndSplineSet
EndChar

StartChar: period
Encoding: 46 46 17
Width: 324
GlyphClass: 2
Flags: W
LayerCount: 2
Fore
SplineSet
226 98 m 1,0,1
 202 22 202 22 138 2 c 1,2,-1
 102 -4 l 1,3,4
 22 -4 22 -4 22 68 c 0,5,6
 22 116 22 116 58 158 c 1,7,8
 106 200 106 200 144 200 c 256,9,10
 182 200 182 200 204 169 c 128,-1,11
 226 138 226 138 226 98 c 1,0,1
EndSplineSet
EndChar

StartChar: slash
Encoding: 47 47 18
Width: 504
GlyphClass: 2
Flags: W
LayerCount: 2
Fore
SplineSet
508 1132 m 1,0,-1
 -54 -472 l 1,1,-1
 -140 -472 l 1,2,-1
 422 1132 l 1,3,-1
 508 1132 l 1,0,-1
EndSplineSet
EndChar

StartChar: zero
Encoding: 48 48 19
Width: 814
GlyphClass: 2
Flags: W
LayerCount: 2
Fore
SplineSet
710 675 m 2,0,-1
 704 585 l 1,1,-1
 692 496 l 1,2,3
 637 293 637 293 549 164 c 0,4,5
 423 -18 423 -18 251 -18 c 0,6,7
 130 -18 130 -18 66 90 c 0,8,9
 12 184 12 184 20 317 c 2,10,-1
 26 411 l 1,11,-1
 38 496 l 2,12,13
 63 672 63 672 180 836 c 0,14,15
 313 1021 313 1021 469 1021 c 0,16,17
 601 1021 601 1021 659.5 915.5 c 128,-1,18
 718 810 718 810 710 675 c 2,0,-1
585 769 m 0,19,20
 585 987 585 987 462 987 c 0,21,22
 289 987 289 987 173 500 c 0,23,24
 159 435 159 435 152 370 c 2,25,-1
 144 296 l 1,26,-1
 144 235 l 2,27,28
 144 14 144 14 258 14 c 0,29,30
 377 14 377 14 464 207 c 0,31,32
 520 332 520 332 550 500 c 2,33,-1
 574 628 l 2,34,35
 585 688 585 688 585 769 c 0,19,20
EndSplineSet
EndChar

StartChar: one
Encoding: 49 49 20
Width: 534
GlyphClass: 2
Flags: W
LayerCount: 2
Fore
SplineSet
500 1009 m 1,0,-1
 325 166 l 2,1,2
 317 132 317 132 317 116 c 0,3,4
 317 36 317 36 437 36 c 1,5,-1
 426 -4 l 1,6,-1
 18 -4 l 1,7,-1
 32 36 l 1,8,-1
 106 44 l 1,9,-1
 144 60 l 1,10,11
 179 85 179 85 197 166 c 2,12,-1
 345 870 l 1,13,-1
 218 870 l 1,14,-1
 229 913 l 1,15,16
 321 913 321 913 385 951 c 2,17,-1
 493 1016 l 1,18,-1
 500 1009 l 1,0,-1
EndSplineSet
EndChar

StartChar: two
Encoding: 50 50 21
Width: 911
GlyphClass: 2
Flags: W
LayerCount: 2
Fore
SplineSet
808 787 m 1,0,-1
 803 730 l 1,1,2
 776 604 776 604 668 478 c 0,3,4
 622 424 622 424 570 381 c 2,5,-1
 507 327 l 1,6,-1
 441 275 l 2,7,8
 393 237 393 237 200 110 c 1,9,-1
 561 110 l 2,10,11
 608 110 608 110 640 148 c 1,12,-1
 694 229 l 1,13,-1
 730 229 l 1,14,-1
 624 -4 l 1,15,-1
 28 -4 l 1,16,-1
 56 56 l 1,17,-1
 199 164 l 1,18,-1
 313 256 l 2,19,20
 446 365 446 365 547 502 c 0,21,22
 654 646 654 646 684 780 c 1,23,-1
 688 820 l 1,24,25
 688 884 688 884 645.5 935.5 c 128,-1,26
 603 987 603 987 540 987 c 0,27,28
 459 987 459 987 393 933 c 0,29,30
 319 872 319 872 311 796 c 2,31,-1
 305 752 l 1,32,33
 305 672 305 672 363 648 c 1,34,35
 341 610 341 610 289 610 c 0,36,37
 249 610 249 610 231 639 c 1,38,39
 215 676 215 676 215 716 c 2,40,-1
 215 738 l 1,41,-1
 218 766 l 1,42,43
 255 883 255 883 346 952 c 128,-1,44
 437 1021 437 1021 558 1021 c 0,45,46
 660 1021 660 1021 734 954.5 c 128,-1,47
 808 888 808 888 808 787 c 1,0,-1
EndSplineSet
EndChar

StartChar: three
Encoding: 51 51 22
Width: 814
GlyphClass: 2
Flags: W
LayerCount: 2
Fore
SplineSet
732 823 m 1,0,-1
 730 794 l 1,1,-1
 726 769 l 2,2,3
 712 686 712 686 645.5 621 c 128,-1,4
 579 556 579 556 489 540 c 1,5,6
 660 485 660 485 660 329 c 1,7,-1
 655 275 l 1,8,9
 616 139 616 139 502.5 60.5 c 128,-1,10
 389 -18 389 -18 247 -18 c 0,11,12
 159 -18 159 -18 94 16 c 0,13,14
 10 58 10 58 10 139 c 1,15,-1
 14 173 l 1,16,17
 58 285 58 285 155 285 c 1,18,19
 119 233 119 233 119 166 c 0,20,21
 119 101 119 101 159 63.5 c 128,-1,22
 199 26 199 26 263 26 c 0,23,24
 361 26 361 26 429 98 c 0,25,26
 495 164 495 164 514 263 c 0,27,28
 520 281 520 281 522 309 c 2,29,-1
 523 351 l 2,30,31
 525 409 525 409 500 453 c 0,32,33
 471 503 471 503 415 503 c 1,34,-1
 335 475 l 1,35,-1
 303 464 l 1,36,-1
 285 462 l 2,37,38
 255 462 255 462 255 514 c 1,39,40
 269 563 269 563 347 563 c 1,41,-1
 391 558 l 1,42,-1
 426 550 l 1,43,44
 496 579 496 579 541 641.5 c 128,-1,45
 586 704 586 704 592 754 c 1,46,47
 601 774 601 774 601 830 c 0,48,49
 601 921 601 921 547 965 c 0,50,51
 516 991 516 991 469 991 c 0,52,53
 411 991 411 991 358 943 c 128,-1,54
 305 895 305 895 305 838 c 0,55,56
 305 800 305 800 332 762 c 1,57,58
 313 742 313 742 287 742 c 0,59,60
 251 742 251 742 229 774 c 0,61,62
 211 802 211 802 211 839 c 1,63,64
 240 933 240 933 307 971 c 0,65,66
 388 1018 388 1018 482 1018 c 0,67,68
 583 1018 583 1018 652 973 c 0,69,70
 732 919 732 919 732 823 c 1,0,-1
EndSplineSet
EndChar

StartChar: four
Encoding: 52 52 23
Width: 836
GlyphClass: 2
Flags: W
LayerCount: 2
Fore
SplineSet
732 377 m 1,0,-1
 662 247 l 1,1,-1
 507 247 l 1,2,-1
 487 137 l 1,3,-1
 482 98 l 1,4,5
 482 60 482 60 505 47 c 1,6,7
 536 36 536 36 578 36 c 1,8,-1
 570 -4 l 1,9,-1
 222 -4 l 1,10,-1
 237 36 l 1,11,12
 296 36 296 36 323.5 58 c 128,-1,13
 351 80 351 80 363 137 c 2,14,-1
 385 247 l 1,15,-1
 18 247 l 1,16,-1
 662 1013 l 1,17,-1
 670 1001 l 1,18,-1
 522 299 l 1,19,-1
 574 303 l 1,20,-1
 617 313 l 2,21,22
 657 325 657 325 694 377 c 1,23,-1
 732 377 l 1,0,-1
496 776 m 1,24,-1
 116 299 l 1,25,-1
 399 299 l 1,26,-1
 496 776 l 1,24,-1
EndSplineSet
EndChar

StartChar: five
Encoding: 53 53 24
Width: 836
GlyphClass: 2
Flags: W
LayerCount: 2
Fore
SplineSet
861 1021 m 1,0,1
 805 962 805 962 776 937 c 0,2,3
 694 868 694 868 606 870 c 2,4,-1
 406 874 l 1,5,-1
 314 578 l 1,6,7
 379 630 379 630 462 630 c 0,8,9
 554 630 554 630 625 564 c 128,-1,10
 696 498 696 498 696 406 c 1,11,-1
 692 351 l 1,12,13
 658 195 658 195 525.5 88.5 c 128,-1,14
 393 -18 393 -18 233 -18 c 0,15,16
 153 -18 153 -18 92 18 c 1,17,18
 22 70 22 70 22 130 c 1,19,-1
 26 159 l 1,20,21
 58 247 58 247 110 247 c 0,22,23
 155 247 155 247 153 186 c 2,24,-1
 152 116 l 2,25,26
 152 83 152 83 170 42 c 1,27,28
 200 14 200 14 243 14 c 0,29,30
 355 14 355 14 446 132 c 0,31,32
 527 238 527 238 547 351 c 2,33,-1
 554 395 l 1,34,-1
 558 439 l 2,35,36
 563 498 563 498 529 543 c 128,-1,37
 495 588 495 588 426 588 c 0,38,39
 389 588 389 588 342.5 555.5 c 128,-1,40
 296 523 296 523 290.5 489 c 128,-1,41
 285 455 285 455 247 455 c 1,42,43
 233 464 233 464 233 480 c 1,44,-1
 403 1001 l 1,45,-1
 558 985 l 1,46,-1
 601 978 l 1,47,-1
 655 978 l 1,48,-1
 704 980 l 1,49,-1
 749 987 l 1,50,-1
 821 1021 l 1,51,-1
 861 1021 l 1,0,1
EndSplineSet
EndChar

StartChar: six
Encoding: 54 54 25
Width: 772
GlyphClass: 2
Flags: W
LayerCount: 2
Fore
SplineSet
750 928 m 1,0,1
 742 899 742 899 723 882.5 c 128,-1,2
 704 866 704 866 688 866 c 0,3,4
 654 866 654 866 623 928.5 c 128,-1,5
 592 991 592 991 558 991 c 0,6,7
 442 991 442 991 333 838 c 0,8,9
 247 716 247 716 222 578 c 1,10,11
 309 652 309 652 426 652 c 0,12,13
 534 652 534 652 595.5 582.5 c 128,-1,14
 657 513 657 513 657 403 c 1,15,-1
 648 325 l 1,16,17
 608 179 608 179 516 86 c 0,18,19
 411 -18 411 -18 271 -18 c 0,20,21
 141 -18 141 -18 78.5 67 c 128,-1,22
 16 152 16 152 24 275 c 2,23,-1
 27 343 l 1,24,-1
 38 409 l 2,25,26
 74 628 74 628 227 818 c 0,27,28
 393 1021 393 1021 610 1021 c 0,29,30
 646 1021 646 1021 700 1003 c 1,31,32
 750 977 750 977 750 928 c 1,0,1
532 437 m 2,33,34
 538 514 538 514 505 565 c 1,35,36
 460 621 460 621 399 621 c 0,37,38
 303 621 303 621 237 527 c 0,39,40
 188 459 188 459 164 369 c 2,41,-1
 153 327 l 1,42,-1
 148 283 l 1,43,-1
 144 242 l 1,44,-1
 144 204 l 2,45,46
 144 132 144 132 173 68 c 1,47,48
 213 18 213 18 275 18 c 0,49,50
 449 18 449 18 522 325 c 1,51,-1
 529 379 l 1,52,-1
 532 437 l 2,33,34
EndSplineSet
EndChar

StartChar: seven
Encoding: 55 55 26
Width: 714
GlyphClass: 2
Flags: W
LayerCount: 2
Fore
SplineSet
740 983 m 1,0,-1
 152 24 l 1,1,2
 119 -18 119 -18 74 -18 c 0,3,4
 20 -18 20 -18 20 18 c 0,5,6
 20 42 20 42 36 68 c 2,7,-1
 63 114 l 1,8,-1
 640 870 l 1,9,-1
 329 870 l 1,10,-1
 273 863 l 1,11,-1
 238 848 l 1,12,-1
 213 834 l 2,13,14
 164 807 164 807 134 732 c 1,15,-1
 92 732 l 1,16,-1
 197 1021 l 1,17,-1
 229 1021 l 1,18,19
 235 995 235 995 242 989 c 1,20,-1
 278 983 l 1,21,-1
 740 983 l 1,0,-1
EndSplineSet
EndChar

StartChar: eight
Encoding: 56 56 27
Width: 854
GlyphClass: 2
Flags: W
LayerCount: 2
Fore
SplineSet
778 810 m 1,0,-1
 772 762 l 1,1,2
 731 601 731 601 567 543 c 1,3,4
 702 485 702 485 702 335 c 1,5,-1
 694 275 l 1,6,7
 660 139 660 139 540 58 c 0,8,9
 426 -18 426 -18 281 -18 c 0,10,11
 170 -18 170 -18 94 42 c 0,12,13
 12 106 12 106 12 215 c 1,14,-1
 18 271 l 1,15,16
 42 361 42 361 99 423 c 0,17,18
 173 498 173 498 255 525 c 1,19,20
 135 586 135 586 135 698 c 1,21,-1
 141 750 l 1,22,23
 168 870 168 870 281.5 949.5 c 128,-1,24
 395 1029 395 1029 503 1021 c 2,25,-1
 560 1018 l 1,26,-1
 608 1007 l 1,27,-1
 660 983 l 1,28,-1
 696 965 l 1,29,30
 778 897 778 897 778 810 c 1,0,-1
654 816 m 1,31,32
 654 888 654 888 610.5 935.5 c 128,-1,33
 567 983 567 983 496 983 c 0,34,35
 411 983 411 983 337 906.5 c 128,-1,36
 263 830 263 830 263 746 c 0,37,38
 263 658 263 658 351 624 c 2,39,-1
 489 570 l 1,40,41
 621 626 621 626 648 762 c 1,42,-1
 654 816 l 1,31,32
565 271 m 1,43,44
 565 408 565 408 459 447 c 2,45,-1
 325 496 l 1,46,47
 245 455 245 455 207 411 c 0,48,49
 166 363 166 363 148 281 c 0,50,51
 142 263 142 263 141 240 c 2,52,-1
 139 206 l 2,53,54
 135 134 135 134 179 78 c 0,55,56
 217 26 217 26 293 26 c 0,57,58
 389 26 389 26 469 101 c 0,59,60
 543 171 543 171 565 271 c 1,43,44
EndSplineSet
EndChar

StartChar: nine
Encoding: 57 57 28
Width: 854
GlyphClass: 2
Flags: W
LayerCount: 2
Fore
SplineSet
750 760 m 0,0,1
 750 688 750 688 736 624 c 0,2,3
 678 370 678 370 549 217 c 0,4,5
 375 10 375 10 166 10 c 0,6,7
 116 10 116 10 76 30 c 1,8,9
 26 65 26 65 26 110 c 1,10,11
 30 134 30 134 47 150 c 1,12,13
 78 166 78 166 88 166 c 0,14,15
 116 166 116 166 147.5 104 c 128,-1,16
 179 42 179 42 218 42 c 0,17,18
 341 42 341 42 442 197 c 0,19,20
 529 329 529 329 550 455 c 1,21,22
 477 381 477 381 345 381 c 0,23,24
 238 381 238 381 177 455 c 0,25,26
 119 523 119 523 119 634 c 1,27,-1
 126 710 l 1,28,29
 170 857 170 857 258 949 c 0,30,31
 361 1054 361 1054 503 1054 c 0,32,33
 630 1054 630 1054 694 967 c 0,34,35
 750 890 750 890 750 760 c 0,0,1
630 774 m 1,36,-1
 630 828 l 2,37,38
 630 1016 630 1016 500 1016 c 0,39,40
 399 1016 399 1016 331 906 c 0,41,42
 283 832 283 832 255 710 c 1,43,-1
 247 652 l 2,44,45
 243 642 243 642 243 596 c 0,46,47
 243 513 243 513 271 469 c 1,48,49
 315 413 315 413 377 413 c 0,50,51
 471 413 471 413 540 507 c 0,52,53
 596 585 596 585 614 684 c 2,54,-1
 630 774 l 1,36,-1
EndSplineSet
EndChar

StartChar: colon
Encoding: 58 58 29
Width: 434
GlyphClass: 2
Flags: W
LayerCount: 2
Fore
SplineSet
340 658 m 1,0,-1
 336 636 l 1,1,2
 302 538 302 538 214 538 c 0,3,4
 132 538 132 538 132 636 c 1,5,6
 176 738 176 738 258 738 c 0,7,8
 292 738 292 738 316 713 c 128,-1,9
 340 688 340 688 340 658 c 1,0,-1
234 74 m 1,10,11
 198 -32 198 -32 110 -32 c 0,12,13
 32 -32 32 -32 32 40 c 0,14,15
 32 92 32 92 67 134 c 128,-1,16
 102 176 102 176 152 176 c 0,17,18
 234 176 234 176 234 74 c 1,10,11
EndSplineSet
EndChar

StartChar: semicolon
Encoding: 59 59 30
Width: 460
GlyphClass: 2
Flags: W
LayerCount: 2
Fore
SplineSet
360 636 m 1,0,1
 336 538 336 538 234 538 c 0,2,3
 200 538 200 538 176 561 c 128,-1,4
 152 584 152 584 152 636 c 1,5,6
 174 686 174 686 202 708 c 0,7,8
 250 738 250 738 278 738 c 0,9,10
 316 738 316 738 338 706 c 128,-1,11
 360 674 360 674 360 636 c 1,0,1
262 36 m 1,12,-1
 258 -4 l 1,13,14
 178 -248 178 -248 -28 -300 c 1,15,-1
 -20 -270 l 1,16,-1
 54 -208 l 1,17,-1
 94 -170 l 2,18,19
 156 -112 156 -112 156 -36 c 1,20,-1
 152 -4 l 1,21,-1
 114 -2 l 1,22,-1
 66 6 l 1,23,24
 36 28 36 28 36 56 c 1,25,-1
 40 82 l 2,26,27
 48 128 48 128 80 156 c 0,28,29
 106 180 106 180 144 180 c 0,30,31
 198 180 198 180 230 136 c 128,-1,32
 262 92 262 92 262 36 c 1,12,-1
EndSplineSet
EndChar

StartChar: less
Encoding: 60 60 31
Width: 1068
GlyphClass: 2
Flags: W
LayerCount: 2
Fore
SplineSet
806 836 m 1,0,-1
 486 516 l 1,1,-1
 804 200 l 1,2,-1
 732 128 l 1,3,-1
 342 516 l 1,4,-1
 732 908 l 1,5,-1
 806 836 l 1,0,-1
EndSplineSet
EndChar

StartChar: equal
Encoding: 61 61 32
Width: 1068
GlyphClass: 2
Flags: W
LayerCount: 2
Fore
SplineSet
956 654 m 1,0,-1
 108 654 l 1,1,-1
 108 756 l 1,2,-1
 956 756 l 1,3,-1
 956 654 l 1,0,-1
956 292 m 1,4,-1
 110 292 l 1,5,-1
 110 394 l 1,6,-1
 956 394 l 1,7,-1
 956 292 l 1,4,-1
EndSplineSet
EndChar

StartChar: greater
Encoding: 62 62 33
Width: 1068
GlyphClass: 2
Flags: W
LayerCount: 2
Fore
SplineSet
866 516 m 1,0,-1
 476 128 l 1,1,-1
 404 200 l 1,2,-1
 722 516 l 1,3,-1
 402 836 l 1,4,-1
 476 908 l 1,5,-1
 866 516 l 1,0,-1
EndSplineSet
EndChar

StartChar: question
Encoding: 63 63 34
Width: 1010
GlyphClass: 2
Flags: W
LayerCount: 2
Fore
SplineSet
890 944 m 0,0,1
 890 830 890 830 822 728 c 0,2,3
 748 612 748 612 640 612 c 0,4,5
 588 612 588 612 542 636 c 1,6,-1
 492 378 l 1,7,-1
 426 378 l 1,8,-1
 500 738 l 1,9,-1
 550 738 l 1,10,-1
 572 694 l 1,11,12
 588 672 588 672 610 672 c 0,13,14
 652 672 652 672 682 702 c 1,15,-1
 714 746 l 1,16,17
 742 804 742 804 762 868 c 0,18,19
 772 900 772 900 772 962 c 0,20,21
 772 1126 772 1126 664 1126 c 0,22,23
 606 1126 606 1126 553 1061 c 128,-1,24
 500 996 500 996 480 996 c 0,25,26
 438 996 438 996 438 1030 c 1,27,-1
 442 1046 l 2,28,29
 458 1110 458 1110 534 1146 c 0,30,31
 596 1176 596 1176 672 1176 c 0,32,33
 778 1176 778 1176 834 1113 c 128,-1,34
 890 1050 890 1050 890 944 c 0,0,1
516 96 m 1,35,-1
 512 74 l 2,36,37
 494 -26 494 -26 392 -26 c 0,38,39
 312 -26 312 -26 312 74 c 1,40,41
 324 104 324 104 336 118 c 2,42,-1
 358 146 l 1,43,44
 394 176 394 176 430 176 c 0,45,46
 462 176 462 176 489 152 c 128,-1,47
 516 128 516 128 516 96 c 1,35,-1
EndSplineSet
EndChar

StartChar: at
Encoding: 64 64 35
Width: 2030
GlyphClass: 2
Flags: W
LayerCount: 2
Fore
SplineSet
1958 18 m 1,0,1
 1868 -208 1868 -208 1500 -358 c 1,2,-1
 1316 -404 l 1,3,-1
 1216 -416 l 1,4,-1
 1096 -420 l 2,5,6
 908 -426 908 -426 726 -372 c 0,7,8
 528 -314 528 -314 394 -202 c 0,9,10
 116 32 116 32 108 458 c 0,11,12
 104 702 104 702 220 940 c 0,13,14
 472 1456 472 1456 1076 1458 c 0,15,16
 1218 1458 1218 1458 1304 1434 c 2,17,-1
 1408 1404 l 2,18,19
 1424 1400 1424 1400 1456 1384 c 0,20,21
 1676 1292 1676 1292 1802 1084 c 0,22,23
 1908 906 1908 906 1910 696 c 0,24,25
 1912 424 1912 424 1710 194 c 0,26,27
 1536 -4 1536 -4 1322 -4 c 2,28,-1
 1296 -4 l 1,29,-1
 1258 0 l 2,30,31
 1198 6 1198 6 1152 76 c 0,32,33
 1140 94 1140 94 1134 160 c 1,34,35
 1012 2 1012 2 834 -2 c 0,36,37
 642 -6 642 -6 534 204 c 0,38,39
 480 310 480 310 480 436 c 0,40,41
 480 588 480 588 555 737 c 128,-1,42
 630 886 630 886 753 971 c 128,-1,43
 876 1056 876 1056 988 1058 c 0,44,45
 1166 1060 1166 1060 1282 878 c 1,46,-1
 1316 1030 l 1,47,-1
 1490 1030 l 1,48,-1
 1320 224 l 1,49,50
 1320 172 1320 172 1388 160 c 1,51,52
 1482 160 1482 160 1600 286 c 0,53,54
 1764 460 1764 460 1766 700 c 0,55,56
 1768 870 1768 870 1674 1012 c 0,57,58
 1588 1144 1588 1144 1432 1230 c 0,59,60
 1382 1258 1382 1258 1260 1294 c 1,61,-1
 1170 1310 l 1,62,-1
 1068 1316 l 2,63,64
 864 1328 864 1328 650 1212 c 0,65,66
 462 1110 462 1110 354 898 c 0,67,68
 254 702 254 702 252 474 c 0,69,70
 250 248 250 248 346 78 c 0,71,72
 450 -104 450 -104 653 -189 c 128,-1,73
 856 -274 856 -274 1094 -276 c 0,74,75
 1558 -280 1558 -280 1782 18 c 1,76,-1
 1958 18 l 1,0,1
1226 634 m 0,77,78
 1226 746 1226 746 1170 824 c 0,79,80
 1108 914 1108 914 1000 914 c 0,81,82
 886 914 886 914 792 800 c 0,83,84
 722 716 722 716 682 578 c 0,85,86
 664 514 664 514 662 424 c 0,87,88
 660 314 660 314 710 236 c 0,89,90
 766 144 766 144 870 142 c 0,91,92
 976 138 976 138 1070 238 c 0,93,94
 1148 320 1148 320 1190 436 c 0,95,96
 1226 536 1226 536 1226 634 c 0,77,78
EndSplineSet
EndChar

StartChar: bracketleft
Encoding: 91 91 36
Width: 556
GlyphClass: 2
Flags: W
LayerCount: 2
Fore
SplineSet
524 -398 m 1,0,-1
 136 -398 l 1,1,-1
 136 1432 l 1,2,-1
 524 1432 l 1,3,-1
 524 1286 l 1,4,-1
 312 1286 l 1,5,-1
 312 -252 l 1,6,-1
 524 -252 l 1,7,-1
 524 -398 l 1,0,-1
EndSplineSet
EndChar

StartChar: backslash
Encoding: 92 92 37
Width: 556
GlyphClass: 2
Flags: W
LayerCount: 2
Fore
SplineSet
556 -24 m 1,0,-1
 416 -24 l 1,1,-1
 0 1456 l 1,2,-1
 142 1456 l 1,3,-1
 556 -24 l 1,0,-1
EndSplineSet
EndChar

StartChar: bracketright
Encoding: 93 93 38
Width: 556
GlyphClass: 2
Flags: W
LayerCount: 2
Fore
SplineSet
426 -398 m 1,0,-1
 38 -398 l 1,1,-1
 38 -252 l 1,2,-1
 250 -252 l 1,3,-1
 250 1286 l 1,4,-1
 38 1286 l 1,5,-1
 38 1432 l 1,6,-1
 426 1432 l 1,7,-1
 426 -398 l 1,0,-1
EndSplineSet
EndChar

StartChar: asciicircum
Encoding: 94 94 39
Width: 938
GlyphClass: 2
Flags: W
LayerCount: 2
Fore
SplineSet
886 674 m 1,0,-1
 708 674 l 1,1,-1
 468 1256 l 1,2,-1
 234 674 l 1,3,-1
 52 674 l 1,4,-1
 398 1456 l 1,5,-1
 540 1456 l 1,6,-1
 886 674 l 1,0,-1
EndSplineSet
EndChar

StartChar: underscore
Encoding: 95 95 40
Width: 1112
GlyphClass: 2
Flags: W
LayerCount: 2
Fore
SplineSet
1134 -398 m 1,0,-1
 -30 -398 l 1,1,-1
 -30 -270 l 1,2,-1
 1134 -270 l 1,3,-1
 1134 -398 l 1,0,-1
EndSplineSet
EndChar

StartChar: grave
Encoding: 96 96 41
Width: 672
GlyphClass: 2
Flags: W
LayerCount: 2
Fore
SplineSet
690 990 m 1,0,-1
 626 960 l 1,1,-1
 450 1276 l 2,2,3
 444 1292 444 1292 444 1308 c 256,4,5
 444 1324 444 1324 448 1338 c 0,6,7
 460 1368 460 1368 492 1388 c 0,8,9
 504 1394 504 1394 528 1398 c 1,10,11
 586 1398 586 1398 610 1336 c 1,12,-1
 690 990 l 1,0,-1
EndSplineSet
EndChar

StartChar: braceleft
Encoding: 123 123 42
Width: 668
GlyphClass: 2
Flags: W
LayerCount: 2
Fore
SplineSet
622 -420 m 1,0,-1
 566 -420 l 2,1,2
 460 -420 460 -420 426 -404 c 1,3,4
 380 -392 380 -392 328 -334 c 0,5,6
 310 -314 310 -314 270 -206 c 1,7,8
 258 -128 258 -128 258 48 c 0,9,10
 258 246 258 246 242 292 c 1,11,12
 218 426 218 426 56 438 c 1,13,-1
 56 598 l 1,14,15
 204 598 204 598 242 744 c 1,16,-1
 252 854 l 1,17,-1
 258 974 l 2,18,19
 258 1034 258 1034 264 1200 c 0,20,21
 268 1316 268 1316 348 1396 c 0,22,23
 372 1420 372 1420 446 1446 c 1,24,-1
 516 1454 l 1,25,-1
 566 1456 l 1,26,-1
 622 1456 l 1,27,-1
 622 1302 l 1,28,-1
 590 1302 l 2,29,30
 494 1302 494 1302 454 1264 c 1,31,32
 422 1226 422 1226 422 1102 c 2,33,-1
 420 824 l 2,34,35
 420 792 420 792 412 780 c 1,36,37
 394 682 394 682 348 624 c 0,38,39
 310 574 310 574 218 518 c 1,40,41
 350 470 350 470 392 338 c 0,42,43
 418 256 418 256 422 78 c 2,44,-1
 426 -148 l 2,45,46
 428 -208 428 -208 466 -242 c 1,47,-1
 506 -258 l 1,48,49
 556 -268 556 -268 590 -268 c 2,50,-1
 622 -268 l 1,51,-1
 622 -420 l 1,0,-1
EndSplineSet
EndChar

StartChar: bar
Encoding: 124 124 43
Width: 520
GlyphClass: 2
Flags: W
LayerCount: 2
Fore
SplineSet
336 -420 m 1,0,-1
 184 -420 l 1,1,-1
 184 1456 l 1,2,-1
 336 1456 l 1,3,-1
 336 -420 l 1,0,-1
EndSplineSet
EndChar

StartChar: braceright
Encoding: 125 125 44
Width: 668
GlyphClass: 2
Flags: W
LayerCount: 2
Fore
SplineSet
612 438 m 1,0,1
 462 438 462 438 424 290 c 1,2,-1
 414 200 l 1,3,-1
 410 -34 l 2,4,5
 410 -86 410 -86 404 -154 c 0,6,7
 400 -234 400 -234 373 -282 c 128,-1,8
 346 -330 346 -330 312 -364 c 1,9,-1
 276 -386 l 1,10,-1
 222 -410 l 1,11,-1
 176 -418 l 1,12,-1
 100 -420 l 1,13,-1
 46 -420 l 1,14,-1
 46 -268 l 1,15,-1
 76 -268 l 2,16,17
 182 -268 182 -268 216 -218 c 0,18,19
 242 -180 242 -180 244 -66 c 2,20,-1
 246 124 l 1,21,-1
 252 244 l 2,22,23
 256 338 256 338 316 416 c 0,24,25
 366 484 366 484 448 518 c 1,26,27
 320 574 320 574 274 698 c 0,28,29
 244 780 244 780 244 958 c 2,30,-1
 244 1078 l 1,31,-1
 238 1200 l 2,32,33
 232 1302 232 1302 76 1302 c 2,34,-1
 46 1302 l 1,35,-1
 46 1456 l 1,36,-1
 100 1456 l 2,37,38
 204 1456 204 1456 250 1436 c 1,39,40
 346 1406 346 1406 396 1240 c 1,41,-1
 406 1138 l 1,42,-1
 410 988 l 2,43,44
 412 896 412 896 424 738 c 1,45,46
 438 652 438 652 544 608 c 1,47,-1
 576 600 l 1,48,-1
 612 598 l 1,49,-1
 612 438 l 1,0,1
EndSplineSet
EndChar

StartChar: asciitilde
Encoding: 126 126 45
Width: 1168
GlyphClass: 2
Flags: W
LayerCount: 2
Fore
SplineSet
1084 658 m 1,0,1
 1024 604 1024 604 960 572 c 1,2,3
 862 544 862 544 814 546 c 2,4,-1
 758 548 l 1,5,-1
 726 548 l 1,6,-1
 704 556 l 2,7,8
 666 566 666 566 524 628 c 0,9,10
 416 676 416 676 340 676 c 0,11,12
 276 676 276 676 222 650 c 1,13,-1
 162 612 l 1,14,-1
 136 592 l 1,15,-1
 84 544 l 1,16,-1
 84 744 l 1,17,18
 186 856 186 856 356 862 c 0,19,20
 380 862 380 862 480 844 c 1,21,22
 506 832 506 832 664 776 c 2,23,-1
 764 740 l 1,24,-1
 806 730 l 1,25,-1
 832 730 l 2,26,27
 948 730 948 730 1084 864 c 1,28,-1
 1084 658 l 1,0,1
EndSplineSet
EndChar

StartChar: cent
Encoding: 162 162 46
Width: 721
GlyphClass: 2
Flags: W
LayerCount: 2
Fore
SplineSet
598 156 m 1,0,1
 537 71 537 71 467 31 c 128,-1,2
 397 -9 397 -9 304 -17 c 1,3,-1
 228 -265 l 1,4,-1
 187 -265 l 1,5,-1
 262 -17 l 1,6,7
 177 -8 177 -8 128.5 47 c 128,-1,8
 80 102 80 102 80 188 c 0,9,10
 80 345 80 345 191.5 478.5 c 128,-1,11
 303 612 303 612 457 638 c 1,12,-1
 541 917 l 1,13,-1
 580 917 l 1,14,-1
 499 638 l 1,15,16
 580 638 580 638 616.5 607 c 128,-1,17
 653 576 653 576 653 523 c 0,18,19
 653 482 653 482 631.5 455.5 c 128,-1,20
 610 429 610 429 580 429 c 0,21,22
 557 429 557 429 544 442 c 128,-1,23
 531 455 531 455 531 476 c 0,24,25
 531 491 531 491 536 502 c 128,-1,26
 541 513 541 513 560.5 534.5 c 128,-1,27
 580 556 580 556 580 570 c 0,28,29
 580 578 580 578 575 585 c 0,30,31
 565 596 565 596 549.5 601 c 128,-1,32
 534 606 534 606 489 606 c 1,33,-1
 322 49 l 1,34,-1
 352 47 l 1,35,36
 470 47 470 47 580 173 c 1,37,-1
 598 156 l 1,0,1
284 57 m 1,38,-1
 445 598 l 1,39,40
 383 570 383 570 342 533 c 0,41,42
 274 467 274 467 237 380.5 c 128,-1,43
 200 294 200 294 200 205 c 0,44,45
 200 146 200 146 224 108 c 0,46,47
 243 81 243 81 284 57 c 1,38,-1
EndSplineSet
EndChar

StartChar: multiply
Encoding: 215 215 47
Width: 1242
GlyphClass: 2
Flags: W
LayerCount: 2
Fore
SplineSet
1012 400 m 1,0,-1
 926 314 l 1,1,-1
 630 608 l 1,2,-1
 334 314 l 1,3,-1
 248 400 l 1,4,-1
 542 696 l 1,5,-1
 248 990 l 1,6,-1
 336 1078 l 1,7,-1
 630 784 l 1,8,-1
 924 1078 l 1,9,-1
 1012 990 l 1,10,-1
 718 696 l 1,11,-1
 1012 400 l 1,0,-1
EndSplineSet
EndChar

StartChar: divide
Encoding: 247 247 48
Width: 1222
GlyphClass: 2
Flags: W
LayerCount: 2
Fore
SplineSet
740 986 m 0,0,1
 740 942 740 942 711 909 c 128,-1,2
 682 876 682 876 640 876 c 0,3,4
 592 876 592 876 556 903 c 128,-1,5
 520 930 520 930 520 976 c 256,6,7
 520 1022 520 1022 552 1054 c 128,-1,8
 584 1086 584 1086 630 1086 c 0,9,10
 674 1086 674 1086 707 1057 c 128,-1,11
 740 1028 740 1028 740 986 c 0,0,1
1052 630 m 1,12,-1
 214 630 l 1,13,-1
 214 754 l 1,14,-1
 1052 754 l 1,15,-1
 1052 630 l 1,12,-1
740 408 m 0,16,17
 740 364 740 364 711 331 c 128,-1,18
 682 298 682 298 640 298 c 0,19,20
 592 298 592 298 556 325 c 128,-1,21
 520 352 520 352 520 398 c 256,22,23
 520 444 520 444 552 476 c 128,-1,24
 584 508 584 508 630 508 c 0,25,26
 674 508 674 508 707 479 c 128,-1,27
 740 450 740 450 740 408 c 0,16,17
EndSplineSet
EndChar

StartChar: tm_visarga
Encoding: 2947 2947 49
Width: 1540
GlyphClass: 2
Flags: W
LayerCount: 2
Fore
SplineSet
1128 1148 m 0,0,1
 1128 986 1128 986 1030 888 c 128,-1,2
 932 790 932 790 770 790 c 0,3,4
 676 790 676 790 608 870 c 128,-1,5
 540 950 540 950 540 1046 c 0,6,7
 540 1194 540 1194 630 1308 c 0,8,9
 728 1430 728 1430 872 1430 c 0,10,11
 984 1430 984 1430 1056 1346 c 128,-1,12
 1128 1262 1128 1262 1128 1148 c 0,0,1
1382 328 m 0,13,14
 1382 170 1382 170 1296 78 c 0,15,16
 1194 -32 1194 -32 1028 -32 c 0,17,18
 932 -32 932 -32 862 48 c 128,-1,19
 792 128 792 128 792 226 c 0,20,21
 792 376 792 376 884 488 c 0,22,23
 982 610 982 610 1128 610 c 0,24,25
 1240 610 1240 610 1314 524 c 0,26,27
 1382 442 1382 442 1382 328 c 0,13,14
618 328 m 0,28,29
 618 166 618 166 519 67 c 128,-1,30
 420 -32 420 -32 258 -32 c 0,31,32
 164 -32 164 -32 94 52 c 0,33,34
 28 130 28 130 28 226 c 0,35,36
 28 374 28 374 118 488 c 0,37,38
 216 610 216 610 360 610 c 0,39,40
 476 610 476 610 547 528 c 128,-1,41
 618 446 618 446 618 328 c 0,28,29
972 1148 m 0,42,43
 972 1208 972 1208 940 1276 c 0,44,45
 900 1356 900 1356 848 1356 c 0,46,47
 748 1356 748 1356 680 1252 c 0,48,49
 620 1162 620 1162 620 1056 c 0,50,51
 620 894 620 894 770 894 c 0,52,53
 864 894 864 894 922 976 c 0,54,55
 972 1048 972 1048 972 1148 c 0,42,43
1230 328 m 0,56,57
 1230 400 1230 400 1186 468 c 128,-1,58
 1142 536 1142 536 1102 536 c 0,59,60
 1008 536 1008 536 938 428 c 0,61,62
 876 332 876 332 876 234 c 0,63,64
 876 74 876 74 1028 74 c 0,65,66
 1126 74 1126 74 1182 154 c 0,67,68
 1230 226 1230 226 1230 328 c 0,56,57
460 328 m 0,69,70
 460 400 460 400 416 468 c 128,-1,71
 372 536 372 536 332 536 c 0,72,73
 236 536 236 536 166 432 c 0,74,75
 104 340 104 340 104 238 c 0,76,77
 104 168 104 168 143 121 c 128,-1,78
 182 74 182 74 258 74 c 0,79,80
 356 74 356 74 412 154 c 0,81,82
 460 226 460 226 460 328 c 0,69,70
EndSplineSet
EndChar

StartChar: tm_a
Encoding: 2949 2949 50
Width: 2162
GlyphClass: 2
Flags: W
LayerCount: 2
Fore
SplineSet
1996 844 m 1,0,-1
 1738 -364 l 1,1,-1
 1586 -364 l 1,2,-1
 1688 126 l 1,3,-1
 1410 126 l 1,4,5
 1306 -30 1306 -30 1102 -122 c 0,6,7
 914 -210 914 -210 714 -210 c 0,8,9
 464 -210 464 -210 250 -110 c 0,10,11
 20 -2 20 -2 20 126 c 0,12,13
 20 162 20 162 56 182 c 0,14,15
 86 200 86 200 126 200 c 2,16,-1
 1308 200 l 1,17,18
 1352 272 1352 272 1364 328 c 1,19,20
 1378 370 1378 370 1378 484 c 0,21,22
 1378 562 1378 562 1336 630 c 0,23,24
 1278 726 1278 726 1200 738 c 1,25,26
 1222 710 1222 710 1228 692 c 0,27,28
 1254 634 1254 634 1254 558 c 1,29,30
 1228 458 1228 458 1164 396 c 0,31,32
 1094 328 1094 328 996 328 c 0,33,34
 912 328 912 328 860 404 c 0,35,36
 816 470 816 470 816 558 c 0,37,38
 816 706 816 706 928 778 c 0,39,40
 1030 844 1030 844 1176 844 c 0,41,42
 1340 844 1340 844 1438 732 c 0,43,44
 1528 628 1528 628 1528 460 c 1,45,-1
 1522 396 l 1,46,-1
 1508 326 l 2,47,48
 1494 260 1494 260 1460 200 c 1,49,-1
 1708 200 l 1,50,-1
 1844 844 l 1,51,-1
 1996 844 l 1,0,-1
1126 586 m 1,52,53
 1122 628 1122 628 1116 644 c 2,54,-1
 1100 690 l 1,55,56
 1064 738 1064 738 1020 738 c 0,57,58
 946 738 946 738 918 676 c 0,59,60
 894 624 894 624 894 558 c 1,61,-1
 914 476 l 1,62,63
 934 430 934 430 968 430 c 0,64,65
 1040 430 1040 430 1083 472 c 128,-1,66
 1126 514 1126 514 1126 586 c 1,52,53
1262 126 m 1,67,-1
 126 126 l 1,68,69
 126 24 126 24 312 -54 c 0,70,71
 516 -140 516 -140 688 -132 c 2,72,-1
 772 -128 l 1,73,-1
 846 -116 l 2,74,75
 912 -106 912 -106 998 -68 c 0,76,77
 1170 6 1170 6 1262 126 c 1,67,-1
EndSplineSet
EndChar

StartChar: tm_aa
Encoding: 2950 2950 51
Width: 2162
GlyphClass: 2
Flags: W
LayerCount: 2
Fore
SplineSet
2148 -210 m 0,0,1
 2148 -420 2148 -420 1928 -532 c 0,2,3
 1730 -632 1730 -632 1508 -622 c 2,4,-1
 1414 -618 l 1,5,-1
 1332 -606 l 1,6,-1
 1264 -588 l 1,7,-1
 1174 -560 l 1,8,9
 996 -474 996 -474 996 -364 c 0,10,11
 996 -286 996 -286 1098 -286 c 2,12,-1
 1406 -286 l 1,13,-1
 1406 -364 l 1,14,-1
 1098 -364 l 1,15,16
 1098 -464 1098 -464 1264 -510 c 0,17,18
 1376 -542 1376 -542 1508 -542 c 0,19,20
 1696 -542 1696 -542 1830 -472 c 0,21,22
 1996 -382 1996 -382 1996 -210 c 0,23,24
 1996 -160 1996 -160 1965 -119 c 128,-1,25
 1934 -78 1934 -78 1884 -78 c 256,26,27
 1834 -78 1834 -78 1790 -118 c 1,28,-1
 1738 -364 l 1,29,-1
 1586 -364 l 1,30,-1
 1688 126 l 1,31,-1
 1410 126 l 1,32,33
 1306 -30 1306 -30 1102 -122 c 0,34,35
 914 -210 914 -210 714 -210 c 0,36,37
 464 -210 464 -210 250 -110 c 0,38,39
 20 -2 20 -2 20 126 c 0,40,41
 20 162 20 162 56 182 c 0,42,43
 86 200 86 200 126 200 c 2,44,-1
 1308 200 l 1,45,46
 1352 272 1352 272 1364 328 c 1,47,48
 1378 370 1378 370 1378 484 c 0,49,50
 1378 562 1378 562 1336 630 c 0,51,52
 1278 726 1278 726 1200 738 c 1,53,54
 1222 710 1222 710 1228 692 c 0,55,56
 1254 634 1254 634 1254 558 c 1,57,58
 1228 458 1228 458 1164 396 c 0,59,60
 1094 328 1094 328 996 328 c 0,61,62
 912 328 912 328 860 404 c 0,63,64
 816 470 816 470 816 558 c 0,65,66
 816 706 816 706 928 778 c 0,67,68
 1030 844 1030 844 1176 844 c 0,69,70
 1340 844 1340 844 1438 732 c 0,71,72
 1528 628 1528 628 1528 460 c 1,73,-1
 1522 396 l 1,74,-1
 1508 326 l 2,75,76
 1494 260 1494 260 1460 200 c 1,77,-1
 1708 200 l 1,78,-1
 1844 844 l 1,79,-1
 1996 844 l 1,80,-1
 1808 -36 l 1,81,82
 1878 -6 1878 -6 1930 -6 c 0,83,84
 2020 -6 2020 -6 2084 -60 c 128,-1,85
 2148 -114 2148 -114 2148 -210 c 0,0,1
1126 586 m 1,86,87
 1122 628 1122 628 1116 644 c 2,88,-1
 1100 690 l 1,89,90
 1064 738 1064 738 1020 738 c 0,91,92
 946 738 946 738 918 676 c 0,93,94
 894 624 894 624 894 558 c 1,95,-1
 914 476 l 1,96,97
 934 430 934 430 968 430 c 0,98,99
 1040 430 1040 430 1083 472 c 128,-1,100
 1126 514 1126 514 1126 586 c 1,86,87
1262 126 m 1,101,-1
 126 126 l 1,102,103
 126 24 126 24 312 -54 c 0,104,105
 516 -140 516 -140 688 -132 c 2,106,-1
 772 -128 l 1,107,-1
 846 -116 l 2,108,109
 912 -106 912 -106 998 -68 c 0,110,111
 1170 6 1170 6 1262 126 c 1,101,-1
EndSplineSet
EndChar

StartChar: tm_i
Encoding: 2951 2951 52
Width: 1892
GlyphClass: 2
Flags: W
LayerCount: 2
Fore
SplineSet
1734 632 m 2,0,-1
 1728 530 l 1,1,-1
 1714 430 l 1,2,-1
 1508 -644 l 1,3,-1
 1430 -644 l 1,4,-1
 1636 430 l 2,5,6
 1642 458 1642 458 1648 502 c 1,7,-1
 1650 570 l 2,8,9
 1658 844 1658 844 1448 1040 c 0,10,11
 1244 1226 1244 1226 946 1226 c 0,12,13
 586 1226 586 1226 352 1038 c 0,14,15
 98 836 98 836 98 484 c 0,16,17
 98 262 98 262 274 -42 c 1,18,19
 514 72 514 72 744 72 c 0,20,21
 880 72 880 72 1012 36 c 1,22,-1
 1038 82 l 1,23,-1
 1058 124 l 1,24,-1
 1094 218 l 1,25,26
 1124 330 1124 330 1124 420 c 0,27,28
 1124 518 1124 518 1080 612 c 1,29,30
 1028 696 1028 696 946 738 c 1,31,-1
 972 692 l 1,32,33
 996 620 996 620 996 558 c 0,34,35
 996 458 996 458 918 393 c 128,-1,36
 840 328 840 328 738 328 c 0,37,38
 652 328 652 328 602 402 c 0,39,40
 558 466 558 466 558 558 c 0,41,42
 558 706 558 706 670 778 c 0,43,44
 772 844 772 844 918 844 c 0,45,46
 1054 844 1054 844 1158 718 c 0,47,48
 1278 572 1278 572 1278 378 c 0,49,50
 1278 194 1278 194 1144 -28 c 1,51,52
 1230 -78 1230 -78 1280 -154 c 1,53,54
 1328 -244 1328 -244 1328 -336 c 0,55,56
 1328 -482 1328 -482 1218 -566 c 0,57,58
 1118 -644 1118 -644 968 -644 c 0,59,60
 784 -644 784 -644 606 -520 c 1,61,62
 382 -644 382 -644 226 -644 c 0,63,64
 114 -644 114 -644 34 -586 c 0,65,66
 -54 -522 -54 -522 -54 -414 c 0,67,68
 -54 -326 -54 -326 18 -236 c 128,-1,69
 90 -146 90 -146 214 -74 c 1,70,71
 108 92 108 92 72 218 c 1,72,73
 60 236 60 236 56 254 c 2,74,-1
 50 284 l 1,75,-1
 30 370 l 2,76,77
 20 414 20 414 20 484 c 0,78,79
 20 850 20 850 302 1108 c 0,80,81
 576 1356 576 1356 946 1356 c 0,82,83
 1286 1356 1286 1356 1510 1160 c 0,84,85
 1752 946 1752 946 1734 632 c 2,0,-1
868 586 m 0,86,87
 868 738 868 738 766 738 c 0,88,89
 704 738 704 738 666 680 c 0,90,91
 634 630 634 630 634 564 c 0,92,93
 634 520 634 520 660 468 c 1,94,95
 690 430 690 430 738 430 c 0,96,97
 868 430 868 430 868 586 c 0,86,87
1176 -320 m 1,98,-1
 1170 -270 l 1,99,-1
 1150 -210 l 1,100,101
 1116 -148 1116 -148 1082 -126 c 1,102,103
 892 -354 892 -354 676 -488 c 1,104,105
 802 -570 802 -570 946 -570 c 0,106,107
 1048 -570 1048 -570 1112 -494 c 128,-1,108
 1176 -418 1176 -418 1176 -320 c 1,98,-1
958 -50 m 1,109,110
 926 -36 926 -36 838 -12 c 1,111,112
 768 0 768 0 714 -4 c 2,113,-1
 608 -12 l 1,114,-1
 504 -30 l 1,115,116
 396 -68 396 -68 308 -106 c 1,117,118
 392 -226 392 -226 442 -280 c 0,119,120
 520 -364 520 -364 586 -418 c 1,121,122
 814 -256 814 -256 958 -50 c 1,109,110
528 -458 m 1,123,124
 364 -330 364 -330 246 -140 c 1,125,126
 20 -282 20 -282 20 -414 c 0,127,128
 20 -532 20 -532 176 -570 c 1,129,130
 338 -570 338 -570 528 -458 c 1,123,124
EndSplineSet
EndChar

StartChar: tm_ii
Encoding: 2952 2952 53
Width: 1236
GlyphClass: 2
Flags: W
LayerCount: 2
Fore
SplineSet
1036 430 m 0,0,1
 1036 386 1036 386 1006 358 c 128,-1,2
 976 330 976 330 930 330 c 0,3,4
 890 330 890 330 858 356 c 1,5,6
 828 396 828 396 828 430 c 0,7,8
 828 528 828 528 930 528 c 0,9,10
 970 528 970 528 1003 499 c 128,-1,11
 1036 470 1036 470 1036 430 c 0,0,1
1140 766 m 1,12,-1
 816 766 l 1,13,-1
 648 -4 l 1,14,-1
 500 -4 l 1,15,-1
 664 766 l 1,16,-1
 254 766 l 1,17,-1
 90 -4 l 1,18,-1
 12 -4 l 1,19,-1
 188 844 l 1,20,-1
 1140 844 l 1,21,-1
 1140 766 l 1,12,-1
468 430 m 0,22,23
 468 330 468 330 366 330 c 0,24,25
 326 330 326 330 296 357 c 128,-1,26
 266 384 266 384 266 430 c 0,27,28
 266 472 266 472 295 500 c 128,-1,29
 324 528 324 528 366 528 c 0,30,31
 404 528 404 528 436 498 c 128,-1,32
 468 468 468 468 468 430 c 0,22,23
EndSplineSet
EndChar

StartChar: tm_u
Encoding: 2953 2953 54
Width: 1564
GlyphClass: 2
Flags: W
LayerCount: 2
Fore
SplineSet
1430 -4 m 1,0,-1
 226 -4 l 2,1,2
 136 -4 136 -4 74 36 c 1,3,4
 20 88 20 88 20 148 c 0,5,6
 20 220 20 220 90 264 c 0,7,8
 150 304 150 304 226 304 c 2,9,-1
 484 304 l 2,10,11
 596 304 596 304 666 370 c 1,12,13
 738 452 738 452 738 536 c 0,14,15
 738 640 738 640 648 706 c 0,16,17
 566 766 566 766 458 766 c 1,18,19
 492 746 492 746 525 696 c 128,-1,20
 558 646 558 646 558 610 c 0,21,22
 558 524 558 524 491 468 c 128,-1,23
 424 412 424 412 336 412 c 0,24,25
 258 412 258 412 202 456 c 1,26,27
 148 510 148 510 148 586 c 0,28,29
 148 718 148 718 260 784 c 0,30,31
 362 844 362 844 508 844 c 0,32,33
 658 844 658 844 770 762 c 0,34,35
 894 672 894 672 894 536 c 0,36,37
 894 396 894 396 768 306 c 0,38,39
 654 226 654 226 508 226 c 2,40,-1
 278 226 l 2,41,42
 244 226 244 226 213 204 c 128,-1,43
 182 182 182 182 182 150 c 1,44,45
 188 114 188 114 204 96 c 0,46,47
 228 74 228 74 278 74 c 2,48,-1
 1430 74 l 1,49,-1
 1430 -4 l 1,0,-1
430 610 m 0,50,51
 430 642 430 642 406 690 c 1,52,53
 376 738 376 738 356 738 c 0,54,55
 296 738 296 738 261 698 c 128,-1,56
 226 658 226 658 226 598 c 0,57,58
 226 566 226 566 238 544 c 2,59,-1
 252 518 l 1,60,61
 280 484 280 484 328 484 c 0,62,63
 364 484 364 484 397 527 c 128,-1,64
 430 570 430 570 430 610 c 0,50,51
EndSplineSet
EndChar

StartChar: tm_uu
Encoding: 2954 2954 55
Width: 2714
GlyphClass: 2
Flags: W
LayerCount: 2
Fore
SplineSet
2546 766 m 1,0,-1
 2394 766 l 1,1,-1
 2266 176 l 1,2,-1
 2110 176 l 1,3,-1
 2238 766 l 1,4,-1
 2008 766 l 1,5,-1
 1878 176 l 1,6,-1
 1726 176 l 1,7,-1
 1804 508 l 1,8,9
 1804 622 1804 622 1688 698 c 0,10,11
 1586 766 1586 766 1468 766 c 0,12,13
 1354 766 1354 766 1259 682 c 128,-1,14
 1164 598 1164 598 1164 484 c 0,15,16
 1164 430 1164 430 1208 346 c 1,17,18
 1256 272 1256 272 1316 254 c 1,19,20
 1278 274 1278 274 1256 332 c 0,21,22
 1238 380 1238 380 1238 430 c 0,23,24
 1238 508 1238 508 1298 554 c 128,-1,25
 1358 600 1358 600 1438 600 c 256,26,27
 1518 600 1518 600 1572 554 c 128,-1,28
 1626 508 1626 508 1626 430 c 0,29,30
 1626 330 1626 330 1559 253 c 128,-1,31
 1492 176 1492 176 1394 176 c 0,32,33
 1268 176 1268 176 1177 267 c 128,-1,34
 1086 358 1086 358 1086 484 c 0,35,36
 1086 652 1086 652 1220 752 c 0,37,38
 1340 842 1340 842 1514 842 c 0,39,40
 1580 842 1580 842 1642 824 c 128,-1,41
 1704 806 1704 806 1752 780 c 0,42,43
 1864 718 1864 718 1906 610 c 1,44,-1
 1958 844 l 1,45,-1
 2546 844 l 1,46,-1
 2546 766 l 1,0,-1
2316 -4 m 1,47,-1
 238 -4 l 2,48,49
 36 -4 36 -4 36 148 c 0,50,51
 36 220 36 220 104 264 c 0,52,53
 164 304 164 304 238 304 c 2,54,-1
 496 304 l 2,55,56
 596 304 596 304 675 370 c 128,-1,57
 754 436 754 436 754 536 c 0,58,59
 754 640 754 640 660 706 c 0,60,61
 576 766 576 766 468 766 c 1,62,63
 508 746 508 746 541 699 c 128,-1,64
 574 652 574 652 574 610 c 0,65,66
 574 516 574 516 508 464 c 128,-1,67
 442 412 442 412 350 412 c 0,68,69
 164 412 164 412 164 586 c 0,70,71
 164 718 164 718 276 784 c 0,72,73
 378 844 378 844 520 844 c 0,74,75
 670 844 670 844 782 762 c 0,76,77
 906 672 906 672 906 536 c 0,78,79
 906 396 906 396 780 306 c 0,80,81
 666 226 666 226 520 226 c 2,82,-1
 290 226 l 2,83,84
 256 226 256 226 225 204 c 128,-1,85
 194 182 194 182 194 150 c 1,86,87
 200 114 200 114 216 96 c 0,88,89
 240 74 240 74 290 74 c 2,90,-1
 2316 74 l 1,91,-1
 2316 -4 l 1,47,-1
1520 430 m 0,92,93
 1520 536 1520 536 1446 536 c 0,94,95
 1394 536 1394 536 1356 487 c 128,-1,96
 1318 438 1318 438 1318 384 c 0,97,98
 1318 340 1318 340 1344 308 c 1,99,100
 1380 278 1380 278 1418 278 c 0,101,102
 1468 278 1468 278 1496 332 c 0,103,104
 1520 376 1520 376 1520 430 c 0,92,93
446 610 m 0,105,106
 446 644 446 644 422 691 c 128,-1,107
 398 738 398 738 368 738 c 0,108,109
 308 738 308 738 273 700 c 128,-1,110
 238 662 238 662 238 602 c 0,111,112
 238 564 238 564 264 518 c 1,113,114
 292 484 292 484 344 484 c 0,115,116
 380 484 380 484 413 527 c 128,-1,117
 446 570 446 570 446 610 c 0,105,106
EndSplineSet
EndChar

StartChar: tm_e
Encoding: 2958 2958 56
Width: 1560
GlyphClass: 2
Flags: W
LayerCount: 2
Fore
SplineSet
1454 766 m 1,0,-1
 1210 766 l 1,1,-1
 1042 -4 l 1,2,-1
 890 -4 l 1,3,-1
 1054 766 l 1,4,-1
 606 766 l 2,5,6
 396 766 396 766 252 654 c 0,7,8
 94 534 94 534 94 328 c 0,9,10
 94 268 94 268 140 204 c 1,11,12
 198 138 198 138 246 126 c 1,13,14
 230 152 230 152 220 184 c 0,15,16
 206 228 206 228 210 270 c 2,17,-1
 214 316 l 1,18,-1
 224 362 l 1,19,20
 286 508 286 508 454 508 c 0,21,22
 528 508 528 508 580 440 c 128,-1,23
 632 372 632 372 632 278 c 0,24,25
 632 176 632 176 554 86 c 128,-1,26
 476 -4 476 -4 376 -4 c 0,27,28
 232 -4 232 -4 124 91 c 128,-1,29
 16 186 16 186 16 328 c 0,30,31
 16 562 16 562 198 708 c 0,32,33
 366 844 366 844 606 844 c 2,34,-1
 1454 844 l 1,35,-1
 1454 766 l 1,0,-1
504 278 m 0,36,37
 504 430 504 430 426 430 c 0,38,39
 358 430 358 430 316 377 c 128,-1,40
 274 324 274 324 274 254 c 0,41,42
 274 214 274 214 294 144 c 1,43,44
 322 98 322 98 352 98 c 0,45,46
 424 98 424 98 468 160 c 1,47,48
 504 224 504 224 504 278 c 0,36,37
EndSplineSet
EndChar

StartChar: tm_ee
Encoding: 2959 2959 57
Width: 1560
GlyphClass: 2
Flags: W
LayerCount: 2
Fore
SplineSet
1454 766 m 1,0,-1
 1210 766 l 1,1,-1
 1042 -4 l 1,2,-1
 352 -336 l 1,3,-1
 352 -262 l 1,4,-1
 898 36 l 1,5,-1
 1054 766 l 1,6,-1
 606 766 l 2,7,8
 396 766 396 766 252 654 c 0,9,10
 94 534 94 534 94 328 c 0,11,12
 94 268 94 268 140 204 c 1,13,14
 198 138 198 138 246 126 c 1,15,16
 230 152 230 152 220 184 c 0,17,18
 206 228 206 228 210 270 c 2,19,-1
 214 316 l 1,20,-1
 224 362 l 1,21,22
 286 508 286 508 454 508 c 0,23,24
 528 508 528 508 580 440 c 128,-1,25
 632 372 632 372 632 278 c 0,26,27
 632 176 632 176 554 86 c 128,-1,28
 476 -4 476 -4 376 -4 c 0,29,30
 232 -4 232 -4 124 91 c 128,-1,31
 16 186 16 186 16 328 c 0,32,33
 16 562 16 562 198 708 c 0,34,35
 366 844 366 844 606 844 c 2,36,-1
 1454 844 l 1,37,-1
 1454 766 l 1,0,-1
504 278 m 0,38,39
 504 430 504 430 426 430 c 0,40,41
 358 430 358 430 316 377 c 128,-1,42
 274 324 274 324 274 254 c 0,43,44
 274 214 274 214 294 144 c 1,45,46
 322 98 322 98 352 98 c 0,47,48
 424 98 424 98 468 160 c 1,49,50
 504 224 504 224 504 278 c 0,38,39
EndSplineSet
EndChar

StartChar: tm_ai
Encoding: 2960 2960 58
Width: 1650
GlyphClass: 2
Flags: W
LayerCount: 2
Fore
SplineSet
1488 484 m 0,0,1
 1488 262 1488 262 1356 141 c 128,-1,2
 1224 20 1224 20 1000 20 c 2,3,-1
 332 20 l 2,4,5
 202 20 202 20 134 -44 c 0,6,7
 50 -122 50 -122 50 -262 c 0,8,9
 50 -386 50 -386 110 -448 c 0,10,11
 176 -516 176 -516 282 -516 c 0,12,13
 408 -516 408 -516 519 -446 c 128,-1,14
 630 -376 630 -376 668 -262 c 1,15,-1
 692 -106 l 1,16,-1
 848 -106 l 1,17,-1
 820 -234 l 1,18,-1
 812 -278 l 1,19,-1
 812 -310 l 2,20,21
 812 -516 812 -516 1000 -516 c 0,22,23
 1150 -516 1150 -516 1226 -414 c 0,24,25
 1298 -320 1298 -320 1288 -206 c 2,26,-1
 1282 -132 l 1,27,28
 1294 -112 1294 -112 1322 -112 c 0,29,30
 1358 -112 1358 -112 1360 -132 c 2,31,-1
 1364 -192 l 2,32,33
 1374 -346 1374 -346 1286 -460 c 0,34,35
 1184 -594 1184 -594 1000 -594 c 0,36,37
 902 -594 902 -594 808 -538 c 1,38,39
 728 -470 728 -470 692 -390 c 1,40,41
 612 -486 612 -486 506 -542 c 0,42,43
 460 -566 460 -566 392 -580 c 128,-1,44
 324 -594 324 -594 258 -594 c 0,45,46
 112 -594 112 -594 8 -502 c 0,47,48
 -102 -406 -102 -406 -102 -262 c 0,49,50
 -102 -98 -102 -98 24 4 c 0,51,52
 142 98 142 98 308 98 c 2,53,-1
 972 98 l 2,54,55
 1332 98 1332 98 1332 484 c 0,56,57
 1332 738 1332 738 1180 738 c 0,58,59
 1134 738 1134 738 1092 708 c 1,60,-1
 1044 664 l 1,61,62
 980 582 980 582 972 536 c 2,63,-1
 922 226 l 1,64,-1
 770 226 l 1,65,-1
 820 536 l 1,66,67
 820 634 820 634 726 702 c 0,68,69
 642 766 642 766 540 766 c 0,70,71
 392 766 392 766 300 702 c 0,72,73
 180 620 180 620 180 484 c 0,74,75
 180 402 180 402 227 353 c 128,-1,76
 274 304 274 304 332 304 c 1,77,78
 310 332 310 332 300 362 c 2,79,-1
 284 408 l 1,80,-1
 282 430 l 1,81,-1
 282 458 l 2,82,83
 282 530 282 530 338 582 c 128,-1,84
 394 634 394 634 468 634 c 0,85,86
 544 634 544 634 592 584 c 128,-1,87
 640 534 640 534 640 458 c 0,88,89
 640 348 640 348 573 287 c 128,-1,90
 506 226 506 226 394 226 c 0,91,92
 274 226 274 226 192 294 c 0,93,94
 102 366 102 366 102 484 c 0,95,96
 102 648 102 648 238 748 c 0,97,98
 364 840 364 840 532 840 c 0,99,100
 658 840 658 840 764 784 c 0,101,102
 878 720 878 720 922 610 c 1,103,104
 970 744 970 744 1066 802 c 0,105,106
 1138 844 1138 844 1230 844 c 0,107,108
 1350 844 1350 844 1424 720 c 0,109,110
 1488 612 1488 612 1488 484 c 0,0,1
540 458 m 0,111,112
 540 496 540 496 516 524 c 128,-1,113
 492 552 492 552 454 552 c 1,114,-1
 420 544 l 1,115,-1
 390 526 l 1,116,117
 360 496 360 496 360 458 c 0,118,119
 360 422 360 422 382 368 c 0,120,121
 408 304 408 304 438 304 c 0,122,123
 482 304 482 304 512 362 c 0,124,125
 540 410 540 410 540 458 c 0,111,112
EndSplineSet
EndChar

StartChar: tm_o
Encoding: 2962 2962 59
Width: 1516
GlyphClass: 2
Flags: W
LayerCount: 2
Fore
SplineSet
1360 328 m 0,0,1
 1360 196 1360 196 1290 104 c 0,2,3
 1208 -4 1208 -4 1102 -4 c 0,4,5
 872 -4 872 -4 872 254 c 1,6,7
 790 214 790 214 790 92 c 0,8,9
 790 -8 790 -8 842 -78 c 0,10,11
 900 -156 900 -156 972 -156 c 2,12,-1
 1208 -156 l 1,13,-1
 1208 -234 l 1,14,-1
 922 -234 l 2,15,16
 818 -234 818 -234 780 -350 c 0,17,18
 702 -594 702 -594 460 -594 c 0,19,20
 314 -594 314 -594 214 -532 c 0,21,22
 102 -462 102 -462 102 -336 c 0,23,24
 102 -284 102 -284 132 -244 c 1,25,26
 182 -194 182 -194 208 -184 c 2,27,-1
 238 -172 l 2,28,29
 248 -172 248 -172 248 -184 c 0,30,31
 248 -200 248 -200 230 -234 c 1,32,33
 180 -286 180 -286 180 -336 c 0,34,35
 180 -428 180 -428 276 -478 c 0,36,37
 350 -516 350 -516 438 -516 c 0,38,39
 560 -516 560 -516 612 -430 c 1,40,41
 650 -350 650 -350 688 -270 c 1,42,43
 744 -184 744 -184 872 -184 c 1,44,45
 794 -128 794 -128 759 -55 c 128,-1,46
 724 18 724 18 724 96 c 0,47,48
 724 150 724 150 736 180 c 2,49,-1
 768 262 l 1,50,51
 822 340 822 340 898 378 c 0,52,53
 914 386 914 386 930 386 c 0,54,55
 980 376 980 376 980 346 c 1,56,-1
 972 328 l 2,57,58
 942 260 942 260 942 212 c 0,59,60
 942 148 942 148 980 110 c 1,61,62
 1032 74 1032 74 1078 74 c 0,63,64
 1208 74 1208 74 1208 328 c 0,65,66
 1208 494 1208 494 1078 616 c 0,67,68
 920 766 920 766 668 766 c 0,69,70
 436 766 436 766 282 666 c 0,71,72
 102 548 102 548 102 328 c 0,73,74
 102 268 102 268 148 204 c 1,75,76
 208 138 208 138 258 126 c 1,77,78
 220 190 220 190 220 272 c 0,79,80
 220 366 220 366 276 434 c 1,81,82
 350 508 350 508 460 508 c 0,83,84
 544 508 544 508 596 432 c 0,85,86
 640 366 640 366 640 278 c 0,87,88
 640 174 640 174 564 88 c 0,89,90
 484 -4 484 -4 382 -4 c 0,91,92
 236 -4 236 -4 132 90 c 128,-1,93
 28 184 28 184 28 328 c 0,94,95
 28 580 28 580 230 720 c 0,96,97
 406 844 406 844 668 844 c 0,98,99
 934 844 934 844 1130 722 c 0,100,101
 1360 578 1360 578 1360 328 c 0,0,1
512 278 m 0,102,103
 512 430 512 430 438 430 c 0,104,105
 370 430 370 430 326 376 c 128,-1,106
 282 322 282 322 282 254 c 0,107,108
 282 214 282 214 302 144 c 1,109,110
 330 98 330 98 360 98 c 0,111,112
 422 98 422 98 467 156 c 128,-1,113
 512 214 512 214 512 278 c 0,102,103
EndSplineSet
EndChar

StartChar: tm_oo
Encoding: 2963 2963 60
Width: 1516
GlyphClass: 2
Flags: W
LayerCount: 2
Fore
SplineSet
1360 328 m 0,0,1
 1360 196 1360 196 1290 104 c 0,2,3
 1208 -4 1208 -4 1102 -4 c 0,4,5
 872 -4 872 -4 872 254 c 1,6,7
 790 214 790 214 790 92 c 0,8,9
 790 -8 790 -8 842 -78 c 0,10,11
 900 -156 900 -156 972 -156 c 2,12,-1
 1208 -156 l 1,13,-1
 1208 -234 l 1,14,-1
 922 -234 l 2,15,16
 822 -234 822 -234 782 -350 c 0,17,18
 696 -594 696 -594 460 -594 c 0,19,20
 314 -594 314 -594 214 -532 c 0,21,22
 102 -462 102 -462 102 -336 c 0,23,24
 102 -238 102 -238 178 -180 c 1,25,26
 254 -132 254 -132 332 -132 c 0,27,28
 398 -132 398 -132 450 -164 c 0,29,30
 512 -200 512 -200 512 -262 c 0,31,32
 512 -298 512 -298 494 -328 c 0,33,34
 472 -364 472 -364 438 -364 c 0,35,36
 402 -364 402 -364 376 -332 c 1,37,38
 350 -282 350 -282 352 -256 c 2,39,-1
 354 -232 l 1,40,-1
 360 -210 l 1,41,42
 292 -210 292 -210 242 -238 c 0,43,44
 180 -272 180 -272 180 -336 c 0,45,46
 180 -428 180 -428 276 -478 c 0,47,48
 350 -516 350 -516 438 -516 c 0,49,50
 560 -516 560 -516 612 -430 c 1,51,52
 650 -350 650 -350 688 -270 c 1,53,54
 744 -184 744 -184 872 -184 c 1,55,56
 794 -128 794 -128 759 -55 c 128,-1,57
 724 18 724 18 724 96 c 0,58,59
 724 150 724 150 736 180 c 2,60,-1
 768 262 l 1,61,62
 822 340 822 340 898 378 c 0,63,64
 914 386 914 386 930 386 c 0,65,66
 980 376 980 376 980 346 c 1,67,-1
 972 328 l 2,68,69
 942 260 942 260 942 212 c 0,70,71
 942 148 942 148 980 110 c 1,72,73
 1032 74 1032 74 1078 74 c 0,74,75
 1208 74 1208 74 1208 328 c 0,76,77
 1208 494 1208 494 1078 616 c 0,78,79
 920 766 920 766 668 766 c 0,80,81
 436 766 436 766 282 666 c 0,82,83
 102 548 102 548 102 328 c 0,84,85
 102 268 102 268 148 204 c 1,86,87
 208 138 208 138 258 126 c 1,88,89
 220 190 220 190 220 272 c 0,90,91
 220 366 220 366 276 434 c 1,92,93
 350 508 350 508 460 508 c 0,94,95
 544 508 544 508 596 432 c 0,96,97
 640 366 640 366 640 278 c 0,98,99
 640 174 640 174 564 88 c 0,100,101
 484 -4 484 -4 382 -4 c 0,102,103
 236 -4 236 -4 132 90 c 128,-1,104
 28 184 28 184 28 328 c 0,105,106
 28 580 28 580 230 720 c 0,107,108
 406 844 406 844 668 844 c 0,109,110
 934 844 934 844 1130 722 c 0,111,112
 1360 578 1360 578 1360 328 c 0,0,1
512 278 m 0,113,114
 512 430 512 430 438 430 c 0,115,116
 370 430 370 430 326 376 c 128,-1,117
 282 322 282 322 282 254 c 0,118,119
 282 214 282 214 302 144 c 1,120,121
 330 98 330 98 360 98 c 0,122,123
 422 98 422 98 467 156 c 128,-1,124
 512 214 512 214 512 278 c 0,113,114
EndSplineSet
EndChar

StartChar: tm_au
Encoding: 2964 2964 61
Width: 3378
GlyphClass: 2
Flags: W
LayerCount: 2
Fore
SplineSet
3234 766 m 1,0,-1
 2988 766 l 1,1,-1
 2824 -4 l 1,2,-1
 2668 -4 l 1,3,-1
 2836 766 l 1,4,-1
 2578 766 l 1,5,-1
 2410 -4 l 1,6,-1
 2258 -4 l 1,7,-1
 2344 392 l 1,8,-1
 2344 444 l 2,9,10
 2344 564 2344 564 2286 658 c 0,11,12
 2218 766 2218 766 2106 766 c 0,13,14
 1892 766 1892 766 1750 656 c 0,15,16
 1590 532 1590 532 1590 328 c 0,17,18
 1590 268 1590 268 1636 204 c 1,19,20
 1696 138 1696 138 1746 126 c 1,21,22
 1708 190 1708 190 1708 272 c 0,23,24
 1708 366 1708 366 1764 434 c 1,25,26
 1838 508 1838 508 1948 508 c 0,27,28
 2024 508 2024 508 2076 440 c 128,-1,29
 2128 372 2128 372 2128 278 c 0,30,31
 2128 172 2128 172 2053 84 c 128,-1,32
 1978 -4 1978 -4 1874 -4 c 0,33,34
 1734 -4 1734 -4 1625 93 c 128,-1,35
 1516 190 1516 190 1516 328 c 0,36,37
 1516 562 1516 562 1698 708 c 0,38,39
 1866 844 1866 844 2106 844 c 0,40,41
 2246 844 2246 844 2337 760 c 128,-1,42
 2428 676 2428 676 2448 536 c 1,43,-1
 2516 844 l 1,44,-1
 3234 844 l 1,45,-1
 3234 766 l 1,0,-1
1360 328 m 0,46,47
 1360 196 1360 196 1290 104 c 0,48,49
 1208 -4 1208 -4 1102 -4 c 0,50,51
 872 -4 872 -4 872 254 c 1,52,53
 790 214 790 214 790 92 c 0,54,55
 790 -8 790 -8 842 -78 c 0,56,57
 900 -156 900 -156 972 -156 c 2,58,-1
 1208 -156 l 1,59,-1
 1208 -234 l 1,60,-1
 922 -234 l 2,61,62
 818 -234 818 -234 780 -350 c 0,63,64
 702 -594 702 -594 460 -594 c 0,65,66
 314 -594 314 -594 214 -532 c 0,67,68
 102 -462 102 -462 102 -336 c 0,69,70
 102 -284 102 -284 132 -244 c 1,71,72
 182 -194 182 -194 208 -184 c 2,73,-1
 238 -172 l 2,74,75
 248 -172 248 -172 248 -184 c 0,76,77
 248 -200 248 -200 230 -234 c 1,78,79
 180 -286 180 -286 180 -336 c 0,80,81
 180 -428 180 -428 276 -478 c 0,82,83
 350 -516 350 -516 438 -516 c 0,84,85
 560 -516 560 -516 612 -430 c 1,86,87
 650 -350 650 -350 688 -270 c 1,88,89
 744 -184 744 -184 872 -184 c 1,90,91
 794 -128 794 -128 759 -55 c 128,-1,92
 724 18 724 18 724 96 c 0,93,94
 724 150 724 150 736 180 c 2,95,-1
 768 262 l 1,96,97
 822 340 822 340 898 378 c 0,98,99
 914 386 914 386 930 386 c 0,100,101
 980 376 980 376 980 346 c 1,102,-1
 972 328 l 2,103,104
 942 260 942 260 942 212 c 0,105,106
 942 148 942 148 980 110 c 1,107,108
 1032 74 1032 74 1078 74 c 0,109,110
 1208 74 1208 74 1208 328 c 0,111,112
 1208 494 1208 494 1078 616 c 0,113,114
 920 766 920 766 668 766 c 0,115,116
 436 766 436 766 282 666 c 0,117,118
 102 548 102 548 102 328 c 0,119,120
 102 268 102 268 148 204 c 1,121,122
 208 138 208 138 258 126 c 1,123,124
 220 190 220 190 220 272 c 0,125,126
 220 366 220 366 276 434 c 1,127,128
 350 508 350 508 460 508 c 0,129,130
 544 508 544 508 596 432 c 0,131,132
 640 366 640 366 640 278 c 0,133,134
 640 174 640 174 564 88 c 0,135,136
 484 -4 484 -4 382 -4 c 0,137,138
 236 -4 236 -4 132 90 c 128,-1,139
 28 184 28 184 28 328 c 0,140,141
 28 580 28 580 230 720 c 0,142,143
 406 844 406 844 668 844 c 0,144,145
 934 844 934 844 1130 722 c 0,146,147
 1360 578 1360 578 1360 328 c 0,46,47
2000 278 m 0,148,149
 2000 430 2000 430 1926 430 c 0,150,151
 1864 430 1864 430 1817 373 c 128,-1,152
 1770 316 1770 316 1770 254 c 0,153,154
 1770 214 1770 214 1790 144 c 1,155,156
 1818 98 1818 98 1848 98 c 0,157,158
 1910 98 1910 98 1955 156 c 128,-1,159
 2000 214 2000 214 2000 278 c 0,148,149
512 278 m 0,160,161
 512 430 512 430 438 430 c 0,162,163
 370 430 370 430 326 376 c 128,-1,164
 282 322 282 322 282 254 c 0,165,166
 282 214 282 214 302 144 c 1,167,168
 330 98 330 98 360 98 c 0,169,170
 422 98 422 98 467 156 c 128,-1,171
 512 214 512 214 512 278 c 0,160,161
EndSplineSet
EndChar

StartChar: tm_ka
Encoding: 2965 2965 62
Width: 1280
GlyphClass: 2
Flags: W
LayerCount: 2
Fore
SplineSet
1184 766 m 1,0,-1
 860 766 l 1,1,-1
 800 484 l 1,2,-1
 848 484 l 2,3,4
 964 484 964 484 1052 428 c 0,5,6
 1152 364 1152 364 1152 254 c 0,7,8
 1152 146 1152 146 1067 71 c 128,-1,9
 982 -4 982 -4 872 -4 c 1,10,-1
 820 74 l 1,11,12
 898 74 898 74 949 125 c 128,-1,13
 1000 176 1000 176 1000 254 c 0,14,15
 1000 406 1000 406 820 406 c 2,16,-1
 786 406 l 1,17,-1
 770 328 l 2,18,19
 736 158 736 158 646 80 c 0,20,21
 552 -4 552 -4 382 -4 c 0,22,23
 236 -4 236 -4 144 52 c 0,24,25
 28 118 28 118 28 254 c 0,26,27
 28 348 28 348 96 416 c 128,-1,28
 164 484 164 484 258 484 c 2,29,-1
 308 484 l 1,30,-1
 382 844 l 1,31,-1
 1184 844 l 1,32,-1
 1184 766 l 1,0,-1
708 766 m 1,33,-1
 450 766 l 1,34,-1
 390 484 l 1,35,-1
 644 484 l 1,36,-1
 708 766 l 1,33,-1
632 406 m 1,37,-1
 258 406 l 2,38,39
 190 406 190 406 146 364 c 128,-1,40
 102 322 102 322 102 254 c 0,41,42
 102 156 102 156 196 108 c 0,43,44
 262 74 262 74 382 74 c 0,45,46
 484 74 484 74 544 146 c 0,47,48
 596 210 596 210 618 328 c 2,49,-1
 632 406 l 1,37,-1
EndSplineSet
EndChar

StartChar: tm_nga
Encoding: 2969 2969 63
Width: 1580
GlyphClass: 2
Flags: W
LayerCount: 2
Fore
SplineSet
1454 844 m 1,0,-1
 1274 -4 l 1,1,-1
 352 -4 l 1,2,-1
 352 74 l 1,3,-1
 656 74 l 1,4,5
 732 106 732 106 764 154 c 0,6,7
 812 224 812 224 812 278 c 0,8,9
 812 430 812 430 710 430 c 0,10,11
 634 430 634 430 594 382 c 1,12,-1
 558 226 l 1,13,-1
 406 226 l 1,14,-1
 516 766 l 1,15,-1
 262 766 l 1,16,-1
 98 -4 l 1,17,-1
 20 -4 l 1,18,-1
 196 844 l 1,19,-1
 996 844 l 1,20,-1
 996 766 l 1,21,-1
 672 766 l 1,22,-1
 606 480 l 1,23,24
 672 534 672 534 738 534 c 0,25,26
 836 534 836 534 900 456 c 128,-1,27
 964 378 964 378 964 278 c 0,28,29
 964 222 964 222 925 159 c 128,-1,30
 886 96 886 96 836 74 c 1,31,-1
 1132 74 l 1,32,-1
 1300 844 l 1,33,-1
 1454 844 l 1,0,-1
EndSplineSet
EndChar

StartChar: tm_ca
Encoding: 2970 2970 64
Width: 1280
GlyphClass: 2
Flags: W
LayerCount: 2
Fore
SplineSet
1180 766 m 1,0,-1
 856 766 l 1,1,-1
 792 484 l 1,2,-1
 1098 484 l 1,3,-1
 1098 406 l 1,4,-1
 782 406 l 1,5,-1
 766 328 l 2,6,7
 732 158 732 158 642 80 c 0,8,9
 548 -4 548 -4 378 -4 c 0,10,11
 234 -4 234 -4 138 52 c 0,12,13
 20 120 20 120 20 254 c 0,14,15
 20 354 20 354 87 419 c 128,-1,16
 154 484 154 484 254 484 c 2,17,-1
 304 484 l 1,18,-1
 378 844 l 1,19,-1
 1180 844 l 1,20,-1
 1180 766 l 1,0,-1
700 766 m 1,21,-1
 446 766 l 1,22,-1
 382 484 l 1,23,-1
 640 484 l 1,24,-1
 700 766 l 1,21,-1
628 406 m 1,25,-1
 254 406 l 2,26,27
 186 406 186 406 142 364 c 128,-1,28
 98 322 98 322 98 254 c 0,29,30
 98 156 98 156 192 108 c 0,31,32
 258 74 258 74 378 74 c 0,33,34
 480 74 480 74 538 146 c 1,35,36
 584 214 584 214 610 328 c 2,37,-1
 628 406 l 1,25,-1
EndSplineSet
EndChar

StartChar: tm_ja
Encoding: 2972 2972 65
Width: 1670
GlyphClass: 2
Flags: W
LayerCount: 2
Fore
SplineSet
1508 484 m 0,0,1
 1508 262 1508 262 1376 141 c 128,-1,2
 1244 20 1244 20 1020 20 c 2,3,-1
 356 20 l 2,4,5
 74 20 74 20 74 -262 c 0,6,7
 74 -366 74 -366 124 -444 c 1,8,9
 184 -516 184 -516 254 -516 c 0,10,11
 384 -516 384 -516 492 -402 c 2,12,-1
 690 -194 l 1,13,14
 820 -82 820 -82 996 -82 c 0,15,16
 1128 -82 1128 -82 1220 -142 c 0,17,18
 1328 -212 1328 -212 1328 -336 c 0,19,20
 1328 -448 1328 -448 1230 -522 c 0,21,22
 1124 -598 1124 -598 1020 -594 c 2,23,-1
 974 -592 l 1,24,-1
 900 -584 l 1,25,26
 844 -572 844 -572 816 -542 c 0,27,28
 806 -532 806 -532 806 -510 c 1,29,-1
 814 -476 l 1,30,31
 822 -460 822 -460 834 -460 c 1,32,-1
 844 -464 l 1,33,34
 896 -516 896 -516 976 -516 c 0,35,36
 1054 -516 1054 -516 1116 -466 c 1,37,38
 1176 -402 1176 -402 1176 -336 c 0,39,40
 1176 -252 1176 -252 1130 -204 c 128,-1,41
 1084 -156 1084 -156 996 -156 c 0,42,43
 828 -156 828 -156 722 -270 c 2,44,-1
 524 -482 l 2,45,46
 420 -594 420 -594 254 -594 c 0,47,48
 122 -594 122 -594 20 -494 c 128,-1,49
 -82 -394 -82 -394 -82 -262 c 0,50,51
 -82 -100 -82 -100 44 2 c 0,52,53
 162 98 162 98 328 98 c 2,54,-1
 996 98 l 2,55,56
 1356 98 1356 98 1356 484 c 0,57,58
 1356 594 1356 594 1324 668 c 1,59,60
 1284 738 1284 738 1200 738 c 0,61,62
 1154 738 1154 738 1112 708 c 1,63,-1
 1064 664 l 1,64,65
 1006 596 1006 596 996 536 c 2,66,-1
 946 226 l 1,67,-1
 790 226 l 1,68,-1
 844 536 l 1,69,70
 844 632 844 632 748 702 c 0,71,72
 658 766 658 766 558 766 c 0,73,74
 416 766 416 766 316 698 c 0,75,76
 200 620 200 620 200 484 c 0,77,78
 200 402 200 402 247 353 c 128,-1,79
 294 304 294 304 356 304 c 1,80,81
 304 346 304 346 304 458 c 0,82,83
 304 532 304 532 361 583 c 128,-1,84
 418 634 418 634 492 634 c 0,85,86
 560 634 560 634 612 586 c 128,-1,87
 664 538 664 538 664 458 c 0,88,89
 664 348 664 348 597 287 c 128,-1,90
 530 226 530 226 418 226 c 0,91,92
 298 226 298 226 216 294 c 0,93,94
 126 366 126 366 126 484 c 0,95,96
 126 648 126 648 262 748 c 0,97,98
 388 840 388 840 556 840 c 0,99,100
 682 840 682 840 786 782 c 0,101,102
 902 720 902 720 946 610 c 1,103,104
 994 746 994 746 1094 804 c 0,105,106
 1164 844 1164 844 1254 844 c 0,107,108
 1372 844 1372 844 1446 718 c 0,109,110
 1508 610 1508 610 1508 484 c 0,0,1
558 458 m 0,111,112
 558 496 558 496 534 524 c 128,-1,113
 510 552 510 552 472 552 c 1,114,-1
 438 544 l 1,115,-1
 408 526 l 1,116,117
 378 496 378 496 378 458 c 0,118,119
 378 402 378 402 406 352 c 1,120,121
 446 304 446 304 458 304 c 0,122,123
 504 304 504 304 534 360 c 0,124,125
 558 408 558 408 558 458 c 0,111,112
EndSplineSet
EndChar

StartChar: tm_nya
Encoding: 2974 2974 66
Width: 2046
GlyphClass: 2
Flags: W
LayerCount: 2
Fore
SplineSet
1872 176 m 0,0,1
 1872 -166 1872 -166 1574 -380 c 0,2,3
 1306 -570 1306 -570 950 -570 c 0,4,5
 574 -570 574 -570 314 -360 c 0,6,7
 28 -128 28 -128 28 254 c 0,8,9
 28 420 28 420 78 566 c 0,10,11
 140 742 140 742 258 816 c 0,12,13
 284 832 284 832 312 832 c 0,14,15
 360 832 360 832 360 800 c 1,16,17
 348 778 348 778 332 766 c 0,18,19
 206 694 206 694 148 548 c 0,20,21
 102 432 102 432 102 254 c 0,22,23
 102 -84 102 -84 362 -294 c 0,24,25
 604 -492 604 -492 950 -492 c 0,26,27
 1240 -492 1240 -492 1472 -306 c 0,28,29
 1718 -108 1718 -108 1718 176 c 0,30,31
 1718 414 1718 414 1610 414 c 0,32,33
 1514 414 1514 414 1464 376 c 1,34,-1
 1382 -4 l 1,35,-1
 1230 -4 l 1,36,-1
 1398 766 l 1,37,-1
 950 766 l 2,38,39
 734 766 734 766 596 656 c 0,40,41
 438 530 438 530 438 328 c 1,42,43
 442 288 442 288 448 268 c 1,44,-1
 482 204 l 1,45,46
 530 142 530 142 590 126 c 1,47,48
 552 190 552 190 552 272 c 0,49,50
 552 366 552 366 608 434 c 1,51,52
 682 508 682 508 792 508 c 0,53,54
 868 508 868 508 920 440 c 128,-1,55
 972 372 972 372 972 278 c 0,56,57
 972 176 972 176 895 86 c 128,-1,58
 818 -4 818 -4 718 -4 c 0,59,60
 578 -4 578 -4 469 93 c 128,-1,61
 360 190 360 190 360 328 c 0,62,63
 360 562 360 562 542 708 c 0,64,65
 710 844 710 844 950 844 c 2,66,-1
 1792 844 l 1,67,-1
 1792 766 l 1,68,-1
 1550 766 l 1,69,-1
 1484 458 l 1,70,71
 1522 508 1522 508 1618 508 c 0,72,73
 1738 508 1738 508 1810 398 c 0,74,75
 1872 304 1872 304 1872 176 c 0,0,1
848 278 m 0,76,77
 848 430 848 430 770 430 c 0,78,79
 702 430 702 430 660 377 c 128,-1,80
 618 324 618 324 618 254 c 0,81,82
 618 98 618 98 692 98 c 0,83,84
 760 98 760 98 804 154 c 128,-1,85
 848 210 848 210 848 278 c 0,76,77
EndSplineSet
EndChar

StartChar: tm_tta
Encoding: 2975 2975 67
Width: 1850
GlyphClass: 2
Flags: W
LayerCount: 2
Fore
SplineSet
1684 -4 m 1,0,-1
 16 -4 l 1,1,-1
 196 844 l 1,2,-1
 352 844 l 1,3,-1
 188 74 l 1,4,-1
 1684 74 l 1,5,-1
 1684 -4 l 1,0,-1
EndSplineSet
EndChar

StartChar: tm_nna
Encoding: 2979 2979 68
Width: 2714
GlyphClass: 2
Flags: W
LayerCount: 2
Fore
SplineSet
2570 766 m 1,0,-1
 2348 766 l 1,1,-1
 2184 -4 l 1,2,-1
 2032 -4 l 1,3,-1
 2192 766 l 1,4,-1
 2004 766 l 2,5,6
 1884 766 1884 766 1738 688 c 1,7,8
 1902 554 1902 554 1902 328 c 0,9,10
 1902 192 1902 192 1854 104 c 1,11,12
 1782 -4 1782 -4 1672 -4 c 0,13,14
 1442 -4 1442 -4 1442 328 c 0,15,16
 1442 386 1442 386 1454 420 c 2,17,-1
 1486 512 l 1,18,19
 1530 602 1530 602 1606 672 c 1,20,21
 1482 756 1482 756 1362 756 c 0,22,23
 1302 756 1302 756 1242 738 c 1,24,-1
 1126 688 l 1,25,26
 1286 552 1286 552 1286 328 c 0,27,28
 1286 180 1286 180 1238 104 c 0,29,30
 1170 -4 1170 -4 1054 -4 c 0,31,32
 824 -4 824 -4 824 328 c 0,33,34
 824 372 824 372 836 420 c 1,35,-1
 868 510 l 1,36,37
 940 628 940 628 992 672 c 1,38,39
 872 754 872 754 770 762 c 0,40,41
 752 766 752 766 722 766 c 2,42,-1
 672 766 l 2,43,44
 436 766 436 766 282 662 c 0,45,46
 106 544 106 544 106 328 c 0,47,48
 106 268 106 268 152 204 c 1,49,50
 212 138 212 138 262 126 c 1,51,52
 224 190 224 190 224 272 c 0,53,54
 224 366 224 366 280 434 c 1,55,56
 354 508 354 508 464 508 c 0,57,58
 540 508 540 508 592 440 c 128,-1,59
 644 372 644 372 644 278 c 0,60,61
 644 172 644 172 569 84 c 128,-1,62
 494 -4 494 -4 390 -4 c 0,63,64
 250 -4 250 -4 141 93 c 128,-1,65
 32 190 32 190 32 328 c 0,66,67
 32 572 32 572 237 718 c 128,-1,68
 442 864 442 864 676 846 c 2,69,-1
 786 838 l 1,70,-1
 896 814 l 2,71,72
 994 792 994 792 1074 734 c 1,73,74
 1228 836 1228 836 1372 836 c 1,75,-1
 1448 828 l 1,76,-1
 1530 810 l 1,77,-1
 1614 776 l 1,78,-1
 1688 734 l 1,79,80
 1826 844 1826 844 2004 844 c 2,81,-1
 2570 844 l 1,82,-1
 2570 766 l 1,0,-1
1746 328 m 0,83,84
 1746 412 1746 412 1724 496 c 1,85,86
 1684 586 1684 586 1644 586 c 0,87,88
 1590 586 1590 586 1554 498 c 1,89,90
 1524 442 1524 442 1522 408 c 2,91,-1
 1516 328 l 2,92,93
 1508 220 1508 220 1550 144 c 0,94,95
 1576 98 1576 98 1622 98 c 0,96,97
 1706 98 1706 98 1732 178 c 0,98,99
 1746 222 1746 222 1746 328 c 0,83,84
1132 328 m 0,100,101
 1132 422 1132 422 1110 496 c 0,102,103
 1084 586 1084 586 1032 586 c 0,104,105
 976 586 976 586 940 498 c 1,106,107
 910 442 910 442 908 408 c 2,108,-1
 902 328 l 1,109,-1
 910 216 l 1,110,-1
 934 144 l 1,111,112
 962 98 962 98 1004 98 c 0,113,114
 1090 98 1090 98 1118 176 c 0,115,116
 1132 218 1132 218 1132 328 c 0,100,101
516 278 m 0,117,118
 516 430 516 430 442 430 c 0,119,120
 374 430 374 430 330 376 c 128,-1,121
 286 322 286 322 286 254 c 0,122,123
 286 214 286 214 306 144 c 1,124,125
 334 98 334 98 364 98 c 0,126,127
 426 98 426 98 471 156 c 128,-1,128
 516 214 516 214 516 278 c 0,117,118
EndSplineSet
EndChar

StartChar: tm_ta
Encoding: 2980 2980 69
Width: 1342
GlyphClass: 2
Flags: W
LayerCount: 2
Fore
SplineSet
1208 176 m 0,0,1
 1208 -10 1208 -10 998 -130 c 0,2,3
 818 -234 818 -234 618 -234 c 2,4,-1
 208 -234 l 2,5,6
 102 -234 102 -234 102 -336 c 1,7,8
 148 -360 148 -360 148 -402 c 1,9,10
 140 -436 140 -436 122 -450 c 128,-1,11
 104 -464 104 -464 78 -464 c 0,12,13
 -28 -464 -28 -464 -28 -336 c 0,14,15
 -28 -276 -28 -276 42 -216 c 1,16,17
 126 -156 126 -156 208 -156 c 2,18,-1
 590 -156 l 2,19,20
 748 -156 748 -156 888 -70 c 0,21,22
 1050 28 1050 28 1050 176 c 0,23,24
 1050 316 1050 316 952 382 c 0,25,26
 916 406 916 406 872 406 c 2,27,-1
 786 406 l 1,28,-1
 770 328 l 2,29,30
 736 158 736 158 646 80 c 0,31,32
 552 -4 552 -4 382 -4 c 0,33,34
 236 -4 236 -4 144 52 c 0,35,36
 28 118 28 118 28 254 c 0,37,38
 28 352 28 352 94 418 c 128,-1,39
 160 484 160 484 258 484 c 2,40,-1
 308 484 l 1,41,-1
 382 844 l 1,42,-1
 1184 844 l 1,43,-1
 1184 766 l 1,44,-1
 860 766 l 1,45,-1
 800 484 l 1,46,-1
 898 484 l 2,47,48
 1024 484 1024 484 1110 406 c 0,49,50
 1208 316 1208 316 1208 176 c 0,0,1
708 766 m 1,51,-1
 450 766 l 1,52,-1
 390 484 l 1,53,-1
 644 484 l 1,54,-1
 708 766 l 1,51,-1
632 406 m 1,55,-1
 258 406 l 2,56,57
 190 406 190 406 146 364 c 128,-1,58
 102 322 102 322 102 254 c 0,59,60
 102 156 102 156 196 108 c 0,61,62
 262 74 262 74 382 74 c 0,63,64
 484 74 484 74 544 146 c 0,65,66
 596 210 596 210 618 328 c 2,67,-1
 632 406 l 1,55,-1
EndSplineSet
EndChar

StartChar: tm_na
Encoding: 2984 2984 70
Width: 1126
GlyphClass: 2
Flags: W
LayerCount: 2
Fore
SplineSet
1000 766 m 1,0,-1
 676 766 l 1,1,-1
 610 458 l 1,2,3
 676 512 676 512 738 512 c 0,4,5
 838 512 838 512 917 433 c 128,-1,6
 996 354 996 354 996 254 c 0,7,8
 996 28 996 28 854 -103 c 128,-1,9
 712 -234 712 -234 484 -234 c 2,10,-1
 176 -234 l 2,11,12
 130 -234 130 -234 98 -256 c 1,13,14
 70 -284 70 -284 70 -314 c 1,15,-1
 74 -336 l 1,16,17
 120 -364 120 -364 120 -400 c 0,18,19
 120 -464 120 -464 46 -464 c 0,20,21
 -12 -464 -12 -464 -33 -434 c 128,-1,22
 -54 -404 -54 -404 -54 -336 c 0,23,24
 -54 -260 -54 -260 26 -206 c 0,25,26
 98 -156 98 -156 176 -156 c 2,27,-1
 484 -156 l 2,28,29
 652 -156 652 -156 748 -50 c 128,-1,30
 844 56 844 56 844 226 c 0,31,32
 844 294 844 294 799 351 c 128,-1,33
 754 408 754 408 688 408 c 1,34,35
 620 398 620 398 590 356 c 1,36,-1
 512 -4 l 1,37,-1
 360 -4 l 1,38,-1
 520 766 l 1,39,-1
 266 766 l 1,40,-1
 102 -4 l 1,41,-1
 28 -4 l 1,42,-1
 200 844 l 1,43,-1
 1000 844 l 1,44,-1
 1000 766 l 1,0,-1
EndSplineSet
EndChar

StartChar: tm_nnna
Encoding: 2985 2985 71
Width: 2072
GlyphClass: 2
Flags: W
LayerCount: 2
Fore
SplineSet
1942 766 m 1,0,-1
 1718 766 l 1,1,-1
 1554 -4 l 1,2,-1
 1402 -4 l 1,3,-1
 1562 766 l 1,4,-1
 1376 766 l 2,5,6
 1256 766 1256 766 1110 688 c 1,7,8
 1274 550 1274 550 1274 328 c 0,9,10
 1274 180 1274 180 1226 104 c 0,11,12
 1158 -4 1158 -4 1042 -4 c 0,13,14
 812 -4 812 -4 812 328 c 0,15,16
 812 522 812 522 980 672 c 1,17,-1
 912 716 l 2,18,19
 882 736 882 736 848 742 c 1,20,21
 814 756 814 756 742 762 c 2,22,-1
 696 766 l 1,23,-1
 656 766 l 2,24,25
 544 766 544 766 448 740 c 0,26,27
 340 710 340 710 270 662 c 0,28,29
 94 540 94 540 94 328 c 0,30,31
 94 268 94 268 140 204 c 1,32,33
 198 138 198 138 246 126 c 1,34,35
 230 152 230 152 220 184 c 0,36,37
 206 228 206 228 210 270 c 2,38,-1
 214 316 l 1,39,-1
 224 362 l 1,40,41
 286 508 286 508 454 508 c 0,42,43
 528 508 528 508 580 440 c 128,-1,44
 632 372 632 372 632 278 c 0,45,46
 632 176 632 176 554 86 c 128,-1,47
 476 -4 476 -4 376 -4 c 0,48,49
 232 -4 232 -4 124 91 c 128,-1,50
 16 186 16 186 16 328 c 0,51,52
 16 570 16 570 220 716 c 0,53,54
 432 868 432 868 662 850 c 2,55,-1
 770 842 l 1,56,-1
 876 818 l 2,57,58
 972 796 972 796 1058 734 c 1,59,60
 1196 844 1196 844 1376 844 c 2,61,-1
 1942 844 l 1,62,-1
 1942 766 l 1,0,-1
1122 328 m 0,63,64
 1122 424 1122 424 1098 496 c 1,65,66
 1056 586 1056 586 1016 586 c 0,67,68
 962 586 962 586 926 502 c 0,69,70
 884 406 884 406 890 328 c 2,71,-1
 898 216 l 1,72,-1
 922 144 l 1,73,74
 950 98 950 98 992 98 c 0,75,76
 1076 98 1076 98 1104 176 c 0,77,78
 1122 224 1122 224 1122 328 c 0,63,64
504 278 m 0,79,80
 504 430 504 430 426 430 c 0,81,82
 358 430 358 430 316 377 c 128,-1,83
 274 324 274 324 274 254 c 0,84,85
 274 214 274 214 294 144 c 1,86,87
 322 98 322 98 352 98 c 0,88,89
 424 98 424 98 468 160 c 1,90,91
 504 224 504 224 504 278 c 0,79,80
EndSplineSet
EndChar

StartChar: tm_pa
Encoding: 2986 2986 72
Width: 1454
GlyphClass: 2
Flags: W
LayerCount: 2
Fore
SplineSet
1316 844 m 1,0,-1
 1136 -4 l 1,1,-1
 36 -4 l 1,2,-1
 214 844 l 1,3,-1
 368 844 l 1,4,-1
 208 74 l 1,5,-1
 996 74 l 1,6,-1
 1164 844 l 1,7,-1
 1316 844 l 1,0,-1
EndSplineSet
EndChar

StartChar: tm_ma
Encoding: 2990 2990 73
Width: 1540
GlyphClass: 2
Flags: W
LayerCount: 2
Fore
SplineSet
1382 406 m 2,0,-1
 1378 326 l 1,1,-1
 1368 256 l 2,2,3
 1360 206 1360 206 1326 132 c 0,4,5
 1262 -4 1262 -4 1152 -4 c 2,6,-1
 28 -4 l 1,7,-1
 208 844 l 1,8,-1
 360 844 l 1,9,-1
 196 74 l 1,10,-1
 652 74 l 1,11,-1
 770 610 l 2,12,13
 794 718 794 718 872 784 c 0,14,15
 944 844 944 844 1028 844 c 0,16,17
 1196 844 1196 844 1296 702 c 0,18,19
 1390 568 1390 568 1382 406 c 2,0,-1
1308 406 m 0,20,21
 1308 544 1308 544 1250 644 c 0,22,23
 1178 766 1178 766 1050 766 c 0,24,25
 954 766 954 766 922 610 c 2,26,-1
 812 74 l 1,27,-1
 1128 74 l 2,28,29
 1222 74 1222 74 1270 200 c 0,30,31
 1308 296 1308 296 1308 406 c 0,20,21
EndSplineSet
EndChar

StartChar: tm_ya
Encoding: 2991 2991 74
Width: 1540
GlyphClass: 2
Flags: W
LayerCount: 2
Fore
SplineSet
1406 844 m 1,0,-1
 1226 -4 l 1,1,-1
 376 -4 l 1,2,-1
 376 58 l 1,3,4
 334 22 334 22 296 10 c 1,5,6
 268 -4 268 -4 250 -4 c 2,7,-1
 198 -6 l 2,8,9
 130 -8 130 -8 76 28 c 1,10,11
 28 74 28 74 28 128 c 2,12,-1
 28 146 l 1,13,-1
 32 168 l 1,14,-1
 176 844 l 1,15,-1
 328 844 l 1,16,-1
 184 152 l 1,17,18
 184 112 184 112 212 90 c 0,19,20
 228 74 228 74 254 74 c 0,21,22
 302 74 302 74 350 130 c 0,23,24
 390 178 390 178 402 230 c 2,25,-1
 536 844 l 1,26,-1
 688 844 l 1,27,-1
 528 74 l 1,28,-1
 1086 74 l 1,29,-1
 1254 844 l 1,30,-1
 1406 844 l 1,0,-1
EndSplineSet
EndChar

StartChar: tm_ra
Encoding: 2992 2992 75
Width: 1236
GlyphClass: 2
Flags: W
LayerCount: 2
Fore
SplineSet
1144 766 m 1,0,-1
 820 766 l 1,1,-1
 652 -4 l 1,2,-1
 -40 -312 l 1,3,-1
 -40 -262 l 1,4,-1
 508 20 l 1,5,-1
 668 766 l 1,6,-1
 258 766 l 1,7,-1
 94 -4 l 1,8,-1
 16 -4 l 1,9,-1
 192 844 l 1,10,-1
 1144 844 l 1,11,-1
 1144 766 l 1,0,-1
EndSplineSet
EndChar

StartChar: tm_rra
Encoding: 2993 2993 76
Width: 1258
GlyphClass: 2
Flags: W
LayerCount: 2
Fore
SplineSet
1118 458 m 0,0,1
 1118 186 1118 186 962 -16 c 0,2,3
 792 -234 792 -234 528 -234 c 2,4,-1
 168 -234 l 2,5,6
 62 -234 62 -234 62 -336 c 1,7,8
 114 -360 114 -360 114 -402 c 1,9,10
 106 -436 106 -436 89 -450 c 128,-1,11
 72 -464 72 -464 40 -464 c 0,12,13
 -62 -464 -62 -464 -62 -336 c 0,14,15
 -62 -276 -62 -276 6 -216 c 128,-1,16
 74 -156 74 -156 168 -156 c 2,17,-1
 500 -156 l 2,18,19
 720 -156 720 -156 846 46 c 0,20,21
 960 230 960 230 960 458 c 0,22,23
 960 766 960 766 808 766 c 0,24,25
 728 766 728 766 674 714 c 128,-1,26
 620 662 620 662 602 582 c 2,27,-1
 472 -4 l 1,28,-1
 324 -4 l 1,29,-1
 454 606 l 1,30,31
 454 766 454 766 348 766 c 0,32,33
 254 766 254 766 238 688 c 2,34,-1
 94 -4 l 1,35,-1
 16 -4 l 1,36,-1
 172 688 l 2,37,38
 206 838 206 838 362 838 c 0,39,40
 436 838 436 838 498 797 c 128,-1,41
 560 756 560 756 578 688 c 1,42,43
 608 752 608 752 674 798 c 128,-1,44
 740 844 740 844 808 844 c 0,45,46
 1118 844 1118 844 1118 458 c 0,0,1
EndSplineSet
EndChar

StartChar: tm_la
Encoding: 2994 2994 77
Width: 1670
GlyphClass: 2
Flags: W
LayerCount: 2
Fore
SplineSet
1528 524 m 2,0,1
 1528 310 1528 310 1414 162 c 0,2,3
 1286 -4 1286 -4 1086 -4 c 0,4,5
 822 -4 822 -4 822 254 c 0,6,7
 822 332 822 332 856 458 c 0,8,9
 866 484 866 484 866 526 c 0,10,11
 866 626 866 626 790 696 c 128,-1,12
 714 766 714 766 626 766 c 0,13,14
 412 766 412 766 270 656 c 0,15,16
 110 532 110 532 110 328 c 0,17,18
 110 268 110 268 156 204 c 1,19,20
 216 138 216 138 266 126 c 1,21,22
 228 190 228 190 228 272 c 0,23,24
 228 366 228 366 284 434 c 1,25,26
 358 508 358 508 468 508 c 0,27,28
 544 508 544 508 596 440 c 128,-1,29
 648 372 648 372 648 278 c 0,30,31
 648 172 648 172 573 84 c 128,-1,32
 498 -4 498 -4 394 -4 c 0,33,34
 254 -4 254 -4 145 93 c 128,-1,35
 36 190 36 190 36 328 c 0,36,37
 36 570 36 570 227 714 c 128,-1,38
 418 858 418 858 626 844 c 2,39,-1
 710 838 l 1,40,-1
 784 824 l 2,41,42
 848 812 848 812 906 764 c 0,43,44
 1008 680 1008 680 1008 536 c 1,45,-1
 976 330 l 1,46,-1
 964 276 l 1,47,-1
 962 214 l 2,48,49
 960 150 960 150 997 112 c 128,-1,50
 1034 74 1034 74 1110 74 c 0,51,52
 1266 74 1266 74 1364 206 c 0,53,54
 1452 326 1452 326 1452 488 c 0,55,56
 1452 570 1452 570 1416 654 c 0,57,58
 1378 748 1378 748 1316 790 c 1,59,60
 1292 820 1292 820 1292 836 c 0,61,62
 1304 908 1304 908 1360 908 c 0,63,64
 1382 906 1382 906 1394 894 c 0,65,66
 1464 824 1464 824 1494 728 c 1,67,68
 1518 674 1518 674 1518 648 c 1,69,-1
 1528 586 l 1,70,-1
 1528 524 l 2,0,1
520 278 m 0,71,72
 520 430 520 430 446 430 c 0,73,74
 384 430 384 430 337 373 c 128,-1,75
 290 316 290 316 290 254 c 0,76,77
 290 214 290 214 310 144 c 1,78,79
 338 98 338 98 368 98 c 0,80,81
 430 98 430 98 475 156 c 128,-1,82
 520 214 520 214 520 278 c 0,71,72
EndSplineSet
EndChar

StartChar: tm_lla
Encoding: 2995 2995 78
Width: 1872
GlyphClass: 2
Flags: W
LayerCount: 2
Fore
SplineSet
1754 766 m 1,0,-1
 1508 766 l 1,1,-1
 1344 -4 l 1,2,-1
 1188 -4 l 1,3,-1
 1356 766 l 1,4,-1
 1098 766 l 1,5,-1
 930 -4 l 1,6,-1
 778 -4 l 1,7,-1
 864 392 l 1,8,-1
 864 444 l 2,9,10
 864 564 864 564 806 658 c 0,11,12
 738 766 738 766 626 766 c 0,13,14
 412 766 412 766 270 656 c 0,15,16
 110 532 110 532 110 328 c 0,17,18
 110 268 110 268 156 204 c 1,19,20
 216 138 216 138 266 126 c 1,21,22
 228 190 228 190 228 272 c 0,23,24
 228 366 228 366 284 434 c 1,25,26
 358 508 358 508 468 508 c 0,27,28
 544 508 544 508 596 440 c 128,-1,29
 648 372 648 372 648 278 c 0,30,31
 648 172 648 172 573 84 c 128,-1,32
 498 -4 498 -4 394 -4 c 0,33,34
 254 -4 254 -4 145 93 c 128,-1,35
 36 190 36 190 36 328 c 0,36,37
 36 562 36 562 218 708 c 0,38,39
 386 844 386 844 626 844 c 0,40,41
 766 844 766 844 857 760 c 128,-1,42
 948 676 948 676 968 536 c 1,43,-1
 1036 844 l 1,44,-1
 1754 844 l 1,45,-1
 1754 766 l 1,0,-1
520 278 m 0,46,47
 520 430 520 430 446 430 c 0,48,49
 384 430 384 430 337 373 c 128,-1,50
 290 316 290 316 290 254 c 0,51,52
 290 214 290 214 310 144 c 1,53,54
 338 98 338 98 368 98 c 0,55,56
 430 98 430 98 475 156 c 128,-1,57
 520 214 520 214 520 278 c 0,46,47
EndSplineSet
EndChar

StartChar: tm_llla
Encoding: 2996 2996 79
Width: 1518
GlyphClass: 2
Flags: W
LayerCount: 2
Fore
SplineSet
1376 406 m 0,0,1
 1376 268 1376 268 1326 150 c 0,2,3
 1262 -4 1262 -4 1144 -4 c 2,4,-1
 16 -4 l 1,5,-1
 196 844 l 1,6,-1
 352 844 l 1,7,-1
 188 74 l 1,8,-1
 644 74 l 1,9,-1
 762 610 l 2,10,11
 784 706 784 706 853 775 c 128,-1,12
 922 844 922 844 1016 844 c 0,13,14
 1186 844 1186 844 1286 706 c 0,15,16
 1376 582 1376 582 1376 406 c 0,0,1
1042 -234 m 1,17,-1
 762 -234 l 2,18,19
 606 -234 606 -234 606 -414 c 0,20,21
 606 -522 606 -522 472 -578 c 0,22,23
 370 -622 370 -622 246 -622 c 0,24,25
 156 -622 156 -622 42 -560 c 1,26,27
 -86 -470 -86 -470 -86 -364 c 0,28,29
 -86 -264 -86 -264 -22 -210 c 128,-1,30
 42 -156 42 -156 144 -156 c 0,31,32
 206 -156 206 -156 252 -192 c 1,33,34
 300 -244 300 -244 300 -286 c 0,35,36
 300 -316 300 -316 276 -340 c 128,-1,37
 252 -364 252 -364 222 -364 c 0,38,39
 188 -364 188 -364 164 -331 c 128,-1,40
 140 -298 140 -298 140 -264 c 1,41,-1
 144 -234 l 1,42,-1
 108 -228 l 1,43,44
 56 -228 56 -228 24 -264 c 128,-1,45
 -8 -300 -8 -300 -8 -364 c 0,46,47
 -8 -448 -8 -448 80 -500 c 0,48,49
 154 -542 154 -542 246 -542 c 0,50,51
 380 -542 380 -542 446 -450 c 0,52,53
 454 -438 454 -438 520 -276 c 0,54,55
 560 -184 560 -184 632 -184 c 1,56,57
 612 -172 612 -172 612 -162 c 2,58,-1
 610 -106 l 1,59,-1
 632 -4 l 1,60,-1
 786 -4 l 1,61,-1
 766 -110 l 1,62,-1
 770 -148 l 1,63,-1
 786 -156 l 1,64,-1
 1042 -156 l 1,65,-1
 1042 -234 l 1,17,-1
1300 406 m 0,66,67
 1300 544 1300 544 1240 644 c 0,68,69
 1170 766 1170 766 1042 766 c 0,70,71
 946 766 946 766 914 610 c 2,72,-1
 804 74 l 1,73,-1
 1122 74 l 2,74,75
 1224 74 1224 74 1268 198 c 0,76,77
 1300 282 1300 282 1300 406 c 0,66,67
EndSplineSet
EndChar

StartChar: tm_va
Encoding: 2997 2997 80
Width: 1738
GlyphClass: 2
Flags: W
LayerCount: 2
Fore
SplineSet
1594 844 m 1,0,-1
 1414 -4 l 1,1,-1
 696 -4 l 1,2,3
 774 64 774 64 838 183 c 128,-1,4
 902 302 902 302 902 406 c 0,5,6
 902 546 902 546 834 648 c 0,7,8
 754 766 754 766 622 766 c 0,9,10
 408 766 408 766 266 656 c 0,11,12
 106 532 106 532 106 328 c 0,13,14
 106 268 106 268 152 204 c 1,15,16
 212 138 212 138 262 126 c 1,17,18
 224 190 224 190 224 272 c 0,19,20
 224 366 224 366 280 434 c 1,21,22
 354 508 354 508 464 508 c 0,23,24
 540 508 540 508 592 440 c 128,-1,25
 644 372 644 372 644 278 c 0,26,27
 644 172 644 172 569 84 c 128,-1,28
 494 -4 494 -4 390 -4 c 0,29,30
 250 -4 250 -4 141 93 c 128,-1,31
 32 190 32 190 32 328 c 0,32,33
 32 564 32 564 212 710 c 0,34,35
 380 844 380 844 622 844 c 0,36,37
 848 844 848 844 958 704 c 0,38,39
 1054 582 1054 582 1054 406 c 0,40,41
 1054 332 1054 332 1004 216 c 0,42,43
 958 110 958 110 902 74 c 1,44,-1
 1274 74 l 1,45,-1
 1442 844 l 1,46,-1
 1594 844 l 1,0,-1
516 278 m 0,47,48
 516 430 516 430 442 430 c 0,49,50
 374 430 374 430 330 376 c 128,-1,51
 286 322 286 322 286 254 c 0,52,53
 286 214 286 214 306 144 c 1,54,55
 334 98 334 98 364 98 c 0,56,57
 426 98 426 98 471 156 c 128,-1,58
 516 214 516 214 516 278 c 0,47,48
EndSplineSet
EndChar

StartChar: tm_ssa
Encoding: 2999 2999 81
Width: 2118
GlyphClass: 2
Flags: W
LayerCount: 2
Fore
SplineSet
1946 618 m 1,0,-1
 1816 -4 l 1,1,-1
 1488 -4 l 1,2,-1
 1378 -492 l 1,3,-1
 1226 -492 l 1,4,-1
 1332 -4 l 1,5,-1
 688 -4 l 1,6,7
 728 36 728 36 768 88 c 0,8,9
 816 150 816 150 830 182 c 1,10,11
 894 280 894 280 894 406 c 0,12,13
 894 584 894 584 800 680 c 0,14,15
 716 766 716 766 610 766 c 0,16,17
 400 766 400 766 256 654 c 0,18,19
 98 534 98 534 98 328 c 0,20,21
 98 268 98 268 144 204 c 1,22,23
 204 138 204 138 254 126 c 1,24,25
 214 192 214 192 214 274 c 0,26,27
 214 368 214 368 270 436 c 1,28,29
 346 508 346 508 458 508 c 0,30,31
 532 508 532 508 584 440 c 128,-1,32
 636 372 636 372 636 278 c 0,33,34
 636 174 636 174 560 88 c 0,35,36
 480 -4 480 -4 378 -4 c 0,37,38
 236 -4 236 -4 128 92 c 128,-1,39
 20 188 20 188 20 328 c 0,40,41
 20 562 20 562 202 708 c 0,42,43
 370 844 370 844 610 844 c 0,44,45
 812 844 812 844 929 726 c 128,-1,46
 1046 608 1046 608 1046 406 c 0,47,48
 1046 336 1046 336 998 226 c 0,49,50
 948 110 948 110 894 74 c 1,51,-1
 1352 74 l 1,52,-1
 1406 312 l 1,53,54
 1312 336 1312 336 1262 396 c 0,55,56
 1200 468 1200 468 1200 586 c 0,57,58
 1200 682 1200 682 1254 758 c 0,59,60
 1312 844 1312 844 1406 844 c 256,61,62
 1500 844 1500 844 1562 808 c 0,63,64
 1640 764 1640 764 1640 676 c 2,65,-1
 1640 658 l 1,66,-1
 1636 636 l 1,67,-1
 1578 390 l 1,68,-1
 1688 420 l 1,69,70
 1756 448 1756 448 1782 466 c 0,71,72
 1878 530 1878 530 1946 618 c 1,0,-1
1490 682 m 1,73,74
 1490 766 1490 766 1406 766 c 0,75,76
 1278 766 1278 766 1278 586 c 0,77,78
 1278 488 1278 488 1312 445 c 128,-1,79
 1346 402 1346 402 1422 390 c 1,80,-1
 1484 636 l 1,81,-1
 1490 682 l 1,73,74
1734 348 m 1,82,-1
 1686 328 l 1,83,-1
 1636 310 l 1,84,85
 1606 304 1606 304 1554 304 c 1,86,-1
 1504 74 l 1,87,-1
 1680 74 l 1,88,-1
 1734 348 l 1,82,-1
508 278 m 0,89,90
 508 430 508 430 430 430 c 0,91,92
 362 430 362 430 320 377 c 128,-1,93
 278 324 278 324 278 254 c 0,94,95
 278 214 278 214 298 144 c 1,96,97
 326 98 326 98 356 98 c 0,98,99
 428 98 428 98 472 160 c 1,100,101
 508 224 508 224 508 278 c 0,89,90
EndSplineSet
EndChar

StartChar: tm_sa
Encoding: 3000 3000 82
Width: 2028
GlyphClass: 2
Flags: W
LayerCount: 2
Fore
SplineSet
1858 508 m 0,0,1
 1858 304 1858 304 1754 158 c 0,2,3
 1638 -4 1638 -4 1442 -4 c 0,4,5
 1330 -4 1330 -4 1280 52 c 0,6,7
 1224 114 1224 114 1230 220 c 2,8,-1
 1234 290 l 1,9,-1
 1246 370 l 1,10,-1
 1286 558 l 1,11,12
 1300 596 1300 596 1300 616 c 2,13,-1
 1302 668 l 2,14,15
 1306 766 1306 766 1234 766 c 0,16,17
 1156 766 1156 766 1104 702 c 0,18,19
 1062 650 1062 650 1032 508 c 2,20,-1
 926 -4 l 1,21,-1
 774 -4 l 1,22,-1
 852 356 l 1,23,-1
 858 432 l 2,24,25
 868 550 868 550 799 658 c 128,-1,26
 730 766 730 766 622 766 c 0,27,28
 408 766 408 766 266 656 c 0,29,30
 106 532 106 532 106 328 c 0,31,32
 106 268 106 268 152 204 c 1,33,34
 212 138 212 138 262 126 c 1,35,36
 224 190 224 190 224 272 c 0,37,38
 224 366 224 366 280 434 c 1,39,40
 354 508 354 508 464 508 c 0,41,42
 540 508 540 508 592 440 c 128,-1,43
 644 372 644 372 644 278 c 0,44,45
 644 172 644 172 569 84 c 128,-1,46
 494 -4 494 -4 390 -4 c 0,47,48
 250 -4 250 -4 141 93 c 128,-1,49
 32 190 32 190 32 328 c 0,50,51
 32 564 32 564 212 710 c 0,52,53
 380 844 380 844 622 844 c 0,54,55
 762 844 762 844 853 760 c 128,-1,56
 944 676 944 676 964 536 c 1,57,58
 1000 680 1000 680 1056 750 c 0,59,60
 1132 844 1132 844 1262 844 c 0,61,62
 1442 844 1442 844 1442 586 c 1,63,-1
 1386 346 l 2,64,65
 1362 244 1362 244 1362 196 c 0,66,67
 1362 142 1362 142 1384 110 c 1,68,69
 1420 80 1420 80 1464 74 c 1,70,71
 1612 74 1612 74 1702 210 c 0,72,73
 1780 330 1780 330 1780 486 c 0,74,75
 1780 572 1780 572 1746 654 c 0,76,77
 1708 746 1708 746 1644 790 c 1,78,79
 1622 812 1622 812 1622 836 c 1,80,81
 1636 910 1636 910 1690 908 c 0,82,83
 1716 906 1716 906 1722 894 c 1,84,85
 1788 828 1788 828 1824 720 c 0,86,87
 1858 622 1858 622 1858 508 c 0,0,1
516 278 m 0,88,89
 516 430 516 430 442 430 c 0,90,91
 374 430 374 430 330 376 c 128,-1,92
 286 322 286 322 286 254 c 0,93,94
 286 214 286 214 306 144 c 1,95,96
 334 98 334 98 364 98 c 0,97,98
 426 98 426 98 471 156 c 128,-1,99
 516 214 516 214 516 278 c 0,88,89
EndSplineSet
EndChar

StartChar: tm_ha
Encoding: 3001 3001 83
Width: 2472
GlyphClass: 2
Flags: W
LayerCount: 2
Fore
SplineSet
2274 458 m 0,0,1
 2274 186 2274 186 2118 -16 c 0,2,3
 1948 -234 1948 -234 1684 -234 c 2,4,-1
 196 -234 l 2,5,6
 94 -234 94 -234 94 -336 c 1,7,8
 140 -360 140 -360 140 -402 c 1,9,10
 132 -436 132 -436 114 -450 c 128,-1,11
 96 -464 96 -464 70 -464 c 0,12,13
 -36 -464 -36 -464 -36 -336 c 0,14,15
 -36 -274 -36 -274 31 -215 c 128,-1,16
 98 -156 98 -156 196 -156 c 2,17,-1
 1656 -156 l 2,18,19
 1874 -156 1874 -156 2006 46 c 0,20,21
 2122 224 2122 224 2122 458 c 0,22,23
 2122 624 2122 624 2081 695 c 128,-1,24
 2040 766 2040 766 1964 766 c 256,25,26
 1888 766 1888 766 1834 718 c 1,27,28
 1778 656 1778 656 1762 582 c 2,29,-1
 1632 -4 l 1,30,-1
 1484 -4 l 1,31,-1
 1614 648 l 1,32,33
 1614 766 1614 766 1504 766 c 0,34,35
 1468 766 1468 766 1437 744 c 128,-1,36
 1406 722 1406 722 1398 688 c 2,37,-1
 1254 -4 l 1,38,-1
 684 -4 l 1,39,40
 724 36 724 36 764 88 c 0,41,42
 812 150 812 150 826 182 c 1,43,44
 890 280 890 280 890 406 c 0,45,46
 890 584 890 584 796 680 c 0,47,48
 712 766 712 766 606 766 c 0,49,50
 396 766 396 766 252 654 c 0,51,52
 94 534 94 534 94 328 c 0,53,54
 94 268 94 268 140 204 c 1,55,56
 198 138 198 138 246 126 c 1,57,58
 230 152 230 152 220 184 c 0,59,60
 206 228 206 228 210 270 c 2,61,-1
 214 316 l 1,62,-1
 224 362 l 1,63,64
 286 508 286 508 454 508 c 0,65,66
 528 508 528 508 580 440 c 128,-1,67
 632 372 632 372 632 278 c 0,68,69
 632 176 632 176 554 86 c 128,-1,70
 476 -4 476 -4 376 -4 c 0,71,72
 232 -4 232 -4 124 91 c 128,-1,73
 16 186 16 186 16 328 c 0,74,75
 16 562 16 562 198 708 c 0,76,77
 366 844 366 844 606 844 c 0,78,79
 808 844 808 844 925 726 c 128,-1,80
 1042 608 1042 608 1042 406 c 0,81,82
 1042 336 1042 336 994 226 c 0,83,84
 944 110 944 110 890 74 c 1,85,-1
 1192 74 l 1,86,-1
 1328 688 l 2,87,88
 1344 758 1344 758 1400 798 c 128,-1,89
 1456 838 1456 838 1528 838 c 0,90,91
 1696 838 1696 838 1734 688 c 1,92,93
 1764 752 1764 752 1830 798 c 128,-1,94
 1896 844 1896 844 1964 844 c 0,95,96
 2274 844 2274 844 2274 458 c 0,0,1
504 278 m 0,97,98
 504 430 504 430 426 430 c 0,99,100
 358 430 358 430 316 377 c 128,-1,101
 274 324 274 324 274 254 c 0,102,103
 274 214 274 214 294 144 c 1,104,105
 322 98 322 98 352 98 c 0,106,107
 424 98 424 98 468 160 c 1,108,109
 504 224 504 224 504 278 c 0,97,98
EndSplineSet
EndChar

StartChar: tm_aakaar
Encoding: 3006 3006 84
Width: 1236
GlyphClass: 2
Flags: W
LayerCount: 2
Fore
SplineSet
1144 766 m 1,0,-1
 820 766 l 1,1,-1
 652 -4 l 1,2,-1
 504 -4 l 1,3,-1
 668 766 l 1,4,-1
 258 766 l 1,5,-1
 94 -4 l 1,6,-1
 16 -4 l 1,7,-1
 192 844 l 1,8,-1
 1144 844 l 1,9,-1
 1144 766 l 1,0,-1
EndSplineSet
EndChar

StartChar: tm_ikaar
Encoding: 3007 3007 85
Width: 394
GlyphClass: 2
Flags: W
LayerCount: 2
Fore
SplineSet
294 984 m 2,0,-1
 290 914 l 1,1,-1
 278 844 l 1,2,-1
 98 -4 l 1,3,-1
 20 -4 l 1,4,-1
 210 940 l 1,5,6
 212 992 212 992 190 1062 c 0,7,8
 172 1122 172 1122 130 1166 c 0,9,10
 48 1254 48 1254 -82 1254 c 0,11,12
 -174 1254 -174 1254 -243 1176 c 128,-1,13
 -312 1098 -312 1098 -312 1004 c 0,14,15
 -312 956 -312 956 -283 909 c 128,-1,16
 -254 862 -254 862 -210 844 c 1,17,-1
 -286 844 l 1,18,19
 -382 956 -382 956 -382 1076 c 0,20,21
 -382 1204 -382 1204 -296 1291 c 128,-1,22
 -210 1378 -210 1378 -82 1378 c 0,23,24
 94 1378 94 1378 194 1270 c 0,25,26
 304 1152 304 1152 294 984 c 2,0,-1
EndSplineSet
EndChar

StartChar: tm_iikaar
Encoding: 3008 3008 86
Width: 1146
GlyphClass: 4
Flags: W
LayerCount: 2
Fore
SplineSet
20 1200 m 0,0,1
 20 1108 20 1108 -30 1050 c 128,-1,2
 -80 992 -80 992 -152 992 c 0,3,4
 -336 992 -336 992 -336 1176 c 0,5,6
 -336 1214 -336 1214 -317 1265 c 128,-1,7
 -298 1316 -298 1316 -286 1328 c 1,8,9
 -382 1328 -382 1328 -449 1261 c 128,-1,10
 -516 1194 -516 1194 -516 1098 c 0,11,12
 -516 1032 -516 1032 -472 954 c 0,13,14
 -434 888 -434 888 -364 844 c 1,15,-1
 -442 844 l 1,16,17
 -504 884 -504 884 -549 956 c 128,-1,18
 -594 1028 -594 1028 -594 1098 c 0,19,20
 -594 1220 -594 1220 -501 1313 c 128,-1,21
 -408 1406 -408 1406 -286 1406 c 0,22,23
 -218 1406 -218 1406 -162 1392 c 128,-1,24
 -106 1378 -106 1378 -66 1348 c 0,25,26
 20 1282 20 1282 20 1200 c 0,0,1
-100 1190 m 0,27,28
 -100 1304 -100 1304 -184 1304 c 0,29,30
 -262 1304 -262 1304 -262 1190 c 0,31,32
 -262 1152 -262 1152 -242 1116 c 0,33,34
 -218 1074 -218 1074 -184 1074 c 0,35,36
 -100 1074 -100 1074 -100 1190 c 0,27,28
EndSplineSet
EndChar

StartChar: tm_ukaar
Encoding: 3009 3009 87
Width: 971
GlyphClass: 4
Flags: W
LayerCount: 2
Fore
SplineSet
808 844 m 1,0,-1
 780 688 l 2,1,2
 724 378 724 378 472 378 c 0,3,4
 372 378 372 378 334 430 c 0,5,6
 288 490 288 490 294 574 c 2,7,-1
 300 666 l 1,8,-1
 322 766 l 1,9,-1
 -372 766 l 1,10,-1
 -350 844 l 1,11,-1
 808 844 l 1,0,-1
628 766 m 1,12,-1
 392 766 l 1,13,-1
 376 702 l 1,14,-1
 368 662 l 1,15,-1
 366 600 l 2,16,17
 362 458 362 458 498 458 c 0,18,19
 570 458 570 458 604 584 c 0,20,21
 628 670 628 670 628 766 c 1,12,-1
EndSplineSet
EndChar

StartChar: tm_uukaar
Encoding: 3010 3010 88
Width: 1533
GlyphClass: 4
Flags: W
LayerCount: 2
Fore
SplineSet
1418 664 m 0,0,1
 1418 396 1418 396 1244 200 c 0,2,3
 1064 -4 1064 -4 800 -4 c 256,4,5
 536 -4 536 -4 384 174 c 0,6,7
 238 342 238 342 238 610 c 1,8,-1
 312 610 l 1,9,10
 312 372 312 372 436 228 c 0,11,12
 566 74 566 74 800 74 c 0,13,14
 1018 74 1018 74 1146 252 c 0,15,16
 1260 410 1260 410 1260 636 c 0,17,18
 1260 826 1260 826 1186 936 c 0,19,20
 1104 1054 1104 1054 980 1046 c 2,21,-1
 920 1042 l 1,22,-1
 864 1032 l 2,23,24
 822 1024 822 1024 768 996 c 1,25,26
 678 936 678 936 624 844 c 1,27,-1
 1008 844 l 1,28,-1
 980 688 l 2,29,30
 924 378 924 378 672 378 c 0,31,32
 572 378 572 378 534 430 c 0,33,34
 488 490 488 490 494 574 c 2,35,-1
 500 666 l 1,36,-1
 522 766 l 1,37,-1
 -352 766 l 1,38,-1
 -330 844 l 1,39,-1
 546 844 l 1,40,41
 664 1126 664 1126 980 1126 c 0,42,43
 1166 1126 1166 1126 1292 989 c 128,-1,44
 1418 852 1418 852 1418 664 c 0,0,1
828 766 m 1,45,-1
 592 766 l 1,46,-1
 576 702 l 1,47,-1
 568 662 l 1,48,-1
 566 600 l 2,49,50
 562 458 562 458 698 458 c 0,51,52
 770 458 770 458 804 584 c 0,53,54
 828 670 828 670 828 766 c 1,45,-1
EndSplineSet
EndChar

StartChar: tm_ekaar
Encoding: 3014 3014 89
Width: 1560
GlyphClass: 2
Flags: W
LayerCount: 2
Fore
SplineSet
1420 854 m 2,0,-1
 1414 772 l 1,1,-1
 1406 714 l 1,2,-1
 1254 -4 l 1,3,-1
 1176 -4 l 1,4,-1
 1338 810 l 1,5,6
 1346 1000 1346 1000 1168 1136 c 0,7,8
 1012 1254 1012 1254 790 1254 c 0,9,10
 504 1254 504 1254 308 1090 c 0,11,12
 98 916 98 916 98 636 c 0,13,14
 98 430 98 430 240 264 c 0,15,16
 384 92 384 92 586 74 c 1,17,18
 548 118 548 118 540 182 c 0,19,20
 536 210 536 210 536 304 c 0,21,22
 536 436 536 436 608 526 c 0,23,24
 696 636 696 636 816 636 c 0,25,26
 922 636 922 636 984 561 c 128,-1,27
 1046 486 1046 486 1046 378 c 0,28,29
 1046 192 1046 192 904 88 c 0,30,31
 778 -4 778 -4 586 -4 c 0,32,33
 344 -4 344 -4 178 198 c 0,34,35
 20 390 20 390 20 636 c 0,36,37
 20 948 20 948 248 1163 c 128,-1,38
 476 1378 476 1378 790 1378 c 0,39,40
 1082 1378 1082 1378 1252 1230 c 0,41,42
 1436 1066 1436 1066 1420 854 c 2,0,-1
894 378 m 1,43,-1
 886 432 l 1,44,-1
 862 488 l 1,45,46
 826 536 826 536 790 536 c 0,47,48
 694 536 694 536 652 456 c 0,49,50
 624 402 624 402 610 304 c 1,51,-1
 610 256 l 2,52,53
 610 98 610 98 664 98 c 0,54,55
 762 98 762 98 832 190 c 0,56,57
 894 276 894 276 894 378 c 1,43,-1
EndSplineSet
EndChar

StartChar: tm_eekaar
Encoding: 3015 3015 90
Width: 1304
GlyphClass: 2
Flags: W
LayerCount: 2
Fore
SplineSet
1200 1046 m 0,0,1
 1200 946 1200 946 1134 868 c 128,-1,2
 1068 790 1068 790 968 790 c 0,3,4
 872 790 872 790 820 847 c 128,-1,5
 768 904 768 904 768 1002 c 0,6,7
 768 1048 768 1048 794 1140 c 1,8,9
 830 1216 830 1216 868 1254 c 1,10,11
 810 1304 810 1304 714 1304 c 0,12,13
 454 1304 454 1304 276 1126 c 128,-1,14
 98 948 98 948 98 688 c 0,15,16
 98 386 98 386 266 222 c 128,-1,17
 434 58 434 58 642 66 c 2,18,-1
 692 68 l 1,19,-1
 738 74 l 1,20,21
 634 178 634 178 634 332 c 0,22,23
 634 458 634 458 714 547 c 128,-1,24
 794 636 794 636 918 636 c 0,25,26
 1020 636 1020 636 1084 559 c 128,-1,27
 1148 482 1148 482 1148 378 c 0,28,29
 1148 172 1148 172 972 74 c 0,30,31
 834 -4 834 -4 610 -4 c 0,32,33
 380 -4 380 -4 208 180 c 0,34,35
 20 380 20 380 20 688 c 0,36,37
 20 986 20 986 232 1184 c 0,38,39
 438 1378 438 1378 738 1378 c 0,40,41
 912 1378 912 1378 1048 1298 c 0,42,43
 1200 1210 1200 1210 1200 1046 c 0,0,1
1046 1020 m 0,44,45
 1046 1062 1046 1062 1026 1136 c 1,46,47
 1000 1200 1000 1200 946 1200 c 0,48,49
 890 1200 890 1200 864 1134 c 0,50,51
 844 1084 844 1084 844 1020 c 0,52,53
 844 868 844 868 918 868 c 0,54,55
 976 868 976 868 1011 914 c 128,-1,56
 1046 960 1046 960 1046 1020 c 0,44,45
996 378 m 0,57,58
 996 536 996 536 868 536 c 0,59,60
 758 536 758 536 714 356 c 1,61,-1
 710 314 l 1,62,63
 710 242 710 242 734 170 c 1,64,65
 770 98 770 98 790 98 c 0,66,67
 870 98 870 98 936 200 c 0,68,69
 996 292 996 292 996 378 c 0,57,58
EndSplineSet
EndChar

StartChar: tm_aikaar
Encoding: 3016 3016 91
Width: 1892
GlyphClass: 2
Flags: W
LayerCount: 2
Fore
SplineSet
1734 458 m 0,0,1
 1734 328 1734 328 1656 182 c 0,2,3
 1570 16 1570 16 1454 -4 c 1,4,5
 1402 -4 1402 -4 1402 20 c 1,6,7
 1492 98 1492 98 1542 214 c 0,8,9
 1582 306 1582 306 1582 430 c 0,10,11
 1582 550 1582 550 1528 648 c 0,12,13
 1462 766 1462 766 1352 766 c 0,14,15
 1280 766 1280 766 1228 742 c 2,16,-1
 1110 688 l 1,17,18
 1274 550 1274 550 1274 328 c 0,19,20
 1274 180 1274 180 1226 104 c 0,21,22
 1158 -4 1158 -4 1042 -4 c 0,23,24
 812 -4 812 -4 812 328 c 0,25,26
 812 522 812 522 980 672 c 1,27,-1
 912 716 l 2,28,29
 882 736 882 736 848 742 c 1,30,31
 814 756 814 756 742 762 c 2,32,-1
 696 766 l 1,33,-1
 656 766 l 2,34,35
 544 766 544 766 448 740 c 0,36,37
 340 710 340 710 270 662 c 0,38,39
 94 540 94 540 94 328 c 0,40,41
 94 268 94 268 140 204 c 1,42,43
 198 138 198 138 246 126 c 1,44,45
 230 152 230 152 220 184 c 0,46,47
 206 228 206 228 210 270 c 2,48,-1
 214 316 l 1,49,-1
 224 362 l 1,50,51
 286 508 286 508 454 508 c 0,52,53
 528 508 528 508 580 440 c 128,-1,54
 632 372 632 372 632 278 c 0,55,56
 632 176 632 176 554 86 c 128,-1,57
 476 -4 476 -4 376 -4 c 0,58,59
 232 -4 232 -4 124 91 c 128,-1,60
 16 186 16 186 16 328 c 0,61,62
 16 570 16 570 220 716 c 0,63,64
 432 868 432 868 662 850 c 2,65,-1
 770 842 l 1,66,-1
 876 818 l 2,67,68
 972 796 972 796 1058 734 c 1,69,70
 1132 788 1132 788 1188 810 c 1,71,72
 1256 844 1256 844 1352 844 c 0,73,74
 1508 844 1508 844 1621 729 c 128,-1,75
 1734 614 1734 614 1734 458 c 0,0,1
1122 328 m 0,76,77
 1122 424 1122 424 1098 496 c 1,78,79
 1056 586 1056 586 1016 586 c 0,80,81
 962 586 962 586 926 502 c 0,82,83
 884 406 884 406 890 328 c 2,84,-1
 898 216 l 1,85,-1
 922 144 l 1,86,87
 950 98 950 98 992 98 c 0,88,89
 1076 98 1076 98 1104 176 c 0,90,91
 1122 224 1122 224 1122 328 c 0,76,77
504 278 m 0,92,93
 504 430 504 430 426 430 c 0,94,95
 358 430 358 430 316 377 c 128,-1,96
 274 324 274 324 274 254 c 0,97,98
 274 214 274 214 294 144 c 1,99,100
 322 98 322 98 352 98 c 0,101,102
 424 98 424 98 468 160 c 1,103,104
 504 224 504 224 504 278 c 0,92,93
EndSplineSet
EndChar

StartChar: tm_okaar
Encoding: 3018 3018 92
Width: 2736
GlyphClass: 2
Flags: W
LayerCount: 2
Fore
SplineSet
2684 766 m 1,0,-1
 2360 766 l 1,1,-1
 2192 -4 l 1,2,-1
 2044 -4 l 1,3,-1
 2208 766 l 1,4,-1
 1798 766 l 1,5,-1
 1634 -4 l 1,6,-1
 1556 -4 l 1,7,-1
 1732 844 l 1,8,-1
 2684 844 l 1,9,-1
 2684 766 l 1,0,-1
1420 854 m 2,10,-1
 1414 772 l 1,11,-1
 1406 714 l 1,12,-1
 1254 -4 l 1,13,-1
 1176 -4 l 1,14,-1
 1338 810 l 1,15,16
 1346 1000 1346 1000 1168 1136 c 0,17,18
 1012 1254 1012 1254 790 1254 c 0,19,20
 504 1254 504 1254 308 1090 c 0,21,22
 98 916 98 916 98 636 c 0,23,24
 98 430 98 430 240 264 c 0,25,26
 384 92 384 92 586 74 c 1,27,28
 548 118 548 118 540 182 c 0,29,30
 536 210 536 210 536 304 c 0,31,32
 536 436 536 436 608 526 c 0,33,34
 696 636 696 636 816 636 c 0,35,36
 922 636 922 636 984 561 c 128,-1,37
 1046 486 1046 486 1046 378 c 0,38,39
 1046 192 1046 192 904 88 c 0,40,41
 778 -4 778 -4 586 -4 c 0,42,43
 344 -4 344 -4 178 198 c 0,44,45
 20 390 20 390 20 636 c 0,46,47
 20 948 20 948 248 1163 c 128,-1,48
 476 1378 476 1378 790 1378 c 0,49,50
 1082 1378 1082 1378 1252 1230 c 0,51,52
 1436 1066 1436 1066 1420 854 c 2,10,-1
894 378 m 1,53,-1
 886 432 l 1,54,-1
 862 488 l 1,55,56
 826 536 826 536 790 536 c 0,57,58
 694 536 694 536 652 456 c 0,59,60
 624 402 624 402 610 304 c 1,61,-1
 610 256 l 2,62,63
 610 98 610 98 664 98 c 0,64,65
 762 98 762 98 832 190 c 0,66,67
 894 276 894 276 894 378 c 1,53,-1
EndSplineSet
EndChar

StartChar: tm_ookaar
Encoding: 3019 3019 93
Width: 2514
GlyphClass: 2
Flags: W
LayerCount: 2
Fore
SplineSet
2444 766 m 1,0,-1
 2120 766 l 1,1,-1
 1952 -4 l 1,2,-1
 1804 -4 l 1,3,-1
 1968 766 l 1,4,-1
 1558 766 l 1,5,-1
 1394 -4 l 1,6,-1
 1316 -4 l 1,7,-1
 1492 844 l 1,8,-1
 2444 844 l 1,9,-1
 2444 766 l 1,0,-1
1200 1046 m 0,10,11
 1200 946 1200 946 1134 868 c 128,-1,12
 1068 790 1068 790 968 790 c 0,13,14
 872 790 872 790 820 847 c 128,-1,15
 768 904 768 904 768 1002 c 0,16,17
 768 1048 768 1048 794 1140 c 1,18,19
 830 1216 830 1216 868 1254 c 1,20,21
 810 1304 810 1304 714 1304 c 0,22,23
 454 1304 454 1304 276 1126 c 128,-1,24
 98 948 98 948 98 688 c 0,25,26
 98 386 98 386 266 222 c 128,-1,27
 434 58 434 58 642 66 c 2,28,-1
 692 68 l 1,29,-1
 738 74 l 1,30,31
 634 178 634 178 634 332 c 0,32,33
 634 458 634 458 714 547 c 128,-1,34
 794 636 794 636 918 636 c 0,35,36
 1020 636 1020 636 1084 559 c 128,-1,37
 1148 482 1148 482 1148 378 c 0,38,39
 1148 172 1148 172 972 74 c 0,40,41
 834 -4 834 -4 610 -4 c 0,42,43
 380 -4 380 -4 208 180 c 0,44,45
 20 380 20 380 20 688 c 0,46,47
 20 986 20 986 232 1184 c 0,48,49
 438 1378 438 1378 738 1378 c 0,50,51
 912 1378 912 1378 1048 1298 c 0,52,53
 1200 1210 1200 1210 1200 1046 c 0,10,11
1046 1020 m 0,54,55
 1046 1062 1046 1062 1026 1136 c 1,56,57
 1000 1200 1000 1200 946 1200 c 0,58,59
 890 1200 890 1200 864 1134 c 0,60,61
 844 1084 844 1084 844 1020 c 0,62,63
 844 868 844 868 918 868 c 0,64,65
 976 868 976 868 1011 914 c 128,-1,66
 1046 960 1046 960 1046 1020 c 0,54,55
996 378 m 0,67,68
 996 536 996 536 868 536 c 0,69,70
 758 536 758 536 714 356 c 1,71,-1
 710 314 l 1,72,73
 710 242 710 242 734 170 c 1,74,75
 770 98 770 98 790 98 c 0,76,77
 870 98 870 98 936 200 c 0,78,79
 996 292 996 292 996 378 c 0,67,68
EndSplineSet
EndChar

StartChar: tm_aukaar
Encoding: 3020 3020 94
Width: 3370
GlyphClass: 2
Flags: W
LayerCount: 2
Fore
SplineSet
3274 766 m 1,0,-1
 3028 766 l 1,1,-1
 2864 -4 l 1,2,-1
 2708 -4 l 1,3,-1
 2876 766 l 1,4,-1
 2618 766 l 1,5,-1
 2450 -4 l 1,6,-1
 2298 -4 l 1,7,-1
 2384 392 l 1,8,-1
 2384 444 l 2,9,10
 2384 564 2384 564 2326 658 c 0,11,12
 2258 766 2258 766 2146 766 c 0,13,14
 1932 766 1932 766 1790 656 c 0,15,16
 1630 532 1630 532 1630 328 c 0,17,18
 1630 268 1630 268 1676 204 c 1,19,20
 1736 138 1736 138 1786 126 c 1,21,22
 1748 190 1748 190 1748 272 c 0,23,24
 1748 366 1748 366 1804 434 c 1,25,26
 1878 508 1878 508 1988 508 c 0,27,28
 2064 508 2064 508 2116 440 c 128,-1,29
 2168 372 2168 372 2168 278 c 0,30,31
 2168 172 2168 172 2093 84 c 128,-1,32
 2018 -4 2018 -4 1914 -4 c 0,33,34
 1774 -4 1774 -4 1665 93 c 128,-1,35
 1556 190 1556 190 1556 328 c 0,36,37
 1556 562 1556 562 1738 708 c 0,38,39
 1906 844 1906 844 2146 844 c 0,40,41
 2286 844 2286 844 2377 760 c 128,-1,42
 2468 676 2468 676 2488 536 c 1,43,-1
 2556 844 l 1,44,-1
 3274 844 l 1,45,-1
 3274 766 l 1,0,-1
1420 854 m 2,46,-1
 1414 772 l 1,47,-1
 1406 714 l 1,48,-1
 1254 -4 l 1,49,-1
 1176 -4 l 1,50,-1
 1338 810 l 1,51,52
 1346 1000 1346 1000 1168 1136 c 0,53,54
 1012 1254 1012 1254 790 1254 c 0,55,56
 504 1254 504 1254 308 1090 c 0,57,58
 98 916 98 916 98 636 c 0,59,60
 98 430 98 430 240 264 c 0,61,62
 384 92 384 92 586 74 c 1,63,64
 548 118 548 118 540 182 c 0,65,66
 536 210 536 210 536 304 c 0,67,68
 536 436 536 436 608 526 c 0,69,70
 696 636 696 636 816 636 c 0,71,72
 922 636 922 636 984 561 c 128,-1,73
 1046 486 1046 486 1046 378 c 0,74,75
 1046 192 1046 192 904 88 c 0,76,77
 778 -4 778 -4 586 -4 c 0,78,79
 344 -4 344 -4 178 198 c 0,80,81
 20 390 20 390 20 636 c 0,82,83
 20 948 20 948 248 1163 c 128,-1,84
 476 1378 476 1378 790 1378 c 0,85,86
 1082 1378 1082 1378 1252 1230 c 0,87,88
 1436 1066 1436 1066 1420 854 c 2,46,-1
2040 278 m 0,89,90
 2040 430 2040 430 1966 430 c 0,91,92
 1904 430 1904 430 1857 373 c 128,-1,93
 1810 316 1810 316 1810 254 c 0,94,95
 1810 214 1810 214 1830 144 c 1,96,97
 1858 98 1858 98 1888 98 c 0,98,99
 1950 98 1950 98 1995 156 c 128,-1,100
 2040 214 2040 214 2040 278 c 0,89,90
894 378 m 1,101,-1
 886 432 l 1,102,-1
 862 488 l 1,103,104
 826 536 826 536 790 536 c 0,105,106
 694 536 694 536 652 456 c 0,107,108
 624 402 624 402 610 304 c 1,109,-1
 610 256 l 2,110,111
 610 98 610 98 664 98 c 0,112,113
 762 98 762 98 832 190 c 0,114,115
 894 276 894 276 894 378 c 1,101,-1
EndSplineSet
EndChar

StartChar: tm_halant
Encoding: 3021 3021 95
Width: 20
GlyphClass: 4
Flags: W
LayerCount: 2
Fore
SplineSet
-434 1490 m 1,0,-1
 -590 1490 l 1,1,-1
 -590 1686 l 1,2,-1
 -434 1686 l 1,3,-1
 -434 1490 l 1,0,-1
EndSplineSet
EndChar

StartChar: tm_au_lengthmk
Encoding: 3031 3031 96
Width: 1829
GlyphClass: 2
Flags: W
LayerCount: 2
Fore
SplineSet
1754 766 m 1,0,-1
 1508 766 l 1,1,-1
 1344 -4 l 1,2,-1
 1188 -4 l 1,3,-1
 1356 766 l 1,4,-1
 1098 766 l 1,5,-1
 930 -4 l 1,6,-1
 778 -4 l 1,7,-1
 864 392 l 1,8,-1
 864 444 l 2,9,10
 864 564 864 564 806 658 c 0,11,12
 738 766 738 766 626 766 c 0,13,14
 412 766 412 766 270 656 c 0,15,16
 110 532 110 532 110 328 c 0,17,18
 110 268 110 268 156 204 c 1,19,20
 216 138 216 138 266 126 c 1,21,22
 228 190 228 190 228 272 c 0,23,24
 228 366 228 366 284 434 c 1,25,26
 358 508 358 508 468 508 c 0,27,28
 544 508 544 508 596 440 c 128,-1,29
 648 372 648 372 648 278 c 0,30,31
 648 172 648 172 573 84 c 128,-1,32
 498 -4 498 -4 394 -4 c 0,33,34
 254 -4 254 -4 145 93 c 128,-1,35
 36 190 36 190 36 328 c 0,36,37
 36 562 36 562 218 708 c 0,38,39
 386 844 386 844 626 844 c 0,40,41
 766 844 766 844 857 760 c 128,-1,42
 948 676 948 676 968 536 c 1,43,-1
 1036 844 l 1,44,-1
 1754 844 l 1,45,-1
 1754 766 l 1,0,-1
520 278 m 0,46,47
 520 430 520 430 446 430 c 0,48,49
 384 430 384 430 337 373 c 128,-1,50
 290 316 290 316 290 254 c 0,51,52
 290 214 290 214 310 144 c 1,53,54
 338 98 338 98 368 98 c 0,55,56
 430 98 430 98 475 156 c 128,-1,57
 520 214 520 214 520 278 c 0,46,47
EndSplineSet
EndChar

StartChar: tm_one
Encoding: 3047 3047 97
Width: 1376
GlyphClass: 2
Flags: W
LayerCount: 2
Fore
SplineSet
1266 286 m 0,0,1
 1268 174 1268 174 1175 94 c 128,-1,2
 1082 14 1082 14 968 12 c 0,3,4
 920 12 920 12 832 42 c 1,5,-1
 832 164 l 1,6,-1
 890 140 l 1,7,-1
 960 132 l 1,8,9
 1040 132 1040 132 1097 171 c 128,-1,10
 1154 210 1154 210 1156 286 c 0,11,12
 1158 370 1158 370 1104 419 c 128,-1,13
 1050 468 1050 468 964 468 c 2,14,-1
 792 468 l 1,15,-1
 792 286 l 2,16,17
 792 146 792 146 686 68 c 0,18,19
 592 -2 592 -2 446 -4 c 0,20,21
 282 -6 282 -6 162 94 c 0,22,23
 34 200 34 200 32 360 c 0,24,25
 32 438 32 438 78 504 c 0,26,27
 130 578 130 578 204 578 c 2,28,-1
 250 578 l 1,29,-1
 250 964 l 1,30,-1
 1110 964 l 1,31,-1
 1110 856 l 1,32,-1
 792 856 l 1,33,-1
 792 578 l 1,34,-1
 1012 578 l 2,35,36
 1120 578 1120 578 1192 487 c 128,-1,37
 1264 396 1264 396 1266 286 c 0,0,1
684 578 m 1,38,-1
 684 856 l 1,39,-1
 360 856 l 1,40,-1
 360 578 l 1,41,-1
 684 578 l 1,38,-1
684 336 m 2,42,-1
 684 468 l 1,43,-1
 250 468 l 2,44,45
 222 468 222 468 180 424 c 1,46,47
 152 384 152 384 152 336 c 0,48,49
 150 244 150 244 254 172 c 0,50,51
 350 106 350 106 446 106 c 0,52,53
 684 106 684 106 684 336 c 2,42,-1
EndSplineSet
EndChar

StartChar: tm_two
Encoding: 3048 3048 98
Width: 1672
GlyphClass: 2
Flags: W
LayerCount: 2
Fore
SplineSet
1574 -4 m 1,0,-1
 254 -4 l 2,1,2
 26 -4 26 -4 24 164 c 0,3,4
 24 244 24 244 88 292 c 0,5,6
 146 336 146 336 230 336 c 2,7,-1
 484 336 l 2,8,9
 584 336 584 336 674 412 c 0,10,11
 698 432 698 432 736 484 c 0,12,13
 738 490 738 490 752 516 c 0,14,15
 754 524 754 524 762 566 c 1,16,17
 762 702 762 702 678 778 c 128,-1,18
 594 854 594 854 456 856 c 0,19,20
 370 858 370 858 276 810 c 0,21,22
 158 750 158 750 152 656 c 0,23,24
 148 594 148 594 210 494 c 1,25,26
 284 452 284 452 284 406 c 0,27,28
 284 380 284 380 250 378 c 0,29,30
 164 374 164 374 102 430 c 0,31,32
 72 458 72 458 48 520 c 128,-1,33
 24 582 24 582 24 626 c 0,34,35
 22 800 22 800 170 890 c 0,36,37
 218 920 218 920 304 944 c 1,38,39
 418 964 418 964 460 964 c 0,40,41
 628 966 628 966 749 856 c 128,-1,42
 870 746 870 746 872 578 c 0,43,44
 874 434 874 434 736 326 c 0,45,46
 608 226 608 226 460 226 c 2,47,-1
 230 226 l 2,48,49
 122 226 122 226 122 164 c 0,50,51
 122 106 122 106 230 106 c 2,52,-1
 1574 106 l 1,53,-1
 1574 -4 l 1,0,-1
EndSplineSet
EndChar

StartChar: tm_three
Encoding: 3049 3049 99
Width: 1488
GlyphClass: 2
Flags: W
LayerCount: 2
Fore
SplineSet
1380 -4 m 1,0,-1
 464 -4 l 1,1,-1
 464 106 l 1,2,-1
 730 106 l 1,3,4
 898 152 898 152 898 360 c 0,5,6
 898 426 898 426 838 472 c 0,7,8
 786 512 786 512 716 514 c 0,9,10
 644 516 644 516 574 446 c 1,11,-1
 574 262 l 1,12,-1
 464 262 l 1,13,-1
 464 856 l 1,14,-1
 136 856 l 1,15,-1
 136 -4 l 1,16,-1
 28 -4 l 1,17,-1
 28 964 l 1,18,-1
 864 964 l 1,19,-1
 864 856 l 1,20,-1
 574 856 l 1,21,-1
 574 590 l 1,22,23
 640 644 640 644 730 646 c 0,24,25
 844 648 844 648 937 567 c 128,-1,26
 1030 486 1030 486 1032 372 c 0,27,28
 1034 194 1034 194 922 106 c 1,29,-1
 1380 104 l 1,30,-1
 1380 -4 l 1,0,-1
EndSplineSet
EndChar

StartChar: tm_four
Encoding: 3050 3050 100
Width: 1466
GlyphClass: 2
Flags: W
LayerCount: 2
Fore
SplineSet
1414 468 m 1,0,-1
 792 468 l 1,1,-1
 792 286 l 2,2,3
 792 146 792 146 686 68 c 0,4,5
 592 -2 592 -2 446 -4 c 0,6,7
 282 -6 282 -6 162 94 c 0,8,9
 34 200 34 200 32 360 c 0,10,11
 32 444 32 444 74 508 c 0,12,13
 124 578 124 578 204 578 c 2,14,-1
 250 578 l 1,15,-1
 250 964 l 1,16,-1
 1110 964 l 1,17,-1
 1110 856 l 1,18,-1
 792 856 l 1,19,-1
 792 578 l 1,20,-1
 1304 576 l 1,21,-1
 1304 958 l 1,22,-1
 1414 958 l 1,23,-1
 1414 468 l 1,0,-1
684 578 m 1,24,-1
 684 856 l 1,25,-1
 360 856 l 1,26,-1
 360 578 l 1,27,-1
 684 578 l 1,24,-1
684 336 m 2,28,-1
 684 468 l 1,29,-1
 250 468 l 2,30,31
 208 468 208 468 178 426 c 1,32,-1
 162 390 l 1,33,34
 162 366 162 366 152 336 c 1,35,36
 152 246 152 246 256 172 c 0,37,38
 350 106 350 106 446 106 c 0,39,40
 684 106 684 106 684 336 c 2,28,-1
EndSplineSet
EndChar

StartChar: tm_five
Encoding: 3051 3051 101
Width: 1762
GlyphClass: 2
Flags: W
LayerCount: 2
Fore
SplineSet
1640 94 m 0,0,1
 1642 -184 1642 -184 1392 -372 c 0,2,3
 1164 -544 1164 -544 878 -546 c 0,4,5
 540 -548 540 -548 296 -330 c 0,6,7
 42 -102 42 -102 32 226 c 2,8,-1
 30 290 l 2,9,10
 24 462 24 462 76 620 c 0,11,12
 144 830 144 830 262 926 c 0,13,14
 274 938 274 938 292 938 c 0,15,16
 340 938 340 938 342 888 c 1,17,-1
 336 868 l 1,18,19
 126 638 126 638 138 294 c 2,20,-1
 140 238 l 2,21,22
 152 -82 152 -82 370 -262 c 0,23,24
 566 -424 566 -424 868 -426 c 0,25,26
 1110 -428 1110 -428 1308 -292 c 0,27,28
 1530 -140 1530 -140 1532 94 c 0,29,30
 1534 214 1534 214 1472 320 c 0,31,32
 1402 444 1402 444 1290 446 c 0,33,34
 1152 448 1152 448 1074 296 c 1,35,-1
 1074 -4 l 1,36,-1
 964 -4 l 1,37,-1
 964 856 l 1,38,-1
 684 856 l 1,39,-1
 684 -4 l 1,40,-1
 578 -4 l 1,41,-1
 578 964 l 1,42,-1
 1352 964 l 1,43,-1
 1352 856 l 1,44,-1
 1074 856 l 1,45,-1
 1074 430 l 1,46,47
 1086 470 1086 470 1170 518 c 0,48,49
 1206 538 1206 538 1234 542 c 2,50,-1
 1300 550 l 1,51,52
 1446 550 1446 550 1554 412 c 1,53,54
 1638 278 1638 278 1640 94 c 0,0,1
EndSplineSet
EndChar

StartChar: tm_six
Encoding: 3052 3052 102
Width: 1992
GlyphClass: 2
Flags: W
LayerCount: 2
Fore
SplineSet
1862 476 m 1,0,-1
 1666 476 l 1,1,-1
 1666 -4 l 1,2,-1
 1556 -4 l 1,3,-1
 1556 476 l 1,4,-1
 1278 476 l 1,5,-1
 1278 -4 l 1,6,-1
 1170 -4 l 1,7,-1
 1170 90 l 2,8,9
 1170 218 1170 218 1156 286 c 1,10,11
 1158 370 1158 370 1104 419 c 128,-1,12
 1050 468 1050 468 964 468 c 2,13,-1
 792 468 l 1,14,-1
 792 286 l 2,15,16
 792 146 792 146 686 68 c 0,17,18
 592 -2 592 -2 446 -4 c 0,19,20
 282 -6 282 -6 162 94 c 0,21,22
 34 200 34 200 32 360 c 0,23,24
 32 438 32 438 78 504 c 0,25,26
 130 578 130 578 204 578 c 2,27,-1
 250 578 l 1,28,-1
 250 964 l 1,29,-1
 1110 964 l 1,30,-1
 1110 856 l 1,31,-1
 792 856 l 1,32,-1
 792 578 l 1,33,-1
 1012 578 l 2,34,35
 1094 578 1094 578 1170 508 c 1,36,-1
 1170 584 l 1,37,-1
 1862 584 l 1,38,-1
 1862 476 l 1,0,-1
684 578 m 1,39,-1
 684 856 l 1,40,-1
 360 856 l 1,41,-1
 360 578 l 1,42,-1
 684 578 l 1,39,-1
684 336 m 2,43,-1
 684 468 l 1,44,-1
 250 468 l 2,45,46
 222 468 222 468 180 424 c 1,47,48
 152 384 152 384 152 336 c 0,49,50
 150 244 150 244 254 172 c 0,51,52
 350 106 350 106 446 106 c 0,53,54
 684 106 684 106 684 336 c 2,43,-1
EndSplineSet
EndChar

StartChar: tm_seven
Encoding: 3053 3053 103
Width: 1488
GlyphClass: 2
Flags: W
LayerCount: 2
Fore
SplineSet
1430 832 m 1,0,-1
 1070 832 l 1,1,-1
 1070 -4 l 1,2,-1
 950 -4 l 1,3,-1
 950 832 l 1,4,-1
 536 832 l 2,5,6
 394 832 394 832 268 724 c 0,7,8
 254 712 254 712 180 604 c 1,9,-1
 156 538 l 1,10,-1
 148 468 l 1,11,12
 238 594 238 594 426 598 c 0,13,14
 560 600 560 600 644 521 c 128,-1,15
 728 442 728 442 730 308 c 0,16,17
 732 170 732 170 630 76 c 0,18,19
 544 -2 544 -2 442 -4 c 0,20,21
 254 -6 254 -6 138 134 c 0,22,23
 30 266 30 266 28 458 c 0,24,25
 26 666 26 666 176 810 c 128,-1,26
 326 954 326 954 536 954 c 2,27,-1
 1430 954 l 1,28,-1
 1430 832 l 1,0,-1
622 286 m 0,29,30
 622 348 622 348 562 413 c 128,-1,31
 502 478 502 478 442 480 c 0,32,33
 364 482 364 482 300 423 c 128,-1,34
 236 364 236 364 234 286 c 0,35,36
 232 220 232 220 290 156 c 1,37,38
 344 114 344 114 422 112 c 0,39,40
 504 110 504 110 563 158 c 128,-1,41
 622 206 622 206 622 286 c 0,29,30
EndSplineSet
EndChar

StartChar: tm_eight
Encoding: 3054 3054 104
Width: 2036
GlyphClass: 2
Flags: W
LayerCount: 2
Fore
SplineSet
1922 -320 m 1,0,-1
 1816 -320 l 1,1,-1
 1816 140 l 1,2,-1
 1494 140 l 1,3,4
 1384 -52 1384 -52 1170 -158 c 0,5,6
 974 -256 974 -256 738 -258 c 0,7,8
 522 -260 522 -260 296 -156 c 0,9,10
 26 -32 26 -32 24 164 c 0,11,12
 22 262 22 262 180 262 c 2,13,-1
 1420 262 l 1,14,15
 1452 360 1452 360 1454 468 c 0,16,17
 1458 614 1458 614 1353 737 c 128,-1,18
 1248 860 1248 860 1104 862 c 0,19,20
 1080 862 1080 862 1004 844 c 1,21,22
 978 844 978 844 920 790 c 0,23,24
 868 744 868 744 848 712 c 1,25,26
 842 684 842 684 830 626 c 1,27,28
 830 574 830 574 862 540 c 0,29,30
 942 452 942 452 978 436 c 0,31,32
 988 432 988 432 1026 406 c 0,33,34
 1058 382 1058 382 1070 382 c 0,35,36
 1076 382 1076 382 1082 388 c 1,37,38
 1080 360 1080 360 1094 334 c 0,39,40
 1098 328 1098 328 1116 304 c 1,41,42
 1114 300 1114 300 1110 298 c 0,43,44
 1094 284 1094 284 1074 284 c 0,45,46
 1052 284 1052 284 1018 300 c 2,47,-1
 950 332 l 2,48,49
 886 358 886 358 770 478 c 1,50,51
 716 552 716 552 714 648 c 0,52,53
 712 798 712 798 856 888 c 0,54,55
 974 962 974 962 1114 964 c 0,56,57
 1318 968 1318 968 1446 810 c 0,58,59
 1564 668 1564 668 1574 458 c 1,60,-1
 1568 356 l 2,61,62
 1566 336 1566 336 1560 312 c 2,63,-1
 1546 262 l 1,64,-1
 1816 262 l 1,65,-1
 1816 942 l 1,66,-1
 1922 942 l 1,67,-1
 1922 -320 l 1,0,-1
1360 140 m 1,68,-1
 144 140 l 1,69,70
 186 8 186 8 378 -76 c 0,71,72
 542 -148 542 -148 726 -148 c 0,73,74
 916 -148 916 -148 1080 -80 c 0,75,76
 1266 -4 1266 -4 1360 140 c 1,68,-1
EndSplineSet
EndChar

StartChar: tm_nine
Encoding: 3055 3055 105
Width: 1928
GlyphClass: 2
Flags: W
LayerCount: 2
Fore
SplineSet
1816 -4 m 1,0,-1
 1528 -4 l 1,1,-1
 1528 102 l 1,2,3
 1662 158 1662 158 1664 386 c 0,4,5
 1664 492 1664 492 1560 566 c 0,6,7
 1468 632 1468 632 1356 634 c 0,8,9
 1236 636 1236 636 1168 558 c 1,10,11
 1272 558 1272 558 1358 462 c 1,12,13
 1418 378 1418 378 1420 256 c 0,14,15
 1422 140 1422 140 1360 65 c 128,-1,16
 1298 -10 1298 -10 1184 -12 c 0,17,18
 1034 -14 1034 -14 960 86 c 1,19,-1
 938 126 l 2,20,21
 930 146 930 146 914 184 c 1,22,23
 900 240 900 240 898 316 c 0,24,25
 896 396 896 396 932 468 c 1,26,-1
 786 468 l 1,27,-1
 786 286 l 2,28,29
 786 146 786 146 676 68 c 0,30,31
 580 -2 580 -2 434 -4 c 0,32,33
 272 -6 272 -6 152 94 c 0,34,35
 24 200 24 200 24 360 c 0,36,37
 24 444 24 444 68 506 c 0,38,39
 118 578 118 578 196 578 c 2,40,-1
 242 578 l 1,41,-1
 242 964 l 1,42,-1
 1102 964 l 1,43,-1
 1102 856 l 1,44,-1
 786 856 l 1,45,-1
 786 578 l 1,46,-1
 998 578 l 1,47,48
 1138 748 1138 748 1378 750 c 0,49,50
 1540 752 1540 752 1663 621 c 128,-1,51
 1786 490 1786 490 1786 326 c 0,52,53
 1786 226 1786 226 1714 106 c 1,54,-1
 1804 106 l 1,55,-1
 1816 -4 l 1,0,-1
1296 282 m 1,56,57
 1278 470 1278 470 1098 472 c 0,58,59
 1078 472 1078 472 1040 422 c 1,60,61
 1016 374 1016 374 1016 304 c 0,62,63
 1016 108 1016 108 1176 106 c 0,64,65
 1296 104 1296 104 1296 282 c 1,56,57
676 578 m 1,66,-1
 676 856 l 1,67,-1
 352 856 l 1,68,-1
 352 578 l 1,69,-1
 676 578 l 1,66,-1
676 336 m 2,70,-1
 676 468 l 1,71,-1
 242 468 l 2,72,73
 200 468 200 468 170 426 c 1,74,-1
 154 390 l 1,75,76
 154 366 154 366 144 336 c 1,77,78
 144 246 144 246 246 174 c 0,79,80
 340 106 340 106 434 106 c 0,81,82
 676 106 676 106 676 336 c 2,70,-1
EndSplineSet
EndChar

StartChar: tm_ten
Encoding: 3056 3056 106
Width: 1638
GlyphClass: 2
Flags: W
LayerCount: 2
Fore
SplineSet
1526 522 m 0,0,1
 1526 362 1526 362 1470 226 c 0,2,3
 1408 72 1408 72 1286 -4 c 0,4,5
 1090 -126 1090 -126 850 -124 c 256,6,7
 610 -122 610 -122 534 0 c 0,8,9
 512 36 512 36 478 132 c 1,10,11
 434 72 434 72 353 31 c 128,-1,12
 272 -10 272 -10 198 -10 c 0,13,14
 28 -12 28 -12 28 140 c 2,15,-1
 28 964 l 1,16,-1
 136 964 l 1,17,-1
 136 204 l 2,18,19
 136 106 136 106 222 104 c 0,20,21
 304 102 304 102 372 174 c 0,22,23
 432 238 432 238 454 324 c 1,24,-1
 454 964 l 1,25,-1
 570 966 l 1,26,27
 566 850 566 850 570 598 c 0,28,29
 568 528 568 528 576 350 c 1,30,31
 592 186 592 186 622 110 c 0,32,33
 662 14 662 14 758 0 c 0,34,35
 828 -10 828 -10 892 -10 c 0,36,37
 1224 -10 1224 -10 1342 242 c 0,38,39
 1404 376 1404 376 1404 530 c 0,40,41
 1404 878 1404 878 1096 1078 c 0,42,43
 954 1170 954 1170 648 1186 c 1,44,-1
 644 1294 l 1,45,46
 1000 1260 1000 1260 1164 1162 c 0,47,48
 1286 1088 1286 1088 1350 1012 c 0,49,50
 1526 810 1526 810 1526 522 c 0,0,1
EndSplineSet
EndChar

StartChar: tm_hundred
Encoding: 3057 3057 107
Width: 1476
GlyphClass: 2
Flags: W
LayerCount: 2
Fore
SplineSet
1392 856 m 1,0,-1
 1116 856 l 1,1,-1
 1116 8 l 1,2,-1
 1006 12 l 1,3,-1
 1006 856 l 1,4,-1
 728 856 l 1,5,-1
 728 -4 l 1,6,-1
 620 -4 l 1,7,-1
 620 816 l 1,8,9
 530 838 530 838 444 838 c 0,10,11
 264 838 264 838 204 720 c 0,12,13
 164 640 164 640 164 436 c 256,14,15
 164 232 164 232 208 -4 c 1,16,-1
 100 -4 l 1,17,18
 58 242 58 242 56 446 c 0,19,20
 54 788 54 788 170 872 c 0,21,22
 256 934 256 934 456 934 c 0,23,24
 540 934 540 934 620 924 c 1,25,-1
 620 964 l 1,26,-1
 1392 964 l 1,27,-1
 1392 856 l 1,0,-1
EndSplineSet
EndChar

StartChar: tm_thousand
Encoding: 3058 3058 108
Width: 1682
GlyphClass: 2
Flags: W
LayerCount: 2
Fore
SplineSet
1606 48 m 0,0,1
 1606 -68 1606 -68 1542 -136 c 0,2,3
 1450 -232 1450 -232 1302 -288 c 0,4,5
 1166 -340 1166 -340 1024 -340 c 0,6,7
 952 -340 952 -340 807 -323 c 128,-1,8
 662 -306 662 -306 590 -306 c 0,9,10
 466 -306 466 -306 430 -368 c 1,11,12
 400 -450 400 -450 398 -452 c 0,13,14
 372 -504 372 -504 336 -508 c 0,15,16
 262 -516 262 -516 220 -434 c 0,17,18
 192 -380 192 -380 192 -362 c 0,19,20
 192 -324 192 -324 264 -240 c 0,21,22
 302 -196 302 -196 472 -196 c 0,23,24
 568 -196 568 -196 762 -210 c 128,-1,25
 956 -224 956 -224 1052 -224 c 0,26,27
 1212 -224 1212 -224 1272 -190 c 2,28,-1
 1434 -98 l 1,29,30
 1496 -52 1496 -52 1496 36 c 0,31,32
 1496 118 1496 118 1426 166 c 0,33,34
 1364 208 1364 208 1278 210 c 0,35,36
 1220 212 1220 212 1148 166 c 1,37,-1
 1148 -4 l 1,38,-1
 1028 -4 l 1,39,-1
 1028 468 l 1,40,-1
 796 468 l 1,41,-1
 796 286 l 2,42,43
 796 146 796 146 690 68 c 0,44,45
 596 -2 596 -2 450 -4 c 0,46,47
 286 -6 286 -6 166 94 c 0,48,49
 38 200 38 200 36 360 c 0,50,51
 36 444 36 444 78 508 c 0,52,53
 128 578 128 578 208 578 c 2,54,-1
 254 578 l 1,55,-1
 254 964 l 1,56,-1
 1114 964 l 1,57,-1
 1114 856 l 1,58,-1
 796 856 l 1,59,-1
 796 578 l 1,60,-1
 1258 578 l 1,61,-1
 1258 468 l 1,62,-1
 1148 468 l 1,63,-1
 1148 288 l 1,64,65
 1226 324 1226 324 1296 324 c 0,66,67
 1420 324 1420 324 1510 250 c 0,68,69
 1606 170 1606 170 1606 48 c 0,0,1
692 578 m 1,70,-1
 692 856 l 1,71,-1
 364 856 l 1,72,-1
 364 578 l 1,73,-1
 692 578 l 1,70,-1
692 336 m 2,74,-1
 692 468 l 1,75,-1
 254 468 l 2,76,77
 212 468 212 468 182 426 c 1,78,-1
 166 390 l 1,79,80
 166 366 166 366 156 336 c 1,81,82
 156 246 156 246 260 172 c 0,83,84
 354 106 354 106 450 106 c 0,85,86
 692 106 692 106 692 336 c 2,74,-1
EndSplineSet
EndChar

StartChar: zerowidthnonjoiner
Encoding: 8204 8204 109
Width: 0
GlyphClass: 2
Flags: W
LayerCount: 2
Fore
SplineSet
315 1225 m 1,0,-1
 -34 -516 l 1,1,-1
 -103 -516 l 1,2,-1
 244 1225 l 1,3,-1
 315 1225 l 1,0,-1
EndSplineSet
EndChar

StartChar: zerowidthjoiner
Encoding: 8205 8205 110
Width: 0
GlyphClass: 2
Flags: W
LayerCount: 2
Fore
SplineSet
415 997 m 1,0,-1
 363 953 l 1,1,-1
 270 1073 l 1,2,-1
 -24 -441 l 1,3,-1
 -87 -441 l 1,4,-1
 206 1073 l 1,5,-1
 65 953 l 1,6,-1
 32 997 l 1,7,-1
 210 1145 l 1,8,-1
 89 1292 l 1,9,-1
 140 1334 l 1,10,-1
 260 1185 l 1,11,-1
 437 1334 l 1,12,-1
 472 1292 l 1,13,-1
 294 1145 l 1,14,-1
 415 997 l 1,0,-1
EndSplineSet
EndChar

StartChar: u2013
Encoding: 8211 8211 111
Width: 722
GlyphClass: 2
Flags: W
LayerCount: 2
Fore
SplineSet
733 319 m 1,0,-1
 -12 319 l 1,1,-1
 -12 370 l 1,2,-1
 733 370 l 1,3,-1
 733 319 l 1,0,-1
EndSplineSet
EndChar

StartChar: u2014
Encoding: 8212 8212 112
Width: 1284
GlyphClass: 2
Flags: W
LayerCount: 2
Fore
SplineSet
1296 318 m 1,0,-1
 -13 319 l 1,1,-1
 -13 371 l 1,2,-1
 1296 370 l 1,3,-1
 1296 318 l 1,0,-1
EndSplineSet
EndChar

StartChar: u2018
Encoding: 65539 -1 113
Width: 370
GlyphClass: 2
Flags: W
LayerCount: 2
Fore
SplineSet
290 1266 m 1,0,-1
 286 1234 l 1,1,2
 190 1166 190 1166 166 1136 c 0,3,4
 106 1062 106 1062 106 1000 c 1,5,-1
 110 968 l 1,6,-1
 144 966 l 1,7,-1
 198 956 l 1,8,9
 230 938 230 938 230 910 c 2,10,-1
 226 882 l 1,11,12
 202 786 202 786 122 786 c 0,13,14
 4 786 4 786 4 926 c 1,15,-1
 8 968 l 1,16,17
 38 1062 38 1062 119 1150 c 128,-1,18
 200 1238 200 1238 290 1266 c 1,0,-1
EndSplineSet
EndChar

StartChar: u2019
Encoding: 65540 -1 114
Width: 392
GlyphClass: 2
Flags: W
LayerCount: 2
Fore
SplineSet
308 1114 m 1,0,-1
 304 1074 l 1,1,2
 272 970 272 970 198 890 c 0,3,4
 118 802 118 802 20 778 c 1,5,-1
 28 808 l 1,6,7
 106 868 106 868 142 904 c 1,8,9
 208 986 208 986 208 1034 c 1,10,-1
 206 1054 l 1,11,-1
 200 1074 l 1,12,-1
 108 1082 l 1,13,14
 82 1096 82 1096 82 1126 c 2,15,-1
 86 1156 l 1,16,17
 126 1258 126 1258 192 1258 c 0,18,19
 308 1258 308 1258 308 1114 c 1,0,-1
EndSplineSet
EndChar

StartChar: u201C
Encoding: 65541 -1 115
Width: 680
GlyphClass: 2
Flags: W
LayerCount: 2
Fore
SplineSet
610 1266 m 1,0,-1
 606 1234 l 1,1,2
 510 1166 510 1166 486 1136 c 0,3,4
 426 1062 426 1062 426 1000 c 1,5,-1
 430 968 l 1,6,-1
 464 966 l 1,7,-1
 518 956 l 1,8,9
 550 938 550 938 550 910 c 2,10,-1
 546 882 l 1,11,12
 522 786 522 786 442 786 c 0,13,14
 324 786 324 786 324 926 c 1,15,-1
 328 968 l 1,16,17
 358 1062 358 1062 439 1150 c 128,-1,18
 520 1238 520 1238 610 1266 c 1,0,-1
290 1266 m 1,19,-1
 286 1234 l 1,20,21
 190 1166 190 1166 166 1136 c 0,22,23
 106 1062 106 1062 106 1000 c 1,24,-1
 110 968 l 1,25,-1
 144 966 l 1,26,-1
 198 956 l 1,27,28
 230 938 230 938 230 910 c 2,29,-1
 226 882 l 1,30,31
 202 786 202 786 122 786 c 0,32,33
 4 786 4 786 4 926 c 1,34,-1
 8 968 l 1,35,36
 38 1062 38 1062 119 1150 c 128,-1,37
 200 1238 200 1238 290 1266 c 1,19,-1
EndSplineSet
EndChar

StartChar: u201D
Encoding: 65542 -1 116
Width: 696
GlyphClass: 2
Flags: W
LayerCount: 2
Fore
SplineSet
628 1114 m 1,0,-1
 624 1074 l 1,1,2
 592 970 592 970 518 890 c 0,3,4
 438 802 438 802 340 778 c 1,5,-1
 348 808 l 1,6,7
 426 868 426 868 462 904 c 1,8,9
 528 986 528 986 528 1034 c 1,10,-1
 526 1054 l 1,11,-1
 520 1074 l 1,12,-1
 428 1082 l 1,13,14
 402 1096 402 1096 402 1126 c 2,15,-1
 406 1156 l 1,16,17
 446 1258 446 1258 512 1258 c 0,18,19
 628 1258 628 1258 628 1114 c 1,0,-1
308 1114 m 1,20,-1
 304 1074 l 1,21,22
 272 970 272 970 198 890 c 0,23,24
 118 802 118 802 20 778 c 1,25,-1
 28 808 l 1,26,27
 106 868 106 868 142 904 c 1,28,29
 208 986 208 986 208 1034 c 1,30,-1
 206 1054 l 1,31,-1
 200 1074 l 1,32,-1
 108 1082 l 1,33,34
 82 1096 82 1096 82 1126 c 2,35,-1
 86 1156 l 1,36,37
 126 1258 126 1258 192 1258 c 0,38,39
 308 1258 308 1258 308 1114 c 1,20,-1
EndSplineSet
EndChar

StartChar: u2026
Encoding: 8230 8230 117
Width: 1283
GlyphClass: 2
Flags: W
LayerCount: 2
Fore
SplineSet
265 136 m 0,0,1
 298 136 298 136 320.5 114 c 128,-1,2
 343 92 343 92 343 58 c 0,3,4
 343 26 343 26 320.5 3 c 128,-1,5
 298 -20 298 -20 265 -20 c 0,6,7
 233 -20 233 -20 210 3 c 128,-1,8
 187 26 187 26 187 58 c 0,9,10
 187 92 187 92 210 114 c 128,-1,11
 233 136 233 136 265 136 c 0,0,1
638 136 m 256,12,13
 670 136 670 136 693 114 c 128,-1,14
 716 92 716 92 716 58 c 0,15,16
 716 26 716 26 692.5 3 c 128,-1,17
 669 -20 669 -20 638 -20 c 0,18,19
 606 -20 606 -20 583 3 c 128,-1,20
 560 26 560 26 560 58 c 0,21,22
 560 92 560 92 583 114 c 128,-1,23
 606 136 606 136 638 136 c 256,12,13
1010 136 m 0,24,25
 1043 136 1043 136 1066 114 c 128,-1,26
 1089 92 1089 92 1089 58 c 0,27,28
 1089 26 1089 26 1065.5 3 c 128,-1,29
 1042 -20 1042 -20 1010 -20 c 256,30,31
 978 -20 978 -20 955.5 3 c 128,-1,32
 933 26 933 26 933 58 c 0,33,34
 933 92 933 92 955.5 114 c 128,-1,35
 978 136 978 136 1010 136 c 0,24,25
EndSplineSet
EndChar

StartChar: u2212
Encoding: 8722 8722 118
Width: 974
GlyphClass: 2
Flags: W
LayerCount: 2
Fore
SplineSet
133 450 m 1,0,-1
 133 508 l 1,1,-1
 894 508 l 1,2,-1
 894 450 l 1,3,-1
 133 450 l 1,0,-1
EndSplineSet
EndChar

StartChar: u25CC
Encoding: 9676 9676 119
Width: 1167
GlyphClass: 2
Flags: W
LayerCount: 2
Fore
SplineSet
654 665 m 0,0,1
 626 665 626 665 612 679 c 128,-1,2
 598 693 598 693 598 724 c 0,3,4
 598 746 598 746 615 762.5 c 128,-1,5
 632 779 632 779 654 779 c 0,6,7
 683 779 683 779 697.5 765 c 128,-1,8
 712 751 712 751 712 724 c 0,9,10
 712 693 712 693 697.5 679 c 128,-1,11
 683 665 683 665 654 665 c 0,0,1
840 616 m 0,12,13
 811 616 811 616 796.5 630.5 c 128,-1,14
 782 645 782 645 782 674 c 0,15,16
 782 701 782 701 796.5 715 c 128,-1,17
 811 729 811 729 840 729 c 0,18,19
 862 729 862 729 879 713 c 128,-1,20
 896 697 896 697 896 674 c 0,21,22
 896 645 896 645 882 630.5 c 128,-1,23
 868 616 868 616 840 616 c 0,12,13
470 616 m 0,24,25
 442 616 442 616 428 630.5 c 128,-1,26
 414 645 414 645 414 674 c 0,27,28
 414 697 414 697 431 713 c 128,-1,29
 448 729 448 729 470 729 c 0,30,31
 494 729 494 729 510 713 c 128,-1,32
 526 697 526 697 526 674 c 0,33,34
 526 645 526 645 512.5 630.5 c 128,-1,35
 499 616 499 616 470 616 c 0,24,25
973 482 m 0,36,37
 951 482 951 482 933.5 498 c 128,-1,38
 916 514 916 514 916 538 c 0,39,40
 916 567 916 567 930.5 581 c 128,-1,41
 945 595 945 595 973 595 c 256,42,43
 1001 595 1001 595 1014.5 581 c 128,-1,44
 1028 567 1028 567 1028 538 c 0,45,46
 1028 514 1028 514 1012 498 c 128,-1,47
 996 482 996 482 973 482 c 0,36,37
336 482 m 0,48,49
 307 482 307 482 293 495.5 c 128,-1,50
 279 509 279 509 279 538 c 256,51,52
 279 567 279 567 293 581 c 128,-1,53
 307 595 307 595 336 595 c 0,54,55
 364 595 364 595 378 581 c 128,-1,56
 392 567 392 567 392 538 c 0,57,58
 392 514 392 514 375 498 c 128,-1,59
 358 482 358 482 336 482 c 0,48,49
1024 298 m 0,60,61
 994 298 994 298 979.5 311.5 c 128,-1,62
 965 325 965 325 965 354 c 0,63,64
 965 382 965 382 979.5 396 c 128,-1,65
 994 410 994 410 1024 410 c 0,66,67
 1046 410 1046 410 1063 393 c 128,-1,68
 1080 376 1080 376 1080 354 c 0,69,70
 1080 331 1080 331 1063 314.5 c 128,-1,71
 1046 298 1046 298 1024 298 c 0,60,61
287 298 m 0,72,73
 257 298 257 298 243 311.5 c 128,-1,74
 229 325 229 325 229 354 c 0,75,76
 229 382 229 382 243 396 c 128,-1,77
 257 410 257 410 287 410 c 0,78,79
 310 410 310 410 326.5 393 c 128,-1,80
 343 376 343 376 343 354 c 0,81,82
 343 331 343 331 326.5 314.5 c 128,-1,83
 310 298 310 298 287 298 c 0,72,73
973 112 m 256,84,85
 945 112 945 112 930.5 126.5 c 128,-1,86
 916 141 916 141 916 169 c 0,87,88
 916 193 916 193 933.5 209.5 c 128,-1,89
 951 226 951 226 973 226 c 0,90,91
 996 226 996 226 1012 209.5 c 128,-1,92
 1028 193 1028 193 1028 169 c 0,93,94
 1028 141 1028 141 1014.5 126.5 c 128,-1,95
 1001 112 1001 112 973 112 c 256,84,85
336 112 m 0,96,97
 307 112 307 112 293 126.5 c 128,-1,98
 279 141 279 141 279 169 c 0,99,100
 279 198 279 198 293 212 c 128,-1,101
 307 226 307 226 336 226 c 0,102,103
 358 226 358 226 375 209.5 c 128,-1,104
 392 193 392 193 392 169 c 0,105,106
 392 141 392 141 378 126.5 c 128,-1,107
 364 112 364 112 336 112 c 0,96,97
840 -22 m 0,108,109
 811 -22 811 -22 796.5 -8 c 128,-1,110
 782 6 782 6 782 34 c 0,111,112
 782 63 782 63 796.5 78 c 128,-1,113
 811 93 811 93 840 93 c 0,114,115
 863 93 863 93 879.5 75 c 128,-1,116
 896 57 896 57 896 34 c 256,117,118
 896 11 896 11 879 -5.5 c 128,-1,119
 862 -22 862 -22 840 -22 c 0,108,109
470 -22 m 0,120,121
 448 -22 448 -22 431 -5.5 c 128,-1,122
 414 11 414 11 414 34 c 256,123,124
 414 57 414 57 430.5 75 c 128,-1,125
 447 93 447 93 470 93 c 0,126,127
 495 93 495 93 510.5 75 c 128,-1,128
 526 57 526 57 526 34 c 256,129,130
 526 11 526 11 510 -5.5 c 128,-1,131
 494 -22 494 -22 470 -22 c 0,120,121
654 -72 m 0,132,133
 632 -72 632 -72 615 -55 c 128,-1,134
 598 -38 598 -38 598 -16 c 0,135,136
 598 14 598 14 612 28.5 c 128,-1,137
 626 43 626 43 654 43 c 0,138,139
 683 43 683 43 697.5 28.5 c 128,-1,140
 712 14 712 14 712 -16 c 0,141,142
 712 -44 712 -44 697.5 -58 c 128,-1,143
 683 -72 683 -72 654 -72 c 0,132,133
EndSplineSet
EndChar

StartChar: tm_k_ikaar
Encoding: 65543 -1 120
Width: 1564
GlyphClass: 2
Flags: W
LayerCount: 2
Fore
SplineSet
1450 838 m 0,0,1
 1450 770 1450 770 1438 714 c 2,2,-1
 1282 -4 l 1,3,-1
 1208 -4 l 1,4,-1
 1368 744 l 1,5,-1
 1368 790 l 2,6,7
 1368 998 1368 998 1178 1132 c 0,8,9
 1008 1254 1008 1254 792 1254 c 0,10,11
 568 1254 568 1254 394 1144 c 0,12,13
 208 1026 208 1026 208 844 c 0,14,15
 208 738 208 738 232 654 c 1,16,17
 268 560 268 560 312 516 c 1,18,-1
 382 844 l 1,19,-1
 1184 844 l 1,20,-1
 1184 766 l 1,21,-1
 860 766 l 1,22,-1
 800 484 l 1,23,-1
 848 484 l 2,24,25
 964 484 964 484 1052 428 c 0,26,27
 1152 364 1152 364 1152 254 c 0,28,29
 1152 146 1152 146 1067 71 c 128,-1,30
 982 -4 982 -4 872 -4 c 1,31,-1
 820 74 l 1,32,33
 898 74 898 74 949 125 c 128,-1,34
 1000 176 1000 176 1000 254 c 0,35,36
 1000 406 1000 406 820 406 c 2,37,-1
 786 406 l 1,38,-1
 770 328 l 2,39,40
 736 158 736 158 646 80 c 0,41,42
 552 -4 552 -4 382 -4 c 0,43,44
 236 -4 236 -4 144 52 c 0,45,46
 28 118 28 118 28 254 c 0,47,48
 28 354 28 354 93 419 c 128,-1,49
 158 484 158 484 258 484 c 1,50,51
 200 536 200 536 162 652 c 0,52,53
 128 754 128 754 128 844 c 0,54,55
 128 1080 128 1080 348 1236 c 0,56,57
 548 1378 548 1378 792 1378 c 0,58,59
 1064 1378 1064 1378 1246 1246 c 0,60,61
 1450 1100 1450 1100 1450 838 c 0,0,1
708 766 m 1,62,-1
 450 766 l 1,63,-1
 390 484 l 1,64,-1
 644 484 l 1,65,-1
 708 766 l 1,62,-1
632 406 m 1,66,-1
 258 406 l 2,67,68
 190 406 190 406 146 364 c 128,-1,69
 102 322 102 322 102 254 c 0,70,71
 102 156 102 156 196 108 c 0,72,73
 262 74 262 74 382 74 c 0,74,75
 484 74 484 74 544 146 c 0,76,77
 596 210 596 210 618 328 c 2,78,-1
 632 406 l 1,66,-1
EndSplineSet
Ligature2: "'psts' Post Base Substitutions lookup 8 subtable" tm_ka tm_ikaar
EndChar

StartChar: tm_ng_ikaar
Encoding: 65544 -1 121
Width: 1872
GlyphClass: 2
Flags: W
LayerCount: 2
Fore
SplineSet
1746 954 m 0,0,1
 1746 900 1746 900 1734 844 c 2,2,-1
 1554 -4 l 1,3,-1
 1480 -4 l 1,4,-1
 1662 912 l 1,5,6
 1662 1040 1662 1040 1582 1133 c 128,-1,7
 1502 1226 1502 1226 1376 1226 c 0,8,9
 1270 1226 1270 1226 1192 1166 c 0,10,11
 1106 1098 1106 1098 1094 1020 c 2,12,-1
 1088 978 l 1,13,14
 1088 894 1088 894 1150 830 c 128,-1,15
 1212 766 1212 766 1282 766 c 1,16,-1
 1300 844 l 1,17,-1
 1454 844 l 1,18,-1
 1274 -4 l 1,19,-1
 352 -4 l 1,20,-1
 352 74 l 1,21,-1
 656 74 l 1,22,23
 732 106 732 106 764 154 c 0,24,25
 812 224 812 224 812 278 c 0,26,27
 812 430 812 430 710 430 c 0,28,29
 634 430 634 430 594 382 c 1,30,-1
 558 226 l 1,31,-1
 406 226 l 1,32,-1
 516 766 l 1,33,-1
 262 766 l 1,34,-1
 98 -4 l 1,35,-1
 20 -4 l 1,36,-1
 196 844 l 1,37,-1
 996 844 l 1,38,-1
 996 766 l 1,39,-1
 672 766 l 1,40,-1
 606 480 l 1,41,42
 672 534 672 534 738 534 c 0,43,44
 836 534 836 534 900 456 c 128,-1,45
 964 378 964 378 964 278 c 0,46,47
 964 222 964 222 925 159 c 128,-1,48
 886 96 886 96 836 74 c 1,49,-1
 1132 74 l 1,50,-1
 1266 688 l 1,51,52
 1170 688 1170 688 1092 786 c 0,53,54
 1008 888 1008 888 1014 1002 c 2,55,-1
 1016 1046 l 1,56,57
 1046 1194 1046 1194 1168 1280 c 0,58,59
 1276 1356 1276 1356 1376 1356 c 0,60,61
 1548 1356 1548 1356 1650 1240 c 0,62,63
 1746 1128 1746 1128 1746 954 c 0,0,1
EndSplineSet
Ligature2: "'psts' Post Base Substitutions lookup 8 subtable" tm_nga tm_ikaar
EndChar

StartChar: tm_c_ikaar
Encoding: 65545 -1 122
Width: 1540
GlyphClass: 2
Flags: W
LayerCount: 2
Fore
SplineSet
1420 836 m 2,0,-1
 1416 776 l 1,1,-1
 1406 714 l 1,2,-1
 1254 -4 l 1,3,-1
 1176 -4 l 1,4,-1
 1328 714 l 2,5,6
 1332 720 1332 720 1332 746 c 2,7,-1
 1336 784 l 1,8,9
 1336 972 1336 972 1154 1116 c 0,10,11
 982 1254 982 1254 790 1254 c 0,12,13
 586 1254 586 1254 408 1152 c 0,14,15
 200 1034 200 1034 200 844 c 0,16,17
 200 624 200 624 308 516 c 1,18,-1
 378 844 l 1,19,-1
 1180 844 l 1,20,-1
 1180 766 l 1,21,-1
 856 766 l 1,22,-1
 792 484 l 1,23,-1
 1098 484 l 1,24,-1
 1098 406 l 1,25,-1
 782 406 l 1,26,-1
 766 328 l 2,27,28
 732 158 732 158 642 80 c 0,29,30
 548 -4 548 -4 378 -4 c 0,31,32
 234 -4 234 -4 138 52 c 0,33,34
 20 120 20 120 20 254 c 0,35,36
 20 354 20 354 87 419 c 128,-1,37
 154 484 154 484 254 484 c 1,38,39
 200 534 200 534 160 634 c 0,40,41
 142 680 142 680 132 744 c 0,42,43
 126 782 126 782 126 800 c 2,44,-1
 126 844 l 2,45,46
 126 1080 126 1080 346 1236 c 0,47,48
 546 1378 546 1378 790 1378 c 0,49,50
 1052 1378 1052 1378 1236 1224 c 0,51,52
 1434 1058 1434 1058 1420 836 c 2,0,-1
700 766 m 1,53,-1
 446 766 l 1,54,-1
 382 484 l 1,55,-1
 640 484 l 1,56,-1
 700 766 l 1,53,-1
628 406 m 1,57,-1
 254 406 l 2,58,59
 186 406 186 406 142 364 c 128,-1,60
 98 322 98 322 98 254 c 0,61,62
 98 156 98 156 192 108 c 0,63,64
 258 74 258 74 378 74 c 0,65,66
 480 74 480 74 538 146 c 1,67,68
 584 214 584 214 610 328 c 2,69,-1
 628 406 l 1,57,-1
EndSplineSet
Ligature2: "'psts' Post Base Substitutions lookup 8 subtable" tm_ca tm_ikaar
EndChar

StartChar: tm_j_ikaar
Encoding: 65546 -1 123
Width: 1958
GlyphClass: 2
Flags: W
LayerCount: 2
Fore
SplineSet
1830 980 m 2,0,-1
 1826 910 l 1,1,-1
 1816 844 l 1,2,-1
 1636 -4 l 1,3,-1
 1558 -4 l 1,4,-1
 1748 940 l 1,5,6
 1754 1078 1754 1078 1660 1170 c 0,7,8
 1570 1254 1570 1254 1406 1254 c 0,9,10
 1308 1254 1308 1254 1228 1185 c 128,-1,11
 1148 1116 1148 1116 1148 1020 c 0,12,13
 1148 960 1148 960 1178 912 c 1,14,15
 1224 860 1224 860 1254 844 c 1,16,-1
 1176 844 l 1,17,18
 1074 946 1074 946 1074 1074 c 0,19,20
 1074 1214 1074 1214 1184 1300 c 0,21,22
 1286 1378 1286 1378 1430 1378 c 0,23,24
 1622 1378 1622 1378 1726 1270 c 0,25,26
 1840 1152 1840 1152 1830 980 c 2,0,-1
1508 484 m 0,27,28
 1508 262 1508 262 1376 141 c 128,-1,29
 1244 20 1244 20 1020 20 c 2,30,-1
 356 20 l 2,31,32
 74 20 74 20 74 -262 c 0,33,34
 74 -366 74 -366 124 -444 c 1,35,36
 184 -516 184 -516 254 -516 c 0,37,38
 384 -516 384 -516 492 -402 c 2,39,-1
 690 -194 l 1,40,41
 820 -82 820 -82 996 -82 c 0,42,43
 1128 -82 1128 -82 1220 -142 c 0,44,45
 1328 -212 1328 -212 1328 -336 c 0,46,47
 1328 -448 1328 -448 1230 -522 c 0,48,49
 1124 -598 1124 -598 1020 -594 c 2,50,-1
 974 -592 l 1,51,-1
 900 -584 l 1,52,53
 844 -572 844 -572 816 -542 c 0,54,55
 806 -532 806 -532 806 -510 c 1,56,-1
 814 -476 l 1,57,58
 822 -460 822 -460 834 -460 c 1,59,-1
 844 -464 l 1,60,61
 896 -516 896 -516 976 -516 c 0,62,63
 1054 -516 1054 -516 1116 -466 c 1,64,65
 1176 -402 1176 -402 1176 -336 c 0,66,67
 1176 -252 1176 -252 1130 -204 c 128,-1,68
 1084 -156 1084 -156 996 -156 c 0,69,70
 828 -156 828 -156 722 -270 c 2,71,-1
 524 -482 l 2,72,73
 420 -594 420 -594 254 -594 c 0,74,75
 122 -594 122 -594 20 -494 c 128,-1,76
 -82 -394 -82 -394 -82 -262 c 0,77,78
 -82 -100 -82 -100 44 2 c 0,79,80
 162 98 162 98 328 98 c 2,81,-1
 996 98 l 2,82,83
 1356 98 1356 98 1356 484 c 0,84,85
 1356 594 1356 594 1324 668 c 1,86,87
 1284 738 1284 738 1200 738 c 0,88,89
 1154 738 1154 738 1112 708 c 1,90,-1
 1064 664 l 1,91,92
 1006 596 1006 596 996 536 c 2,93,-1
 946 226 l 1,94,-1
 790 226 l 1,95,-1
 844 536 l 1,96,97
 844 632 844 632 748 702 c 0,98,99
 658 766 658 766 558 766 c 0,100,101
 416 766 416 766 316 698 c 0,102,103
 200 620 200 620 200 484 c 0,104,105
 200 402 200 402 247 353 c 128,-1,106
 294 304 294 304 356 304 c 1,107,108
 304 346 304 346 304 458 c 0,109,110
 304 532 304 532 361 583 c 128,-1,111
 418 634 418 634 492 634 c 0,112,113
 560 634 560 634 612 586 c 128,-1,114
 664 538 664 538 664 458 c 0,115,116
 664 348 664 348 597 287 c 128,-1,117
 530 226 530 226 418 226 c 0,118,119
 298 226 298 226 216 294 c 0,120,121
 126 366 126 366 126 484 c 0,122,123
 126 648 126 648 262 748 c 0,124,125
 388 840 388 840 556 840 c 0,126,127
 682 840 682 840 786 782 c 0,128,129
 902 720 902 720 946 610 c 1,130,131
 994 746 994 746 1094 804 c 0,132,133
 1164 844 1164 844 1254 844 c 0,134,135
 1372 844 1372 844 1446 718 c 0,136,137
 1508 610 1508 610 1508 484 c 0,27,28
558 460 m 0,138,139
 558 496 558 496 538 527 c 128,-1,140
 518 558 518 558 484 558 c 0,141,142
 448 558 448 558 413 526 c 128,-1,143
 378 494 378 494 378 458 c 0,144,145
 378 402 378 402 406 352 c 1,146,147
 446 304 446 304 458 304 c 0,148,149
 510 304 510 304 536 360 c 0,150,151
 558 404 558 404 558 460 c 0,138,139
EndSplineSet
Ligature2: "'psts' Post Base Substitutions lookup 8 subtable" tm_ja tm_ikaar
EndChar

StartChar: tm_ny_ikaar
Encoding: 65547 -1 124
Width: 2360
GlyphClass: 2
Flags: W
LayerCount: 2
Fore
SplineSet
2220 956 m 0,0,1
 2220 900 2220 900 2208 844 c 2,2,-1
 2028 -4 l 1,3,-1
 1950 -4 l 1,4,-1
 2136 928 l 1,5,6
 2144 1064 2144 1064 2038 1164 c 0,7,8
 1938 1254 1938 1254 1770 1254 c 0,9,10
 1658 1254 1658 1254 1566 1194 c 0,11,12
 1460 1126 1460 1126 1460 1020 c 0,13,14
 1460 954 1460 954 1491 909 c 128,-1,15
 1522 864 1522 864 1562 844 c 1,16,-1
 1488 844 l 1,17,18
 1432 908 1432 908 1416 938 c 0,19,20
 1382 1004 1382 1004 1382 1074 c 0,21,22
 1382 1210 1382 1210 1512 1298 c 0,23,24
 1628 1378 1628 1378 1770 1378 c 0,25,26
 1966 1378 1966 1378 2093 1264 c 128,-1,27
 2220 1150 2220 1150 2220 956 c 0,0,1
1872 176 m 0,28,29
 1872 -166 1872 -166 1574 -380 c 0,30,31
 1306 -570 1306 -570 950 -570 c 0,32,33
 574 -570 574 -570 314 -360 c 0,34,35
 28 -128 28 -128 28 254 c 0,36,37
 28 420 28 420 78 566 c 0,38,39
 140 742 140 742 258 816 c 0,40,41
 284 832 284 832 312 832 c 0,42,43
 360 832 360 832 360 800 c 1,44,45
 348 778 348 778 332 766 c 0,46,47
 206 694 206 694 148 548 c 0,48,49
 102 432 102 432 102 254 c 0,50,51
 102 -84 102 -84 362 -294 c 0,52,53
 604 -492 604 -492 950 -492 c 0,54,55
 1240 -492 1240 -492 1472 -306 c 0,56,57
 1718 -108 1718 -108 1718 176 c 0,58,59
 1718 414 1718 414 1610 414 c 0,60,61
 1514 414 1514 414 1464 376 c 1,62,-1
 1382 -4 l 1,63,-1
 1230 -4 l 1,64,-1
 1398 766 l 1,65,-1
 950 766 l 2,66,67
 734 766 734 766 596 656 c 0,68,69
 438 530 438 530 438 328 c 1,70,71
 442 288 442 288 448 268 c 1,72,-1
 482 204 l 1,73,74
 530 142 530 142 590 126 c 1,75,76
 552 190 552 190 552 272 c 0,77,78
 552 366 552 366 608 434 c 1,79,80
 682 508 682 508 792 508 c 0,81,82
 868 508 868 508 920 440 c 128,-1,83
 972 372 972 372 972 278 c 0,84,85
 972 176 972 176 895 86 c 128,-1,86
 818 -4 818 -4 718 -4 c 0,87,88
 578 -4 578 -4 469 93 c 128,-1,89
 360 190 360 190 360 328 c 0,90,91
 360 562 360 562 542 708 c 0,92,93
 710 844 710 844 950 844 c 2,94,-1
 1792 844 l 1,95,-1
 1792 766 l 1,96,-1
 1550 766 l 1,97,-1
 1484 458 l 1,98,99
 1522 508 1522 508 1618 508 c 0,100,101
 1738 508 1738 508 1810 398 c 0,102,103
 1872 304 1872 304 1872 176 c 0,28,29
848 278 m 0,104,105
 848 430 848 430 770 430 c 0,106,107
 702 430 702 430 660 377 c 128,-1,108
 618 324 618 324 618 254 c 0,109,110
 618 98 618 98 692 98 c 0,111,112
 760 98 760 98 804 154 c 128,-1,113
 848 210 848 210 848 278 c 0,104,105
EndSplineSet
Ligature2: "'psts' Post Base Substitutions lookup 8 subtable" tm_nya tm_ikaar
EndChar

StartChar: tm_tt_ikaar
Encoding: 65548 -1 125
Width: 1828
GlyphClass: 2
Flags: W
LayerCount: 2
Fore
SplineSet
1684 -4 m 1,0,-1
 1050 -4 l 1,1,-1
 942 -516 l 1,2,-1
 786 -516 l 1,3,-1
 898 -4 l 1,4,-1
 16 -4 l 1,5,-1
 196 844 l 1,6,-1
 352 844 l 1,7,-1
 188 74 l 1,8,-1
 812 74 l 1,9,10
 722 126 722 126 662 254 c 0,11,12
 606 372 606 372 606 484 c 0,13,14
 606 640 606 640 707 742 c 128,-1,15
 808 844 808 844 964 844 c 0,16,17
 1062 844 1062 844 1120 781 c 128,-1,18
 1178 718 1178 718 1178 620 c 1,19,-1
 1172 558 l 1,20,-1
 1070 74 l 1,21,-1
 1684 74 l 1,22,-1
 1684 -4 l 1,0,-1
1026 622 m 2,23,-1
 1026 646 l 2,24,25
 1026 766 1026 766 942 766 c 0,26,27
 816 766 816 766 744 664 c 0,28,29
 680 572 680 572 684 484 c 2,30,-1
 688 412 l 1,31,-1
 698 350 l 1,32,33
 714 290 714 290 740 240 c 0,34,35
 784 158 784 158 890 74 c 1,36,-1
 914 74 l 1,37,-1
 1022 598 l 2,38,39
 1026 604 1026 604 1026 622 c 2,23,-1
EndSplineSet
Ligature2: "'psts' Post Base Substitutions lookup 8 subtable" tm_tta tm_ikaar
EndChar

StartChar: tm_nn_ikaar
Encoding: 65549 -1 126
Width: 3022
GlyphClass: 2
Flags: W
LayerCount: 2
Fore
SplineSet
2866 982 m 2,0,-1
 2862 912 l 1,1,-1
 2852 844 l 1,2,-1
 2672 -4 l 1,3,-1
 2594 -4 l 1,4,-1
 2784 938 l 1,5,6
 2786 994 2786 994 2764 1062 c 0,7,8
 2742 1124 2742 1124 2704 1164 c 0,9,10
 2618 1254 2618 1254 2492 1254 c 0,11,12
 2398 1254 2398 1254 2329 1176 c 128,-1,13
 2260 1098 2260 1098 2260 1004 c 0,14,15
 2260 952 2260 952 2284 910 c 1,16,17
 2320 868 2320 868 2364 844 c 1,18,-1
 2286 844 l 1,19,20
 2190 952 2190 952 2190 1074 c 0,21,22
 2190 1202 2190 1202 2277 1290 c 128,-1,23
 2364 1378 2364 1378 2492 1378 c 0,24,25
 2666 1378 2666 1378 2766 1268 c 0,26,27
 2876 1148 2876 1148 2866 982 c 2,0,-1
2570 766 m 1,28,-1
 2348 766 l 1,29,-1
 2184 -4 l 1,30,-1
 2032 -4 l 1,31,-1
 2192 766 l 1,32,-1
 2004 766 l 2,33,34
 1884 766 1884 766 1738 688 c 1,35,36
 1902 554 1902 554 1902 328 c 0,37,38
 1902 192 1902 192 1854 104 c 1,39,40
 1782 -4 1782 -4 1672 -4 c 0,41,42
 1442 -4 1442 -4 1442 328 c 0,43,44
 1442 386 1442 386 1454 420 c 2,45,-1
 1486 512 l 1,46,47
 1530 602 1530 602 1606 672 c 1,48,49
 1482 756 1482 756 1362 756 c 0,50,51
 1302 756 1302 756 1242 738 c 1,52,-1
 1126 688 l 1,53,54
 1286 552 1286 552 1286 328 c 0,55,56
 1286 180 1286 180 1238 104 c 0,57,58
 1170 -4 1170 -4 1054 -4 c 0,59,60
 824 -4 824 -4 824 328 c 0,61,62
 824 372 824 372 836 420 c 1,63,-1
 868 510 l 1,64,65
 940 628 940 628 992 672 c 1,66,67
 872 754 872 754 770 762 c 0,68,69
 752 766 752 766 722 766 c 2,70,-1
 672 766 l 2,71,72
 436 766 436 766 282 662 c 0,73,74
 106 544 106 544 106 328 c 0,75,76
 106 268 106 268 152 204 c 1,77,78
 212 138 212 138 262 126 c 1,79,80
 224 190 224 190 224 272 c 0,81,82
 224 366 224 366 280 434 c 1,83,84
 354 508 354 508 464 508 c 0,85,86
 540 508 540 508 592 440 c 128,-1,87
 644 372 644 372 644 278 c 0,88,89
 644 172 644 172 569 84 c 128,-1,90
 494 -4 494 -4 390 -4 c 0,91,92
 250 -4 250 -4 141 93 c 128,-1,93
 32 190 32 190 32 328 c 0,94,95
 32 572 32 572 237 718 c 128,-1,96
 442 864 442 864 676 846 c 2,97,-1
 786 838 l 1,98,-1
 896 814 l 2,99,100
 994 792 994 792 1074 734 c 1,101,102
 1228 836 1228 836 1372 836 c 1,103,-1
 1448 828 l 1,104,-1
 1530 810 l 1,105,-1
 1614 776 l 1,106,-1
 1688 734 l 1,107,108
 1826 844 1826 844 2004 844 c 2,109,-1
 2570 844 l 1,110,-1
 2570 766 l 1,28,-1
1746 328 m 0,111,112
 1746 412 1746 412 1724 496 c 1,113,114
 1684 586 1684 586 1644 586 c 0,115,116
 1590 586 1590 586 1554 498 c 1,117,118
 1524 442 1524 442 1522 408 c 2,119,-1
 1516 328 l 2,120,121
 1508 220 1508 220 1550 144 c 0,122,123
 1576 98 1576 98 1622 98 c 0,124,125
 1706 98 1706 98 1732 178 c 0,126,127
 1746 222 1746 222 1746 328 c 0,111,112
1132 328 m 0,128,129
 1132 422 1132 422 1110 496 c 0,130,131
 1084 586 1084 586 1032 586 c 0,132,133
 976 586 976 586 940 498 c 1,134,135
 910 442 910 442 908 408 c 2,136,-1
 902 328 l 1,137,-1
 910 216 l 1,138,-1
 934 144 l 1,139,140
 962 98 962 98 1004 98 c 0,141,142
 1090 98 1090 98 1118 176 c 0,143,144
 1132 218 1132 218 1132 328 c 0,128,129
516 278 m 0,145,146
 516 430 516 430 442 430 c 0,147,148
 374 430 374 430 330 376 c 128,-1,149
 286 322 286 322 286 254 c 0,150,151
 286 214 286 214 306 144 c 1,152,153
 334 98 334 98 364 98 c 0,154,155
 426 98 426 98 471 156 c 128,-1,156
 516 214 516 214 516 278 c 0,145,146
EndSplineSet
Ligature2: "'psts' Post Base Substitutions lookup 8 subtable" tm_nna tm_ikaar
EndChar

StartChar: tm_t_ikaar
Encoding: 65550 -1 127
Width: 1654
GlyphClass: 2
Flags: W
LayerCount: 2
Fore
SplineSet
1526 834 m 2,0,-1
 1522 774 l 1,1,-1
 1512 714 l 1,2,-1
 1360 -4 l 1,3,-1
 1282 -4 l 1,4,-1
 1446 744 l 1,5,-1
 1446 790 l 2,6,7
 1446 1004 1446 1004 1248 1138 c 0,8,9
 1072 1254 1072 1254 848 1254 c 0,10,11
 714 1254 714 1254 592 1222 c 0,12,13
 456 1186 456 1186 388 1142 c 0,14,15
 208 1024 208 1024 208 844 c 0,16,17
 208 738 208 738 232 654 c 1,18,19
 268 560 268 560 312 516 c 1,20,-1
 382 844 l 1,21,-1
 1184 844 l 1,22,-1
 1184 766 l 1,23,-1
 860 766 l 1,24,-1
 800 484 l 1,25,-1
 898 484 l 2,26,27
 1024 484 1024 484 1110 406 c 0,28,29
 1208 316 1208 316 1208 176 c 0,30,31
 1208 -10 1208 -10 998 -130 c 0,32,33
 818 -234 818 -234 618 -234 c 2,34,-1
 208 -234 l 2,35,36
 102 -234 102 -234 102 -336 c 1,37,38
 148 -360 148 -360 148 -402 c 1,39,40
 140 -436 140 -436 122 -450 c 128,-1,41
 104 -464 104 -464 78 -464 c 0,42,43
 -28 -464 -28 -464 -28 -336 c 0,44,45
 -28 -276 -28 -276 42 -216 c 1,46,47
 126 -156 126 -156 208 -156 c 2,48,-1
 590 -156 l 2,49,50
 748 -156 748 -156 888 -70 c 0,51,52
 1050 28 1050 28 1050 176 c 0,53,54
 1050 316 1050 316 952 382 c 0,55,56
 916 406 916 406 872 406 c 2,57,-1
 786 406 l 1,58,-1
 770 328 l 2,59,60
 736 158 736 158 646 80 c 0,61,62
 552 -4 552 -4 382 -4 c 0,63,64
 236 -4 236 -4 144 52 c 0,65,66
 28 118 28 118 28 254 c 0,67,68
 28 354 28 354 93 419 c 128,-1,69
 158 484 158 484 258 484 c 1,70,71
 200 536 200 536 162 652 c 0,72,73
 128 754 128 754 128 844 c 0,74,75
 128 1094 128 1094 372 1248 c 0,76,77
 582 1378 582 1378 848 1378 c 0,78,79
 1138 1378 1138 1378 1332 1224 c 0,80,81
 1540 1058 1540 1058 1526 834 c 2,0,-1
708 766 m 1,82,-1
 450 766 l 1,83,-1
 390 484 l 1,84,-1
 644 484 l 1,85,-1
 708 766 l 1,82,-1
632 406 m 1,86,-1
 258 406 l 2,87,88
 190 406 190 406 146 364 c 128,-1,89
 102 322 102 322 102 254 c 0,90,91
 102 156 102 156 196 108 c 0,92,93
 262 74 262 74 382 74 c 0,94,95
 484 74 484 74 544 146 c 0,96,97
 596 210 596 210 618 328 c 2,98,-1
 632 406 l 1,86,-1
EndSplineSet
Ligature2: "'psts' Post Base Substitutions lookup 8 subtable" tm_ta tm_ikaar
EndChar

StartChar: tm_n_ikaar
Encoding: 65551 -1 128
Width: 1432
GlyphClass: 2
Flags: W
LayerCount: 2
Fore
SplineSet
1340 960 m 0,0,1
 1340 900 1340 900 1328 844 c 2,2,-1
 1148 -4 l 1,3,-1
 1074 -4 l 1,4,-1
 1254 844 l 2,5,6
 1262 882 1262 882 1262 924 c 0,7,8
 1262 1080 1262 1080 1154 1170 c 0,9,10
 1052 1254 1052 1254 894 1254 c 0,11,12
 778 1254 778 1254 690 1196 c 0,13,14
 586 1130 586 1130 586 1020 c 0,15,16
 586 970 586 970 615 917 c 128,-1,17
 644 864 644 864 688 844 c 1,18,-1
 610 844 l 1,19,20
 548 914 548 914 538 938 c 0,21,22
 508 1008 508 1008 508 1074 c 0,23,24
 508 1210 508 1210 636 1300 c 0,25,26
 750 1378 750 1378 894 1378 c 0,27,28
 1088 1378 1088 1378 1214 1265 c 128,-1,29
 1340 1152 1340 1152 1340 960 c 0,0,1
1000 766 m 1,30,-1
 676 766 l 1,31,-1
 610 458 l 1,32,33
 676 512 676 512 738 512 c 0,34,35
 838 512 838 512 917 433 c 128,-1,36
 996 354 996 354 996 254 c 0,37,38
 996 28 996 28 854 -103 c 128,-1,39
 712 -234 712 -234 484 -234 c 2,40,-1
 176 -234 l 2,41,42
 130 -234 130 -234 98 -256 c 1,43,44
 70 -284 70 -284 70 -314 c 1,45,-1
 74 -336 l 1,46,47
 120 -364 120 -364 120 -400 c 0,48,49
 120 -464 120 -464 46 -464 c 0,50,51
 -12 -464 -12 -464 -33 -434 c 128,-1,52
 -54 -404 -54 -404 -54 -336 c 0,53,54
 -54 -260 -54 -260 26 -206 c 0,55,56
 98 -156 98 -156 176 -156 c 2,57,-1
 484 -156 l 2,58,59
 652 -156 652 -156 748 -50 c 128,-1,60
 844 56 844 56 844 226 c 0,61,62
 844 294 844 294 799 351 c 128,-1,63
 754 408 754 408 688 408 c 1,64,65
 620 398 620 398 590 356 c 1,66,-1
 512 -4 l 1,67,-1
 360 -4 l 1,68,-1
 520 766 l 1,69,-1
 266 766 l 1,70,-1
 102 -4 l 1,71,-1
 28 -4 l 1,72,-1
 200 844 l 1,73,-1
 1000 844 l 1,74,-1
 1000 766 l 1,30,-1
EndSplineSet
Ligature2: "'psts' Post Base Substitutions lookup 8 subtable" tm_na tm_ikaar
EndChar

StartChar: tm_nnn_ikaar
Encoding: 65552 -1 129
Width: 2382
GlyphClass: 2
Flags: W
LayerCount: 2
Fore
SplineSet
2238 984 m 2,0,-1
 2234 914 l 1,1,-1
 2222 844 l 1,2,-1
 2042 -4 l 1,3,-1
 1964 -4 l 1,4,-1
 2144 844 l 2,5,6
 2150 864 2150 864 2152 890 c 2,7,-1
 2154 942 l 2,8,9
 2158 1066 2158 1066 2070 1164 c 0,10,11
 1986 1254 1986 1254 1864 1254 c 0,12,13
 1770 1254 1770 1254 1700 1177 c 128,-1,14
 1630 1100 1630 1100 1630 1004 c 1,15,-1
 1640 948 l 1,16,-1
 1656 910 l 1,17,18
 1686 868 1686 868 1734 844 c 1,19,-1
 1656 844 l 1,20,21
 1554 946 1554 946 1554 1074 c 256,22,23
 1554 1202 1554 1202 1644 1290 c 128,-1,24
 1734 1378 1734 1378 1864 1378 c 0,25,26
 2038 1378 2038 1378 2138 1270 c 0,27,28
 2248 1152 2248 1152 2238 984 c 2,0,-1
1942 766 m 1,29,-1
 1718 766 l 1,30,-1
 1554 -4 l 1,31,-1
 1402 -4 l 1,32,-1
 1562 766 l 1,33,-1
 1376 766 l 2,34,35
 1256 766 1256 766 1110 688 c 1,36,37
 1274 550 1274 550 1274 328 c 0,38,39
 1274 180 1274 180 1226 104 c 0,40,41
 1158 -4 1158 -4 1042 -4 c 0,42,43
 812 -4 812 -4 812 328 c 0,44,45
 812 522 812 522 980 672 c 1,46,-1
 912 716 l 2,47,48
 882 736 882 736 848 742 c 1,49,50
 814 756 814 756 742 762 c 2,51,-1
 696 766 l 1,52,-1
 656 766 l 2,53,54
 544 766 544 766 448 740 c 0,55,56
 340 710 340 710 270 662 c 0,57,58
 94 540 94 540 94 328 c 0,59,60
 94 268 94 268 140 204 c 1,61,62
 198 138 198 138 246 126 c 1,63,64
 230 152 230 152 220 184 c 0,65,66
 206 228 206 228 210 270 c 2,67,-1
 214 316 l 1,68,-1
 224 362 l 1,69,70
 286 508 286 508 454 508 c 0,71,72
 528 508 528 508 580 440 c 128,-1,73
 632 372 632 372 632 278 c 0,74,75
 632 176 632 176 554 86 c 128,-1,76
 476 -4 476 -4 376 -4 c 0,77,78
 232 -4 232 -4 124 91 c 128,-1,79
 16 186 16 186 16 328 c 0,80,81
 16 570 16 570 220 716 c 0,82,83
 432 868 432 868 662 850 c 2,84,-1
 770 842 l 1,85,-1
 876 818 l 2,86,87
 972 796 972 796 1058 734 c 1,88,89
 1196 844 1196 844 1376 844 c 2,90,-1
 1942 844 l 1,91,-1
 1942 766 l 1,29,-1
1122 328 m 0,92,93
 1122 424 1122 424 1098 496 c 1,94,95
 1056 586 1056 586 1016 586 c 0,96,97
 962 586 962 586 926 502 c 0,98,99
 884 406 884 406 890 328 c 2,100,-1
 898 216 l 1,101,-1
 922 144 l 1,102,103
 950 98 950 98 992 98 c 0,104,105
 1076 98 1076 98 1104 176 c 0,106,107
 1122 224 1122 224 1122 328 c 0,92,93
504 278 m 0,108,109
 504 430 504 430 426 430 c 0,110,111
 358 430 358 430 316 377 c 128,-1,112
 274 324 274 324 274 254 c 0,113,114
 274 214 274 214 294 144 c 1,115,116
 322 98 322 98 352 98 c 0,117,118
 424 98 424 98 468 160 c 1,119,120
 504 224 504 224 504 278 c 0,108,109
EndSplineSet
Ligature2: "'psts' Post Base Substitutions lookup 8 subtable" tm_nnna tm_ikaar
EndChar

StartChar: tm_p_ikaar
Encoding: 65553 -1 130
Width: 1714
GlyphClass: 2
Flags: W
LayerCount: 2
Fore
SplineSet
1604 952 m 2,0,-1
 1602 914 l 1,1,-1
 1594 844 l 1,2,-1
 1414 -4 l 1,3,-1
 1336 -4 l 1,4,-1
 1522 910 l 1,5,6
 1522 1040 1522 1040 1442 1133 c 128,-1,7
 1362 1226 1362 1226 1234 1226 c 0,8,9
 1130 1226 1130 1226 1052 1164 c 0,10,11
 964 1096 964 1096 954 1020 c 2,12,-1
 948 978 l 1,13,14
 948 900 948 900 1010 832 c 1,15,16
 1086 766 1086 766 1140 766 c 1,17,-1
 1156 844 l 1,18,-1
 1312 844 l 1,19,-1
 1132 -4 l 1,20,-1
 32 -4 l 1,21,-1
 210 844 l 1,22,-1
 364 844 l 1,23,-1
 200 74 l 1,24,-1
 992 74 l 1,25,-1
 1126 688 l 1,26,27
 1030 688 1030 688 952 786 c 0,28,29
 868 888 868 888 874 1002 c 2,30,-1
 876 1046 l 1,31,32
 906 1192 906 1192 1028 1280 c 0,33,34
 1134 1356 1134 1356 1234 1356 c 0,35,36
 1406 1356 1406 1356 1509 1234 c 128,-1,37
 1612 1112 1612 1112 1604 952 c 2,0,-1
EndSplineSet
Ligature2: "'psts' Post Base Substitutions lookup 8 subtable" tm_pa tm_ikaar
EndChar

StartChar: tm_m_ikaar
Encoding: 65554 -1 131
Width: 1804
GlyphClass: 2
Flags: W
LayerCount: 2
Fore
SplineSet
1682 980 m 2,0,-1
 1678 910 l 1,1,-1
 1668 844 l 1,2,-1
 1488 -4 l 1,3,-1
 1410 -4 l 1,4,-1
 1590 844 l 2,5,6
 1596 864 1596 864 1598 894 c 2,7,-1
 1600 936 l 2,8,9
 1606 1072 1606 1072 1512 1166 c 0,10,11
 1422 1254 1422 1254 1258 1254 c 0,12,13
 1160 1254 1160 1254 1080 1185 c 128,-1,14
 1000 1116 1000 1116 1000 1020 c 0,15,16
 1000 970 1000 970 1029 917 c 128,-1,17
 1058 864 1058 864 1102 844 c 1,18,-1
 1028 844 l 1,19,20
 974 898 974 898 954 938 c 0,21,22
 922 1002 922 1002 922 1074 c 0,23,24
 922 1216 922 1216 1034 1300 c 0,25,26
 1136 1378 1136 1378 1282 1378 c 0,27,28
 1474 1378 1474 1378 1578 1270 c 0,29,30
 1692 1152 1692 1152 1682 980 c 2,0,-1
1382 406 m 2,31,-1
 1378 326 l 1,32,-1
 1368 256 l 2,33,34
 1360 206 1360 206 1326 132 c 0,35,36
 1262 -4 1262 -4 1152 -4 c 2,37,-1
 28 -4 l 1,38,-1
 208 844 l 1,39,-1
 360 844 l 1,40,-1
 196 74 l 1,41,-1
 652 74 l 1,42,-1
 770 610 l 2,43,44
 794 718 794 718 872 784 c 0,45,46
 944 844 944 844 1028 844 c 0,47,48
 1196 844 1196 844 1296 702 c 0,49,50
 1390 568 1390 568 1382 406 c 2,31,-1
1308 406 m 0,51,52
 1308 544 1308 544 1250 644 c 0,53,54
 1178 766 1178 766 1050 766 c 0,55,56
 954 766 954 766 922 610 c 2,57,-1
 812 74 l 1,58,-1
 1128 74 l 2,59,60
 1222 74 1222 74 1270 200 c 0,61,62
 1308 296 1308 296 1308 406 c 0,51,52
EndSplineSet
Ligature2: "'psts' Post Base Substitutions lookup 8 subtable" tm_ma tm_ikaar
EndChar

StartChar: tm_y_ikaar
Encoding: 65555 -1 132
Width: 1804
GlyphClass: 2
Flags: W
LayerCount: 2
Fore
SplineSet
1698 952 m 2,0,-1
 1696 914 l 1,1,-1
 1688 844 l 1,2,-1
 1508 -4 l 1,3,-1
 1430 -4 l 1,4,-1
 1616 910 l 1,5,6
 1616 1038 1616 1038 1540 1128 c 0,7,8
 1456 1226 1456 1226 1328 1226 c 0,9,10
 1230 1226 1230 1226 1148 1169 c 128,-1,11
 1066 1112 1066 1112 1046 1020 c 0,12,13
 1042 1016 1042 1016 1042 978 c 0,14,15
 1042 900 1042 900 1100 833 c 128,-1,16
 1158 766 1158 766 1234 766 c 1,17,-1
 1254 844 l 1,18,-1
 1406 844 l 1,19,-1
 1226 -4 l 1,20,-1
 376 -4 l 1,21,-1
 376 58 l 1,22,23
 334 22 334 22 296 10 c 1,24,25
 268 -4 268 -4 250 -4 c 2,26,-1
 198 -6 l 2,27,28
 130 -8 130 -8 76 28 c 1,29,30
 28 74 28 74 28 128 c 2,31,-1
 28 146 l 1,32,-1
 32 168 l 1,33,-1
 176 844 l 1,34,-1
 328 844 l 1,35,-1
 184 152 l 1,36,37
 184 112 184 112 212 90 c 0,38,39
 228 74 228 74 254 74 c 0,40,41
 302 74 302 74 350 130 c 0,42,43
 390 178 390 178 402 230 c 2,44,-1
 536 844 l 1,45,-1
 688 844 l 1,46,-1
 528 74 l 1,47,-1
 1086 74 l 1,48,-1
 1218 688 l 1,49,50
 1122 688 1122 688 1044 784 c 0,51,52
 960 884 960 884 966 1004 c 2,53,-1
 968 1046 l 1,54,55
 998 1194 998 1194 1120 1280 c 0,56,57
 1228 1356 1228 1356 1328 1356 c 0,58,59
 1500 1356 1500 1356 1603 1234 c 128,-1,60
 1706 1112 1706 1112 1698 952 c 2,0,-1
EndSplineSet
Ligature2: "'psts' Post Base Substitutions lookup 8 subtable" tm_ya tm_ikaar
EndChar

StartChar: tm_r_ikaar
Encoding: 65556 -1 133
Width: 1454
GlyphClass: 2
Flags: W
LayerCount: 2
Fore
SplineSet
1334 982 m 2,0,-1
 1330 912 l 1,1,-1
 1320 844 l 1,2,-1
 1140 -4 l 1,3,-1
 1062 -4 l 1,4,-1
 1252 942 l 1,5,6
 1258 1072 1258 1072 1170 1166 c 0,7,8
 1088 1254 1088 1254 960 1254 c 0,9,10
 866 1254 866 1254 797 1176 c 128,-1,11
 728 1098 728 1098 728 1004 c 0,12,13
 728 958 728 958 752 910 c 0,14,15
 762 896 762 896 794 844 c 1,16,-1
 1144 844 l 1,17,-1
 1144 766 l 1,18,-1
 820 766 l 1,19,-1
 652 -4 l 1,20,-1
 -40 -312 l 1,21,-1
 -40 -262 l 1,22,-1
 508 20 l 1,23,-1
 668 766 l 1,24,-1
 258 766 l 1,25,-1
 94 -4 l 1,26,-1
 16 -4 l 1,27,-1
 192 844 l 1,28,-1
 732 844 l 1,29,-1
 708 896 l 1,30,-1
 686 938 l 2,31,32
 652 1002 652 1002 652 1074 c 0,33,34
 652 1202 652 1202 748 1290 c 128,-1,35
 844 1378 844 1378 960 1378 c 0,36,37
 1130 1378 1130 1378 1232 1270 c 0,38,39
 1344 1150 1344 1150 1334 982 c 2,0,-1
EndSplineSet
Ligature2: "'psts' Post Base Substitutions lookup 8 subtable" tm_ra tm_ikaar
EndChar

StartChar: tm_rr_ikaar
Encoding: 65557 -1 134
Width: 1544
GlyphClass: 2
Flags: W
LayerCount: 2
Fore
SplineSet
1438 986 m 2,0,-1
 1434 916 l 1,1,-1
 1422 844 l 1,2,-1
 1242 -4 l 1,3,-1
 1168 -4 l 1,4,-1
 1348 844 l 2,5,6
 1354 864 1354 864 1356 894 c 2,7,-1
 1358 936 l 2,8,9
 1364 1072 1364 1072 1268 1166 c 0,10,11
 1176 1254 1176 1254 1012 1254 c 0,12,13
 916 1254 916 1254 837 1184 c 128,-1,14
 758 1114 758 1114 758 1020 c 0,15,16
 758 970 758 970 787 917 c 128,-1,17
 816 864 816 864 860 844 c 1,18,-1
 782 844 l 1,19,20
 720 914 720 914 710 938 c 0,21,22
 680 1008 680 1008 680 1074 c 0,23,24
 680 1218 680 1218 792 1302 c 0,25,26
 892 1378 892 1378 1040 1378 c 0,27,28
 1230 1378 1230 1378 1334 1270 c 0,29,30
 1448 1152 1448 1152 1438 986 c 2,0,-1
1118 458 m 0,31,32
 1118 186 1118 186 962 -16 c 0,33,34
 792 -234 792 -234 528 -234 c 2,35,-1
 168 -234 l 2,36,37
 62 -234 62 -234 62 -336 c 1,38,39
 114 -360 114 -360 114 -402 c 1,40,41
 106 -436 106 -436 89 -450 c 128,-1,42
 72 -464 72 -464 40 -464 c 0,43,44
 -62 -464 -62 -464 -62 -336 c 0,45,46
 -62 -276 -62 -276 6 -216 c 128,-1,47
 74 -156 74 -156 168 -156 c 2,48,-1
 500 -156 l 2,49,50
 720 -156 720 -156 846 46 c 0,51,52
 960 230 960 230 960 458 c 0,53,54
 960 766 960 766 808 766 c 0,55,56
 728 766 728 766 674 714 c 128,-1,57
 620 662 620 662 602 582 c 2,58,-1
 472 -4 l 1,59,-1
 324 -4 l 1,60,-1
 454 606 l 1,61,62
 454 766 454 766 348 766 c 0,63,64
 254 766 254 766 238 688 c 2,65,-1
 94 -4 l 1,66,-1
 16 -4 l 1,67,-1
 172 688 l 2,68,69
 206 838 206 838 362 838 c 0,70,71
 436 838 436 838 498 797 c 128,-1,72
 560 756 560 756 578 688 c 1,73,74
 608 752 608 752 674 798 c 128,-1,75
 740 844 740 844 808 844 c 0,76,77
 1118 844 1118 844 1118 458 c 0,31,32
EndSplineSet
Ligature2: "'psts' Post Base Substitutions lookup 8 subtable" tm_rra tm_ikaar
EndChar

StartChar: tm_l_ikaar
Encoding: 65558 -1 135
Width: 1918
GlyphClass: 2
Flags: W
LayerCount: 2
Fore
SplineSet
1788 952 m 2,0,-1
 1786 914 l 1,1,-1
 1778 844 l 1,2,-1
 1598 -4 l 1,3,-1
 1520 -4 l 1,4,-1
 1706 900 l 1,5,-1
 1700 962 l 1,6,-1
 1686 1018 l 1,7,8
 1664 1076 1664 1076 1626 1124 c 0,9,10
 1544 1226 1544 1226 1446 1226 c 0,11,12
 1352 1226 1352 1226 1274 1172 c 0,13,14
 1188 1112 1188 1112 1188 1020 c 0,15,16
 1188 916 1188 916 1228 838 c 0,17,18
 1278 738 1278 738 1372 738 c 1,19,-1
 1344 766 l 1,20,-1
 1316 790 l 1,21,22
 1292 820 1292 820 1292 836 c 0,23,24
 1304 908 1304 908 1360 908 c 0,25,26
 1382 906 1382 906 1394 894 c 0,27,28
 1464 824 1464 824 1494 728 c 1,29,30
 1518 674 1518 674 1518 648 c 1,31,-1
 1528 586 l 1,32,-1
 1528 524 l 2,33,34
 1528 310 1528 310 1414 162 c 0,35,36
 1286 -4 1286 -4 1086 -4 c 0,37,38
 822 -4 822 -4 822 254 c 0,39,40
 822 332 822 332 856 458 c 0,41,42
 866 484 866 484 866 526 c 0,43,44
 866 626 866 626 790 696 c 128,-1,45
 714 766 714 766 626 766 c 0,46,47
 412 766 412 766 270 656 c 0,48,49
 110 532 110 532 110 328 c 0,50,51
 110 268 110 268 156 204 c 1,52,53
 216 138 216 138 266 126 c 1,54,55
 228 190 228 190 228 272 c 0,56,57
 228 366 228 366 284 434 c 1,58,59
 358 508 358 508 468 508 c 0,60,61
 544 508 544 508 596 440 c 128,-1,62
 648 372 648 372 648 278 c 0,63,64
 648 172 648 172 573 84 c 128,-1,65
 498 -4 498 -4 394 -4 c 0,66,67
 254 -4 254 -4 145 93 c 128,-1,68
 36 190 36 190 36 328 c 0,69,70
 36 570 36 570 227 714 c 128,-1,71
 418 858 418 858 626 844 c 2,72,-1
 710 838 l 1,73,-1
 784 824 l 2,74,75
 848 812 848 812 906 764 c 0,76,77
 1008 680 1008 680 1008 536 c 1,78,-1
 976 330 l 1,79,-1
 964 276 l 1,80,-1
 962 214 l 2,81,82
 960 150 960 150 997 112 c 128,-1,83
 1034 74 1034 74 1110 74 c 0,84,85
 1268 74 1268 74 1366 204 c 0,86,87
 1452 322 1452 322 1452 486 c 0,88,89
 1452 596 1452 596 1406 688 c 1,90,91
 1278 688 1278 688 1192 792 c 0,92,93
 1110 888 1110 888 1110 1020 c 0,94,95
 1110 1146 1110 1146 1215 1251 c 128,-1,96
 1320 1356 1320 1356 1446 1356 c 0,97,98
 1604 1356 1604 1356 1700 1234 c 128,-1,99
 1796 1112 1796 1112 1788 952 c 2,0,-1
520 278 m 0,100,101
 520 430 520 430 446 430 c 0,102,103
 384 430 384 430 337 373 c 128,-1,104
 290 316 290 316 290 254 c 0,105,106
 290 214 290 214 310 144 c 1,107,108
 338 98 338 98 368 98 c 0,109,110
 430 98 430 98 475 156 c 128,-1,111
 520 214 520 214 520 278 c 0,100,101
EndSplineSet
Ligature2: "'psts' Post Base Substitutions lookup 8 subtable" tm_la tm_ikaar
EndChar

StartChar: tm_ll_ikaar
Encoding: 65559 -1 136
Width: 2162
GlyphClass: 2
Flags: W
LayerCount: 2
Fore
SplineSet
2024 984 m 2,0,-1
 2020 914 l 1,1,-1
 2008 844 l 1,2,-1
 1828 -4 l 1,3,-1
 1754 -4 l 1,4,-1
 1930 844 l 2,5,6
 1942 902 1942 902 1942 944 c 0,7,8
 1942 1080 1942 1080 1862 1167 c 128,-1,9
 1782 1254 1782 1254 1648 1254 c 0,10,11
 1554 1254 1554 1254 1485 1176 c 128,-1,12
 1416 1098 1416 1098 1416 1004 c 0,13,14
 1416 952 1416 952 1440 910 c 1,15,16
 1476 868 1476 868 1520 844 c 1,17,-1
 1446 844 l 1,18,19
 1352 938 1352 938 1352 1074 c 0,20,21
 1352 1200 1352 1200 1437 1289 c 128,-1,22
 1522 1378 1522 1378 1648 1378 c 0,23,24
 1824 1378 1824 1378 1924 1270 c 0,25,26
 2034 1152 2034 1152 2024 984 c 2,0,-1
1754 766 m 1,27,-1
 1508 766 l 1,28,-1
 1344 -4 l 1,29,-1
 1188 -4 l 1,30,-1
 1356 766 l 1,31,-1
 1098 766 l 1,32,-1
 930 -4 l 1,33,-1
 778 -4 l 1,34,-1
 864 392 l 1,35,-1
 864 444 l 2,36,37
 864 564 864 564 806 658 c 0,38,39
 738 766 738 766 626 766 c 0,40,41
 412 766 412 766 270 656 c 0,42,43
 110 532 110 532 110 328 c 0,44,45
 110 268 110 268 156 204 c 1,46,47
 216 138 216 138 266 126 c 1,48,49
 228 190 228 190 228 272 c 0,50,51
 228 366 228 366 284 434 c 1,52,53
 358 508 358 508 468 508 c 0,54,55
 544 508 544 508 596 440 c 128,-1,56
 648 372 648 372 648 278 c 0,57,58
 648 172 648 172 573 84 c 128,-1,59
 498 -4 498 -4 394 -4 c 0,60,61
 254 -4 254 -4 145 93 c 128,-1,62
 36 190 36 190 36 328 c 0,63,64
 36 562 36 562 218 708 c 0,65,66
 386 844 386 844 626 844 c 0,67,68
 766 844 766 844 857 760 c 128,-1,69
 948 676 948 676 968 536 c 1,70,-1
 1036 844 l 1,71,-1
 1754 844 l 1,72,-1
 1754 766 l 1,27,-1
520 278 m 0,73,74
 520 430 520 430 446 430 c 0,75,76
 384 430 384 430 337 373 c 128,-1,77
 290 316 290 316 290 254 c 0,78,79
 290 214 290 214 310 144 c 1,80,81
 338 98 338 98 368 98 c 0,82,83
 430 98 430 98 475 156 c 128,-1,84
 520 214 520 214 520 278 c 0,73,74
EndSplineSet
Ligature2: "'psts' Post Base Substitutions lookup 8 subtable" tm_lla tm_ikaar
EndChar

StartChar: tm_lll_ikaar
Encoding: 65560 -1 137
Width: 1786
GlyphClass: 2
Flags: W
LayerCount: 2
Fore
SplineSet
1672 986 m 2,0,-1
 1668 916 l 1,1,-1
 1656 844 l 1,2,-1
 1480 -4 l 1,3,-1
 1402 -4 l 1,4,-1
 1582 844 l 2,5,6
 1588 864 1588 864 1590 894 c 2,7,-1
 1592 936 l 2,8,9
 1598 1072 1598 1072 1502 1166 c 0,10,11
 1410 1254 1410 1254 1246 1254 c 0,12,13
 1150 1254 1150 1254 1071 1184 c 128,-1,14
 992 1114 992 1114 992 1020 c 0,15,16
 992 970 992 970 1021 917 c 128,-1,17
 1050 864 1050 864 1094 844 c 1,18,-1
 1016 844 l 1,19,20
 954 914 954 914 944 938 c 0,21,22
 914 1008 914 1008 914 1074 c 0,23,24
 914 1216 914 1216 1026 1300 c 0,25,26
 1128 1378 1128 1378 1274 1378 c 0,27,28
 1464 1378 1464 1378 1568 1270 c 0,29,30
 1682 1152 1682 1152 1672 986 c 2,0,-1
1376 406 m 0,31,32
 1376 268 1376 268 1326 150 c 0,33,34
 1262 -4 1262 -4 1144 -4 c 2,35,-1
 16 -4 l 1,36,-1
 196 844 l 1,37,-1
 352 844 l 1,38,-1
 188 74 l 1,39,-1
 644 74 l 1,40,-1
 762 610 l 2,41,42
 784 706 784 706 853 775 c 128,-1,43
 922 844 922 844 1016 844 c 0,44,45
 1186 844 1186 844 1286 706 c 0,46,47
 1376 582 1376 582 1376 406 c 0,31,32
1042 -234 m 1,48,-1
 762 -234 l 2,49,50
 606 -234 606 -234 606 -414 c 0,51,52
 606 -522 606 -522 472 -578 c 0,53,54
 370 -622 370 -622 246 -622 c 0,55,56
 156 -622 156 -622 42 -560 c 1,57,58
 -86 -470 -86 -470 -86 -364 c 0,59,60
 -86 -264 -86 -264 -22 -210 c 128,-1,61
 42 -156 42 -156 144 -156 c 0,62,63
 206 -156 206 -156 252 -192 c 1,64,65
 300 -244 300 -244 300 -286 c 0,66,67
 300 -316 300 -316 276 -340 c 128,-1,68
 252 -364 252 -364 222 -364 c 0,69,70
 188 -364 188 -364 164 -331 c 128,-1,71
 140 -298 140 -298 140 -264 c 1,72,-1
 144 -234 l 1,73,-1
 108 -228 l 1,74,75
 56 -228 56 -228 24 -264 c 128,-1,76
 -8 -300 -8 -300 -8 -364 c 0,77,78
 -8 -448 -8 -448 80 -500 c 0,79,80
 154 -542 154 -542 246 -542 c 0,81,82
 380 -542 380 -542 446 -450 c 0,83,84
 454 -438 454 -438 520 -276 c 0,85,86
 560 -184 560 -184 632 -184 c 1,87,88
 612 -172 612 -172 612 -162 c 2,89,-1
 610 -106 l 1,90,-1
 632 -4 l 1,91,-1
 786 -4 l 1,92,-1
 766 -110 l 1,93,-1
 770 -148 l 1,94,-1
 786 -156 l 1,95,-1
 1042 -156 l 1,96,-1
 1042 -234 l 1,48,-1
1300 406 m 0,97,98
 1300 544 1300 544 1240 644 c 0,99,100
 1170 766 1170 766 1042 766 c 0,101,102
 946 766 946 766 914 610 c 2,103,-1
 804 74 l 1,104,-1
 1122 74 l 2,105,106
 1224 74 1224 74 1268 198 c 0,107,108
 1300 282 1300 282 1300 406 c 0,97,98
EndSplineSet
Ligature2: "'psts' Post Base Substitutions lookup 8 subtable" tm_llla tm_ikaar
EndChar

StartChar: tm_v_ikaar
Encoding: 65561 -1 138
Width: 2004
GlyphClass: 2
Flags: W
LayerCount: 2
Fore
SplineSet
1886 952 m 2,0,-1
 1884 914 l 1,1,-1
 1876 844 l 1,2,-1
 1696 -4 l 1,3,-1
 1622 -4 l 1,4,-1
 1806 906 l 1,5,6
 1806 1038 1806 1038 1726 1132 c 128,-1,7
 1646 1226 1646 1226 1516 1226 c 0,8,9
 1418 1226 1418 1226 1336 1169 c 128,-1,10
 1254 1112 1254 1112 1234 1020 c 1,11,-1
 1230 982 l 1,12,13
 1230 894 1230 894 1291 830 c 128,-1,14
 1352 766 1352 766 1422 766 c 1,15,-1
 1442 844 l 1,16,-1
 1594 844 l 1,17,-1
 1414 -4 l 1,18,-1
 696 -4 l 1,19,20
 774 64 774 64 838 183 c 128,-1,21
 902 302 902 302 902 406 c 0,22,23
 902 546 902 546 834 648 c 0,24,25
 754 766 754 766 622 766 c 0,26,27
 408 766 408 766 266 656 c 0,28,29
 106 532 106 532 106 328 c 0,30,31
 106 268 106 268 152 204 c 1,32,33
 212 138 212 138 262 126 c 1,34,35
 224 190 224 190 224 272 c 0,36,37
 224 366 224 366 280 434 c 1,38,39
 354 508 354 508 464 508 c 0,40,41
 540 508 540 508 592 440 c 128,-1,42
 644 372 644 372 644 278 c 0,43,44
 644 172 644 172 569 84 c 128,-1,45
 494 -4 494 -4 390 -4 c 0,46,47
 250 -4 250 -4 141 93 c 128,-1,48
 32 190 32 190 32 328 c 0,49,50
 32 564 32 564 212 710 c 0,51,52
 380 844 380 844 622 844 c 0,53,54
 848 844 848 844 958 704 c 0,55,56
 1054 582 1054 582 1054 406 c 0,57,58
 1054 332 1054 332 1004 216 c 0,59,60
 958 110 958 110 902 74 c 1,61,-1
 1274 74 l 1,62,-1
 1406 688 l 1,63,64
 1314 688 1314 688 1234 782 c 0,65,66
 1148 880 1148 880 1154 1002 c 2,67,-1
 1156 1046 l 1,68,69
 1186 1194 1186 1194 1308 1280 c 0,70,71
 1416 1356 1416 1356 1516 1356 c 0,72,73
 1690 1356 1690 1356 1792 1235 c 128,-1,74
 1894 1114 1894 1114 1886 952 c 2,0,-1
516 278 m 0,75,76
 516 430 516 430 442 430 c 0,77,78
 374 430 374 430 330 376 c 128,-1,79
 286 322 286 322 286 254 c 0,80,81
 286 214 286 214 306 144 c 1,82,83
 334 98 334 98 364 98 c 0,84,85
 426 98 426 98 471 156 c 128,-1,86
 516 214 516 214 516 278 c 0,75,76
EndSplineSet
Ligature2: "'psts' Post Base Substitutions lookup 8 subtable" tm_va tm_ikaar
EndChar

StartChar: tm_ss_ikaar
Encoding: 65562 -1 139
Width: 2336
GlyphClass: 2
Flags: W
LayerCount: 2
Fore
SplineSet
2212 952 m 0,0,1
 2212 900 2212 900 2200 844 c 2,2,-1
 2020 -4 l 1,3,-1
 1946 -4 l 1,4,-1
 2126 844 l 2,5,6
 2134 882 2134 882 2134 924 c 0,7,8
 2134 1096 2134 1096 2006 1192 c 0,9,10
 1892 1278 1892 1278 1714 1278 c 0,11,12
 1580 1278 1580 1278 1478 1218 c 0,13,14
 1356 1144 1356 1144 1356 1020 c 0,15,16
 1356 970 1356 970 1385 917 c 128,-1,17
 1414 864 1414 864 1458 844 c 1,18,-1
 1378 844 l 1,19,20
 1332 890 1332 890 1308 938 c 1,21,22
 1278 1014 1278 1014 1278 1074 c 0,23,24
 1278 1210 1278 1210 1444 1314 c 0,25,26
 1592 1406 1592 1406 1738 1406 c 0,27,28
 1940 1406 1940 1406 2076 1272 c 128,-1,29
 2212 1138 2212 1138 2212 952 c 0,0,1
1946 618 m 1,30,-1
 1816 -4 l 1,31,-1
 1488 -4 l 1,32,-1
 1378 -492 l 1,33,-1
 1226 -492 l 1,34,-1
 1332 -4 l 1,35,-1
 688 -4 l 1,36,37
 728 36 728 36 768 88 c 0,38,39
 816 150 816 150 830 182 c 1,40,41
 894 280 894 280 894 406 c 0,42,43
 894 584 894 584 800 680 c 0,44,45
 716 766 716 766 610 766 c 0,46,47
 400 766 400 766 256 654 c 0,48,49
 98 534 98 534 98 328 c 0,50,51
 98 268 98 268 144 204 c 1,52,53
 204 138 204 138 254 126 c 1,54,55
 214 192 214 192 214 274 c 0,56,57
 214 368 214 368 270 436 c 1,58,59
 346 508 346 508 458 508 c 0,60,61
 532 508 532 508 584 440 c 128,-1,62
 636 372 636 372 636 278 c 0,63,64
 636 174 636 174 560 88 c 0,65,66
 480 -4 480 -4 378 -4 c 0,67,68
 236 -4 236 -4 128 92 c 128,-1,69
 20 188 20 188 20 328 c 0,70,71
 20 562 20 562 202 708 c 0,72,73
 370 844 370 844 610 844 c 0,74,75
 812 844 812 844 929 726 c 128,-1,76
 1046 608 1046 608 1046 406 c 0,77,78
 1046 336 1046 336 998 226 c 0,79,80
 948 110 948 110 894 74 c 1,81,-1
 1352 74 l 1,82,-1
 1406 312 l 1,83,84
 1312 336 1312 336 1262 396 c 0,85,86
 1200 468 1200 468 1200 586 c 0,87,88
 1200 682 1200 682 1254 758 c 0,89,90
 1312 844 1312 844 1406 844 c 256,91,92
 1500 844 1500 844 1562 808 c 0,93,94
 1640 764 1640 764 1640 676 c 2,95,-1
 1640 658 l 1,96,-1
 1636 636 l 1,97,-1
 1578 390 l 1,98,-1
 1688 420 l 1,99,100
 1756 448 1756 448 1782 466 c 0,101,102
 1878 530 1878 530 1946 618 c 1,30,-1
1490 682 m 1,103,104
 1490 766 1490 766 1406 766 c 0,105,106
 1278 766 1278 766 1278 586 c 0,107,108
 1278 488 1278 488 1312 445 c 128,-1,109
 1346 402 1346 402 1422 390 c 1,110,-1
 1484 636 l 1,111,-1
 1490 682 l 1,103,104
1734 348 m 1,112,-1
 1686 328 l 1,113,-1
 1636 310 l 1,114,115
 1606 304 1606 304 1554 304 c 1,116,-1
 1504 74 l 1,117,-1
 1680 74 l 1,118,-1
 1734 348 l 1,112,-1
508 278 m 0,119,120
 508 430 508 430 430 430 c 0,121,122
 362 430 362 430 320 377 c 128,-1,123
 278 324 278 324 278 254 c 0,124,125
 278 214 278 214 298 144 c 1,126,127
 326 98 326 98 356 98 c 0,128,129
 428 98 428 98 472 160 c 1,130,131
 508 224 508 224 508 278 c 0,119,120
EndSplineSet
Ligature2: "'psts' Post Base Substitutions lookup 8 subtable" tm_ssa tm_ikaar
EndChar

StartChar: tm_s_ikaar
Encoding: 65563 -1 140
Width: 2272
GlyphClass: 2
Flags: W
LayerCount: 2
Fore
SplineSet
2144 954 m 0,0,1
 2144 902 2144 902 2132 844 c 2,2,-1
 1954 -4 l 1,3,-1
 1876 -4 l 1,4,-1
 2060 902 l 1,5,6
 2060 1014 2060 1014 1988 1116 c 0,7,8
 1908 1226 1908 1226 1800 1226 c 0,9,10
 1706 1226 1706 1226 1628 1172 c 0,11,12
 1542 1112 1542 1112 1542 1020 c 0,13,14
 1542 918 1542 918 1582 838 c 0,15,16
 1634 738 1634 738 1726 738 c 1,17,-1
 1700 766 l 1,18,-1
 1672 790 l 2,19,20
 1646 812 1646 812 1646 838 c 1,21,22
 1662 910 1662 910 1714 908 c 0,23,24
 1740 906 1740 906 1746 894 c 1,25,26
 1802 838 1802 838 1836 750 c 0,27,28
 1876 646 1876 646 1876 484 c 0,29,30
 1876 278 1876 278 1764 142 c 0,31,32
 1644 -4 1644 -4 1442 -4 c 0,33,34
 1330 -4 1330 -4 1280 52 c 0,35,36
 1224 114 1224 114 1230 220 c 2,37,-1
 1234 290 l 1,38,-1
 1246 370 l 1,39,-1
 1286 558 l 1,40,41
 1300 596 1300 596 1300 616 c 2,42,-1
 1302 668 l 2,43,44
 1306 766 1306 766 1234 766 c 0,45,46
 1156 766 1156 766 1104 702 c 0,47,48
 1062 650 1062 650 1032 508 c 2,49,-1
 926 -4 l 1,50,-1
 774 -4 l 1,51,-1
 852 356 l 1,52,-1
 858 432 l 2,53,54
 868 550 868 550 799 658 c 128,-1,55
 730 766 730 766 622 766 c 0,56,57
 408 766 408 766 266 656 c 0,58,59
 106 532 106 532 106 328 c 0,60,61
 106 268 106 268 152 204 c 1,62,63
 212 138 212 138 262 126 c 1,64,65
 224 190 224 190 224 272 c 0,66,67
 224 366 224 366 280 434 c 1,68,69
 354 508 354 508 464 508 c 0,70,71
 540 508 540 508 592 440 c 128,-1,72
 644 372 644 372 644 278 c 0,73,74
 644 172 644 172 569 84 c 128,-1,75
 494 -4 494 -4 390 -4 c 0,76,77
 250 -4 250 -4 141 93 c 128,-1,78
 32 190 32 190 32 328 c 0,79,80
 32 564 32 564 212 710 c 0,81,82
 380 844 380 844 622 844 c 0,83,84
 762 844 762 844 853 760 c 128,-1,85
 944 676 944 676 964 536 c 1,86,87
 1000 680 1000 680 1056 750 c 0,88,89
 1132 844 1132 844 1262 844 c 0,90,91
 1442 844 1442 844 1442 586 c 1,92,-1
 1386 346 l 2,93,94
 1362 244 1362 244 1362 196 c 0,95,96
 1362 142 1362 142 1384 110 c 1,97,98
 1420 80 1420 80 1464 74 c 1,99,100
 1624 74 1624 74 1720 208 c 0,101,102
 1806 326 1806 326 1806 492 c 0,103,104
 1806 590 1806 590 1762 688 c 1,105,106
 1632 688 1632 688 1548 788 c 128,-1,107
 1464 888 1464 888 1464 1020 c 0,108,109
 1464 1146 1464 1146 1569 1251 c 128,-1,110
 1674 1356 1674 1356 1800 1356 c 0,111,112
 1962 1356 1962 1356 2058 1232 c 0,113,114
 2144 1120 2144 1120 2144 954 c 0,0,1
516 278 m 0,115,116
 516 430 516 430 442 430 c 0,117,118
 374 430 374 430 330 376 c 128,-1,119
 286 322 286 322 286 254 c 0,120,121
 286 214 286 214 306 144 c 1,122,123
 334 98 334 98 364 98 c 0,124,125
 426 98 426 98 471 156 c 128,-1,126
 516 214 516 214 516 278 c 0,115,116
EndSplineSet
Ligature2: "'psts' Post Base Substitutions lookup 8 subtable" tm_sa tm_ikaar
EndChar

StartChar: tm_h_ikaar
Encoding: 65564 -1 141
Width: 2754
GlyphClass: 2
Flags: W
LayerCount: 2
Fore
SplineSet
2596 980 m 2,0,-1
 2592 910 l 1,1,-1
 2582 844 l 1,2,-1
 2402 -4 l 1,3,-1
 2324 -4 l 1,4,-1
 2504 844 l 2,5,6
 2510 864 2510 864 2512 894 c 2,7,-1
 2514 936 l 2,8,9
 2520 1072 2520 1072 2426 1166 c 0,10,11
 2336 1254 2336 1254 2172 1254 c 0,12,13
 2074 1254 2074 1254 1994 1185 c 128,-1,14
 1914 1116 1914 1116 1914 1020 c 0,15,16
 1914 970 1914 970 1943 917 c 128,-1,17
 1972 864 1972 864 2016 844 c 1,18,-1
 1942 844 l 1,19,20
 1884 906 1884 906 1868 938 c 0,21,22
 1836 1000 1836 1000 1836 1074 c 0,23,24
 1836 1216 1836 1216 1948 1300 c 0,25,26
 2050 1378 2050 1378 2196 1378 c 0,27,28
 2388 1378 2388 1378 2492 1270 c 0,29,30
 2606 1152 2606 1152 2596 980 c 2,0,-1
2274 458 m 0,31,32
 2274 186 2274 186 2118 -16 c 0,33,34
 1948 -234 1948 -234 1684 -234 c 2,35,-1
 196 -234 l 2,36,37
 94 -234 94 -234 94 -336 c 1,38,39
 140 -360 140 -360 140 -402 c 1,40,41
 132 -436 132 -436 114 -450 c 128,-1,42
 96 -464 96 -464 70 -464 c 0,43,44
 -36 -464 -36 -464 -36 -336 c 0,45,46
 -36 -274 -36 -274 31 -215 c 128,-1,47
 98 -156 98 -156 196 -156 c 2,48,-1
 1656 -156 l 2,49,50
 1874 -156 1874 -156 2006 46 c 0,51,52
 2122 224 2122 224 2122 458 c 0,53,54
 2122 624 2122 624 2081 695 c 128,-1,55
 2040 766 2040 766 1964 766 c 256,56,57
 1888 766 1888 766 1834 718 c 1,58,59
 1778 656 1778 656 1762 582 c 2,60,-1
 1632 -4 l 1,61,-1
 1484 -4 l 1,62,-1
 1614 648 l 1,63,64
 1614 766 1614 766 1504 766 c 0,65,66
 1468 766 1468 766 1437 744 c 128,-1,67
 1406 722 1406 722 1398 688 c 2,68,-1
 1254 -4 l 1,69,-1
 684 -4 l 1,70,71
 724 36 724 36 764 88 c 0,72,73
 812 150 812 150 826 182 c 1,74,75
 890 280 890 280 890 406 c 0,76,77
 890 584 890 584 796 680 c 0,78,79
 712 766 712 766 606 766 c 0,80,81
 396 766 396 766 252 654 c 0,82,83
 94 534 94 534 94 328 c 0,84,85
 94 268 94 268 140 204 c 1,86,87
 198 138 198 138 246 126 c 1,88,89
 230 152 230 152 220 184 c 0,90,91
 206 228 206 228 210 270 c 2,92,-1
 214 316 l 1,93,-1
 224 362 l 1,94,95
 286 508 286 508 454 508 c 0,96,97
 528 508 528 508 580 440 c 128,-1,98
 632 372 632 372 632 278 c 0,99,100
 632 176 632 176 554 86 c 128,-1,101
 476 -4 476 -4 376 -4 c 0,102,103
 232 -4 232 -4 124 91 c 128,-1,104
 16 186 16 186 16 328 c 0,105,106
 16 562 16 562 198 708 c 0,107,108
 366 844 366 844 606 844 c 0,109,110
 808 844 808 844 925 726 c 128,-1,111
 1042 608 1042 608 1042 406 c 0,112,113
 1042 336 1042 336 994 226 c 0,114,115
 944 110 944 110 890 74 c 1,116,-1
 1192 74 l 1,117,-1
 1328 688 l 2,118,119
 1344 758 1344 758 1400 798 c 128,-1,120
 1456 838 1456 838 1528 838 c 0,121,122
 1696 838 1696 838 1734 688 c 1,123,124
 1764 752 1764 752 1830 798 c 128,-1,125
 1896 844 1896 844 1964 844 c 0,126,127
 2274 844 2274 844 2274 458 c 0,31,32
504 278 m 0,128,129
 504 430 504 430 426 430 c 0,130,131
 358 430 358 430 316 377 c 128,-1,132
 274 324 274 324 274 254 c 0,133,134
 274 214 274 214 294 144 c 1,135,136
 322 98 322 98 352 98 c 0,137,138
 424 98 424 98 468 160 c 1,139,140
 504 224 504 224 504 278 c 0,128,129
EndSplineSet
Ligature2: "'psts' Post Base Substitutions lookup 8 subtable" tm_ha tm_ikaar
EndChar

StartChar: tm_k_iikaar
Encoding: 65565 -1 142
Width: 1304
GlyphClass: 2
Flags: W
LayerCount: 2
Fore
SplineSet
1208 1126 m 0,0,1
 1208 946 1208 946 1028 946 c 0,2,3
 928 946 928 946 874 1010 c 128,-1,4
 820 1074 820 1074 820 1176 c 0,5,6
 820 1200 820 1200 832 1242 c 1,7,8
 856 1294 856 1294 872 1304 c 1,9,10
 818 1316 818 1316 764 1316 c 0,11,12
 574 1316 574 1316 398 1176 c 0,13,14
 208 1028 208 1028 208 844 c 0,15,16
 208 738 208 738 232 654 c 1,17,18
 268 560 268 560 312 516 c 1,19,-1
 382 844 l 1,20,-1
 1184 844 l 1,21,-1
 1184 766 l 1,22,-1
 860 766 l 1,23,-1
 800 484 l 1,24,-1
 848 484 l 2,25,26
 964 484 964 484 1052 428 c 0,27,28
 1152 364 1152 364 1152 254 c 0,29,30
 1152 146 1152 146 1067 71 c 128,-1,31
 982 -4 982 -4 872 -4 c 1,32,-1
 820 74 l 1,33,34
 898 74 898 74 949 125 c 128,-1,35
 1000 176 1000 176 1000 254 c 0,36,37
 1000 406 1000 406 820 406 c 2,38,-1
 786 406 l 1,39,-1
 770 328 l 2,40,41
 736 158 736 158 646 80 c 0,42,43
 552 -4 552 -4 382 -4 c 0,44,45
 236 -4 236 -4 144 52 c 0,46,47
 28 118 28 118 28 254 c 0,48,49
 28 354 28 354 93 419 c 128,-1,50
 158 484 158 484 258 484 c 1,51,52
 200 536 200 536 162 652 c 0,53,54
 128 754 128 754 128 844 c 0,55,56
 128 1080 128 1080 348 1236 c 0,57,58
 548 1378 548 1378 792 1378 c 0,59,60
 990 1378 990 1378 1110 1304 c 1,61,62
 1208 1226 1208 1226 1208 1126 c 0,0,1
1078 1126 m 0,63,64
 1078 1186 1078 1186 1044 1242 c 0,65,66
 1006 1306 1006 1306 950 1304 c 0,67,68
 898 1302 898 1302 898 1176 c 0,69,70
 898 1130 898 1130 926 1080 c 0,71,72
 958 1020 958 1020 1000 1020 c 0,73,74
 1078 1020 1078 1020 1078 1126 c 0,63,64
708 766 m 1,75,-1
 450 766 l 1,76,-1
 390 484 l 1,77,-1
 644 484 l 1,78,-1
 708 766 l 1,75,-1
632 406 m 1,79,-1
 258 406 l 2,80,81
 190 406 190 406 146 364 c 128,-1,82
 102 322 102 322 102 254 c 0,83,84
 102 156 102 156 196 108 c 0,85,86
 262 74 262 74 382 74 c 0,87,88
 484 74 484 74 544 146 c 0,89,90
 596 210 596 210 618 328 c 2,91,-1
 632 406 l 1,79,-1
EndSplineSet
Ligature2: "'abvs' Above Base Substitutions lookup 6 subtable" tm_ka tm_iikaar
EndChar

StartChar: tm_ng_iikaar
Encoding: 65566 -1 143
Width: 1580
GlyphClass: 2
Flags: W
LayerCount: 2
Fore
SplineSet
1632 1126 m 0,0,1
 1632 1036 1632 1036 1588 980 c 0,2,3
 1542 918 1542 918 1454 918 c 0,4,5
 1372 918 1372 918 1322 974 c 1,6,7
 1274 1044 1274 1044 1274 1110 c 1,8,-1
 1288 1186 l 1,9,10
 1306 1228 1306 1228 1324 1254 c 1,11,12
 1136 1254 1136 1254 1094 1020 c 1,13,14
 1094 908 1094 908 1151 837 c 128,-1,15
 1208 766 1208 766 1282 766 c 1,16,-1
 1300 844 l 1,17,-1
 1454 844 l 1,18,-1
 1274 -4 l 1,19,-1
 352 -4 l 1,20,-1
 352 74 l 1,21,-1
 656 74 l 1,22,23
 732 106 732 106 764 154 c 0,24,25
 812 224 812 224 812 278 c 0,26,27
 812 430 812 430 710 430 c 0,28,29
 634 430 634 430 594 382 c 1,30,-1
 558 226 l 1,31,-1
 406 226 l 1,32,-1
 516 766 l 1,33,-1
 262 766 l 1,34,-1
 98 -4 l 1,35,-1
 20 -4 l 1,36,-1
 196 844 l 1,37,-1
 996 844 l 1,38,-1
 996 766 l 1,39,-1
 672 766 l 1,40,-1
 606 480 l 1,41,42
 672 534 672 534 738 534 c 0,43,44
 836 534 836 534 900 456 c 128,-1,45
 964 378 964 378 964 278 c 0,46,47
 964 222 964 222 925 159 c 128,-1,48
 886 96 886 96 836 74 c 1,49,-1
 1132 74 l 1,50,-1
 1266 688 l 1,51,52
 1170 688 1170 688 1092 786 c 0,53,54
 1008 888 1008 888 1014 1002 c 2,55,-1
 1016 1046 l 1,56,57
 1046 1178 1046 1178 1130 1262 c 0,58,59
 1224 1356 1224 1356 1352 1356 c 0,60,61
 1458 1356 1458 1356 1542 1296 c 0,62,63
 1632 1228 1632 1228 1632 1126 c 0,0,1
1526 1118 m 0,64,65
 1526 1164 1526 1164 1500 1206 c 0,66,67
 1468 1254 1468 1254 1426 1254 c 0,68,69
 1352 1254 1352 1254 1352 1098 c 0,70,71
 1352 1066 1352 1066 1374 1033 c 128,-1,72
 1396 1000 1396 1000 1426 996 c 1,73,74
 1478 996 1478 996 1502 1030 c 1,75,76
 1526 1078 1526 1078 1526 1118 c 0,64,65
EndSplineSet
Ligature2: "'abvs' Above Base Substitutions lookup 6 subtable" tm_nga tm_iikaar
EndChar

StartChar: tm_c_iikaar
Encoding: 65567 -1 144
Width: 1304
GlyphClass: 2
Flags: W
LayerCount: 2
Fore
SplineSet
1200 1126 m 0,0,1
 1200 946 1200 946 1020 946 c 0,2,3
 922 946 922 946 868 1014 c 0,4,5
 816 1076 816 1076 816 1176 c 0,6,7
 816 1200 816 1200 828 1242 c 1,8,9
 852 1294 852 1294 868 1304 c 1,10,11
 814 1316 814 1316 760 1316 c 0,12,13
 566 1316 566 1316 390 1178 c 0,14,15
 200 1032 200 1032 200 844 c 0,16,17
 200 624 200 624 308 516 c 1,18,-1
 378 844 l 1,19,-1
 1180 844 l 1,20,-1
 1180 766 l 1,21,-1
 856 766 l 1,22,-1
 792 484 l 1,23,-1
 1098 484 l 1,24,-1
 1098 406 l 1,25,-1
 782 406 l 1,26,-1
 766 328 l 2,27,28
 732 158 732 158 642 80 c 0,29,30
 548 -4 548 -4 378 -4 c 0,31,32
 234 -4 234 -4 138 52 c 0,33,34
 20 120 20 120 20 254 c 0,35,36
 20 354 20 354 87 419 c 128,-1,37
 154 484 154 484 254 484 c 1,38,39
 200 534 200 534 160 634 c 0,40,41
 142 680 142 680 132 744 c 0,42,43
 126 782 126 782 126 800 c 2,44,-1
 126 844 l 2,45,46
 126 1080 126 1080 346 1236 c 0,47,48
 546 1378 546 1378 790 1378 c 0,49,50
 984 1378 984 1378 1104 1304 c 1,51,52
 1200 1226 1200 1226 1200 1126 c 0,0,1
1074 1126 m 1,53,-1
 1064 1186 l 1,54,-1
 1036 1244 l 1,55,56
 994 1306 994 1306 946 1304 c 0,57,58
 894 1302 894 1302 894 1176 c 0,59,60
 894 1130 894 1130 922 1080 c 0,61,62
 954 1020 954 1020 996 1020 c 0,63,64
 1074 1020 1074 1020 1074 1126 c 1,53,-1
700 766 m 1,65,-1
 446 766 l 1,66,-1
 382 484 l 1,67,-1
 640 484 l 1,68,-1
 700 766 l 1,65,-1
628 406 m 1,69,-1
 254 406 l 2,70,71
 186 406 186 406 142 364 c 128,-1,72
 98 322 98 322 98 254 c 0,73,74
 98 156 98 156 192 108 c 0,75,76
 258 74 258 74 378 74 c 0,77,78
 480 74 480 74 538 146 c 1,79,80
 584 214 584 214 610 328 c 2,81,-1
 628 406 l 1,69,-1
EndSplineSet
Ligature2: "'abvs' Above Base Substitutions lookup 6 subtable" tm_ca tm_iikaar
EndChar

StartChar: tm_j_iikaar
Encoding: 65568 -1 145
Width: 1694
GlyphClass: 2
Flags: W
LayerCount: 2
Fore
SplineSet
1636 1200 m 0,0,1
 1636 1118 1636 1118 1590 1058 c 0,2,3
 1540 992 1540 992 1460 992 c 0,4,5
 1362 992 1362 992 1320 1034 c 1,6,7
 1278 1092 1278 1092 1278 1176 c 1,8,-1
 1284 1218 l 1,9,-1
 1294 1260 l 1,10,11
 1322 1322 1322 1322 1328 1328 c 1,12,13
 1232 1328 1232 1328 1165 1261 c 128,-1,14
 1098 1194 1098 1194 1098 1098 c 0,15,16
 1098 1026 1098 1026 1146 954 c 0,17,18
 1188 886 1188 886 1254 844 c 1,19,-1
 1176 844 l 1,20,21
 1020 952 1020 952 1020 1098 c 0,22,23
 1020 1216 1020 1216 1123 1314 c 128,-1,24
 1226 1412 1226 1412 1328 1406 c 2,25,-1
 1396 1402 l 1,26,-1
 1452 1392 l 2,27,28
 1494 1384 1494 1384 1548 1350 c 0,29,30
 1636 1294 1636 1294 1636 1200 c 0,0,1
1508 484 m 0,31,32
 1508 262 1508 262 1376 141 c 128,-1,33
 1244 20 1244 20 1020 20 c 2,34,-1
 356 20 l 2,35,36
 74 20 74 20 74 -262 c 0,37,38
 74 -366 74 -366 124 -444 c 1,39,40
 184 -516 184 -516 254 -516 c 0,41,42
 384 -516 384 -516 492 -402 c 2,43,-1
 690 -194 l 1,44,45
 820 -82 820 -82 996 -82 c 0,46,47
 1128 -82 1128 -82 1220 -142 c 0,48,49
 1328 -212 1328 -212 1328 -336 c 0,50,51
 1328 -448 1328 -448 1230 -522 c 0,52,53
 1124 -598 1124 -598 1020 -594 c 2,54,-1
 974 -592 l 1,55,-1
 900 -584 l 1,56,57
 844 -572 844 -572 816 -542 c 0,58,59
 806 -532 806 -532 806 -510 c 1,60,-1
 814 -476 l 1,61,62
 822 -460 822 -460 834 -460 c 1,63,-1
 844 -464 l 1,64,65
 896 -516 896 -516 976 -516 c 0,66,67
 1054 -516 1054 -516 1116 -466 c 1,68,69
 1176 -402 1176 -402 1176 -336 c 0,70,71
 1176 -252 1176 -252 1130 -204 c 128,-1,72
 1084 -156 1084 -156 996 -156 c 0,73,74
 828 -156 828 -156 722 -270 c 2,75,-1
 524 -482 l 2,76,77
 420 -594 420 -594 254 -594 c 0,78,79
 122 -594 122 -594 20 -494 c 128,-1,80
 -82 -394 -82 -394 -82 -262 c 0,81,82
 -82 -100 -82 -100 44 2 c 0,83,84
 162 98 162 98 328 98 c 2,85,-1
 996 98 l 2,86,87
 1356 98 1356 98 1356 484 c 0,88,89
 1356 594 1356 594 1324 668 c 1,90,91
 1284 738 1284 738 1200 738 c 0,92,93
 1154 738 1154 738 1112 708 c 1,94,-1
 1064 664 l 1,95,96
 1006 596 1006 596 996 536 c 2,97,-1
 946 226 l 1,98,-1
 790 226 l 1,99,-1
 844 536 l 1,100,101
 844 632 844 632 748 702 c 0,102,103
 658 766 658 766 558 766 c 0,104,105
 416 766 416 766 316 698 c 0,106,107
 200 620 200 620 200 484 c 0,108,109
 200 402 200 402 247 353 c 128,-1,110
 294 304 294 304 356 304 c 1,111,112
 304 346 304 346 304 458 c 0,113,114
 304 532 304 532 361 583 c 128,-1,115
 418 634 418 634 492 634 c 0,116,117
 560 634 560 634 612 586 c 128,-1,118
 664 538 664 538 664 458 c 0,119,120
 664 348 664 348 597 287 c 128,-1,121
 530 226 530 226 418 226 c 0,122,123
 298 226 298 226 216 294 c 0,124,125
 126 366 126 366 126 484 c 0,126,127
 126 648 126 648 262 748 c 0,128,129
 388 840 388 840 556 840 c 0,130,131
 682 840 682 840 786 782 c 0,132,133
 902 720 902 720 946 610 c 1,134,135
 994 746 994 746 1094 804 c 0,136,137
 1164 844 1164 844 1254 844 c 0,138,139
 1372 844 1372 844 1446 718 c 0,140,141
 1508 610 1508 610 1508 484 c 0,31,32
1512 1190 m 0,142,143
 1512 1304 1512 1304 1430 1304 c 0,144,145
 1352 1304 1352 1304 1352 1194 c 1,146,-1
 1358 1148 l 1,147,-1
 1372 1108 l 1,148,149
 1394 1074 1394 1074 1430 1074 c 0,150,151
 1472 1074 1472 1074 1492 1108 c 128,-1,152
 1512 1142 1512 1142 1512 1190 c 0,142,143
558 460 m 0,153,154
 558 496 558 496 538 527 c 128,-1,155
 518 558 518 558 484 558 c 0,156,157
 448 558 448 558 413 526 c 128,-1,158
 378 494 378 494 378 458 c 0,159,160
 378 402 378 402 406 352 c 1,161,162
 446 304 446 304 458 304 c 0,163,164
 510 304 510 304 536 360 c 0,165,166
 558 404 558 404 558 460 c 0,153,154
EndSplineSet
Ligature2: "'abvs' Above Base Substitutions lookup 6 subtable" tm_ja tm_iikaar
EndChar

StartChar: tm_ny_iikaar
Encoding: 65569 -1 146
Width: 2046
GlyphClass: 2
Flags: W
LayerCount: 2
Fore
SplineSet
1950 1200 m 0,0,1
 1950 1118 1950 1118 1904 1058 c 0,2,3
 1854 992 1854 992 1774 992 c 0,4,5
 1674 992 1674 992 1632 1034 c 1,6,7
 1590 1092 1590 1092 1590 1176 c 1,8,9
 1596 1220 1596 1220 1610 1262 c 1,10,-1
 1640 1328 l 1,11,12
 1544 1328 1544 1328 1477 1261 c 128,-1,13
 1410 1194 1410 1194 1410 1098 c 0,14,15
 1410 1026 1410 1026 1456 956 c 1,16,17
 1512 886 1512 886 1562 844 c 1,18,-1
 1488 844 l 1,19,20
 1332 952 1332 952 1332 1098 c 0,21,22
 1332 1212 1332 1212 1429 1309 c 128,-1,23
 1526 1406 1526 1406 1640 1406 c 256,24,25
 1754 1406 1754 1406 1842 1360 c 0,26,27
 1950 1304 1950 1304 1950 1200 c 0,0,1
1872 176 m 0,28,29
 1872 -166 1872 -166 1574 -380 c 0,30,31
 1306 -570 1306 -570 950 -570 c 0,32,33
 574 -570 574 -570 314 -360 c 0,34,35
 28 -128 28 -128 28 254 c 0,36,37
 28 420 28 420 78 566 c 0,38,39
 140 742 140 742 258 816 c 0,40,41
 284 832 284 832 312 832 c 0,42,43
 360 832 360 832 360 800 c 1,44,45
 348 778 348 778 332 766 c 0,46,47
 206 694 206 694 148 548 c 0,48,49
 102 432 102 432 102 254 c 0,50,51
 102 -84 102 -84 362 -294 c 0,52,53
 604 -492 604 -492 950 -492 c 0,54,55
 1240 -492 1240 -492 1472 -306 c 0,56,57
 1718 -108 1718 -108 1718 176 c 0,58,59
 1718 414 1718 414 1610 414 c 0,60,61
 1514 414 1514 414 1464 376 c 1,62,-1
 1382 -4 l 1,63,-1
 1230 -4 l 1,64,-1
 1398 766 l 1,65,-1
 950 766 l 2,66,67
 734 766 734 766 596 656 c 0,68,69
 438 530 438 530 438 328 c 1,70,71
 442 288 442 288 448 268 c 1,72,-1
 482 204 l 1,73,74
 530 142 530 142 590 126 c 1,75,76
 552 190 552 190 552 272 c 0,77,78
 552 366 552 366 608 434 c 1,79,80
 682 508 682 508 792 508 c 0,81,82
 868 508 868 508 920 440 c 128,-1,83
 972 372 972 372 972 278 c 0,84,85
 972 176 972 176 895 86 c 128,-1,86
 818 -4 818 -4 718 -4 c 0,87,88
 578 -4 578 -4 469 93 c 128,-1,89
 360 190 360 190 360 328 c 0,90,91
 360 562 360 562 542 708 c 0,92,93
 710 844 710 844 950 844 c 2,94,-1
 1792 844 l 1,95,-1
 1792 766 l 1,96,-1
 1550 766 l 1,97,-1
 1484 458 l 1,98,99
 1522 508 1522 508 1618 508 c 0,100,101
 1738 508 1738 508 1810 398 c 0,102,103
 1872 304 1872 304 1872 176 c 0,28,29
1824 1190 m 0,104,105
 1824 1304 1824 1304 1742 1304 c 0,106,107
 1664 1304 1664 1304 1664 1194 c 1,108,-1
 1670 1148 l 1,109,-1
 1684 1108 l 1,110,111
 1706 1074 1706 1074 1742 1074 c 0,112,113
 1784 1074 1784 1074 1804 1108 c 128,-1,114
 1824 1142 1824 1142 1824 1190 c 0,104,105
848 278 m 0,115,116
 848 430 848 430 770 430 c 0,117,118
 702 430 702 430 660 377 c 128,-1,119
 618 324 618 324 618 254 c 0,120,121
 618 98 618 98 692 98 c 0,122,123
 760 98 760 98 804 154 c 128,-1,124
 848 210 848 210 848 278 c 0,115,116
EndSplineSet
Ligature2: "'abvs' Above Base Substitutions lookup 6 subtable" tm_nya tm_iikaar
EndChar

StartChar: tm_tt_iikaar
Encoding: 65570 -1 147
Width: 1828
GlyphClass: 2
Flags: W
LayerCount: 2
Fore
SplineSet
1684 -4 m 1,0,-1
 16 -4 l 1,1,-1
 196 844 l 1,2,-1
 352 844 l 1,3,-1
 188 74 l 1,4,-1
 812 74 l 1,5,6
 714 124 714 124 652 210 c 0,7,8
 582 304 582 304 582 406 c 0,9,10
 582 600 582 600 714 722 c 128,-1,11
 846 844 846 844 1042 844 c 0,12,13
 1156 844 1156 844 1262 758 c 0,14,15
 1376 668 1376 668 1376 558 c 0,16,17
 1376 462 1376 462 1307 383 c 128,-1,18
 1238 304 1238 304 1144 304 c 0,19,20
 1048 304 1048 304 980 362 c 1,21,22
 914 432 914 432 914 508 c 0,23,24
 914 652 914 652 1042 738 c 1,25,-1
 982 744 l 1,26,27
 850 744 850 744 753 642 c 128,-1,28
 656 540 656 540 656 406 c 0,29,30
 656 302 656 302 736 204 c 0,31,32
 810 116 810 116 914 74 c 1,33,-1
 1684 74 l 1,34,-1
 1684 -4 l 1,0,-1
1222 536 m 256,35,36
 1222 590 1222 590 1185 639 c 128,-1,37
 1148 688 1148 688 1094 688 c 0,38,39
 1048 688 1048 688 1016 618 c 0,40,41
 992 562 992 562 992 508 c 0,42,43
 992 452 992 452 1030 414 c 1,44,45
 1076 378 1076 378 1122 378 c 0,46,47
 1172 378 1172 378 1200 436 c 0,48,49
 1222 482 1222 482 1222 536 c 256,35,36
EndSplineSet
Ligature2: "'abvs' Above Base Substitutions lookup 5 subtable" tm_tta tm_iikaar
EndChar

StartChar: tm_nn_iikaar
Encoding: 65571 -1 148
Width: 2738
GlyphClass: 2
Flags: W
LayerCount: 2
Fore
SplineSet
2722 1200 m 0,0,1
 2722 1118 2722 1118 2676 1058 c 0,2,3
 2626 992 2626 992 2546 992 c 0,4,5
 2448 992 2448 992 2406 1034 c 1,6,7
 2364 1092 2364 1092 2364 1176 c 1,8,-1
 2370 1218 l 1,9,-1
 2380 1260 l 1,10,11
 2408 1322 2408 1322 2414 1328 c 1,12,13
 2318 1328 2318 1328 2251 1261 c 128,-1,14
 2184 1194 2184 1194 2184 1098 c 0,15,16
 2184 1026 2184 1026 2230 956 c 1,17,18
 2286 886 2286 886 2336 844 c 1,19,-1
 2262 844 l 1,20,21
 2106 952 2106 952 2106 1098 c 0,22,23
 2106 1216 2106 1216 2209 1314 c 128,-1,24
 2312 1412 2312 1412 2414 1406 c 2,25,-1
 2482 1402 l 1,26,-1
 2538 1392 l 2,27,28
 2580 1384 2580 1384 2634 1350 c 0,29,30
 2722 1294 2722 1294 2722 1200 c 0,0,1
2570 766 m 1,31,-1
 2348 766 l 1,32,-1
 2184 -4 l 1,33,-1
 2032 -4 l 1,34,-1
 2192 766 l 1,35,-1
 2004 766 l 2,36,37
 1884 766 1884 766 1738 688 c 1,38,39
 1902 554 1902 554 1902 328 c 0,40,41
 1902 192 1902 192 1854 104 c 1,42,43
 1782 -4 1782 -4 1672 -4 c 0,44,45
 1442 -4 1442 -4 1442 328 c 0,46,47
 1442 386 1442 386 1454 420 c 2,48,-1
 1486 512 l 1,49,50
 1530 602 1530 602 1606 672 c 1,51,52
 1482 756 1482 756 1362 756 c 0,53,54
 1302 756 1302 756 1242 738 c 1,55,-1
 1126 688 l 1,56,57
 1286 552 1286 552 1286 328 c 0,58,59
 1286 180 1286 180 1238 104 c 0,60,61
 1170 -4 1170 -4 1054 -4 c 0,62,63
 824 -4 824 -4 824 328 c 0,64,65
 824 372 824 372 836 420 c 1,66,-1
 868 510 l 1,67,68
 940 628 940 628 992 672 c 1,69,70
 872 754 872 754 770 762 c 0,71,72
 752 766 752 766 722 766 c 2,73,-1
 672 766 l 2,74,75
 436 766 436 766 282 662 c 0,76,77
 106 544 106 544 106 328 c 0,78,79
 106 268 106 268 152 204 c 1,80,81
 212 138 212 138 262 126 c 1,82,83
 224 190 224 190 224 272 c 0,84,85
 224 366 224 366 280 434 c 1,86,87
 354 508 354 508 464 508 c 0,88,89
 540 508 540 508 592 440 c 128,-1,90
 644 372 644 372 644 278 c 0,91,92
 644 172 644 172 569 84 c 128,-1,93
 494 -4 494 -4 390 -4 c 0,94,95
 250 -4 250 -4 141 93 c 128,-1,96
 32 190 32 190 32 328 c 0,97,98
 32 572 32 572 237 718 c 128,-1,99
 442 864 442 864 676 846 c 2,100,-1
 786 838 l 1,101,-1
 896 814 l 2,102,103
 994 792 994 792 1074 734 c 1,104,105
 1228 836 1228 836 1372 836 c 1,106,-1
 1448 828 l 1,107,-1
 1530 810 l 1,108,-1
 1614 776 l 1,109,-1
 1688 734 l 1,110,111
 1826 844 1826 844 2004 844 c 2,112,-1
 2570 844 l 1,113,-1
 2570 766 l 1,31,-1
2598 1190 m 0,114,115
 2598 1304 2598 1304 2516 1304 c 0,116,117
 2438 1304 2438 1304 2438 1194 c 1,118,-1
 2444 1148 l 1,119,-1
 2458 1108 l 1,120,121
 2480 1074 2480 1074 2516 1074 c 0,122,123
 2558 1074 2558 1074 2578 1108 c 128,-1,124
 2598 1142 2598 1142 2598 1190 c 0,114,115
1746 328 m 0,125,126
 1746 412 1746 412 1724 496 c 1,127,128
 1684 586 1684 586 1644 586 c 0,129,130
 1590 586 1590 586 1554 498 c 1,131,132
 1524 442 1524 442 1522 408 c 2,133,-1
 1516 328 l 2,134,135
 1508 220 1508 220 1550 144 c 0,136,137
 1576 98 1576 98 1622 98 c 0,138,139
 1706 98 1706 98 1732 178 c 0,140,141
 1746 222 1746 222 1746 328 c 0,125,126
1132 328 m 0,142,143
 1132 422 1132 422 1110 496 c 0,144,145
 1084 586 1084 586 1032 586 c 0,146,147
 976 586 976 586 940 498 c 1,148,149
 910 442 910 442 908 408 c 2,150,-1
 902 328 l 1,151,-1
 910 216 l 1,152,-1
 934 144 l 1,153,154
 962 98 962 98 1004 98 c 0,155,156
 1090 98 1090 98 1118 176 c 0,157,158
 1132 218 1132 218 1132 328 c 0,142,143
516 278 m 0,159,160
 516 430 516 430 442 430 c 0,161,162
 374 430 374 430 330 376 c 128,-1,163
 286 322 286 322 286 254 c 0,164,165
 286 214 286 214 306 144 c 1,166,167
 334 98 334 98 364 98 c 0,168,169
 426 98 426 98 471 156 c 128,-1,170
 516 214 516 214 516 278 c 0,159,160
EndSplineSet
Ligature2: "'abvs' Above Base Substitutions lookup 6 subtable" tm_nna tm_iikaar
EndChar

StartChar: tm_t_iikaar
Encoding: 65572 -1 149
Width: 1342
GlyphClass: 2
Flags: W
LayerCount: 2
Fore
SplineSet
1208 176 m 0,0,1
 1208 -10 1208 -10 998 -130 c 0,2,3
 818 -234 818 -234 618 -234 c 2,4,-1
 208 -234 l 2,5,6
 102 -234 102 -234 102 -336 c 1,7,8
 148 -360 148 -360 148 -402 c 1,9,10
 140 -436 140 -436 122 -450 c 128,-1,11
 104 -464 104 -464 78 -464 c 0,12,13
 -28 -464 -28 -464 -28 -336 c 0,14,15
 -28 -276 -28 -276 42 -216 c 1,16,17
 126 -156 126 -156 208 -156 c 2,18,-1
 590 -156 l 2,19,20
 748 -156 748 -156 888 -70 c 0,21,22
 1050 28 1050 28 1050 176 c 0,23,24
 1050 316 1050 316 952 382 c 0,25,26
 916 406 916 406 872 406 c 2,27,-1
 786 406 l 1,28,-1
 770 328 l 2,29,30
 736 158 736 158 646 80 c 0,31,32
 552 -4 552 -4 382 -4 c 0,33,34
 236 -4 236 -4 144 52 c 0,35,36
 28 118 28 118 28 254 c 0,37,38
 28 354 28 354 93 419 c 128,-1,39
 158 484 158 484 258 484 c 1,40,41
 200 536 200 536 162 652 c 0,42,43
 128 754 128 754 128 844 c 0,44,45
 128 1080 128 1080 348 1236 c 0,46,47
 548 1378 548 1378 792 1378 c 0,48,49
 990 1378 990 1378 1110 1304 c 1,50,51
 1208 1226 1208 1226 1208 1126 c 0,52,53
 1208 946 1208 946 1028 946 c 0,54,55
 928 946 928 946 874 1010 c 128,-1,56
 820 1074 820 1074 820 1176 c 0,57,58
 820 1200 820 1200 832 1242 c 1,59,60
 856 1294 856 1294 872 1304 c 1,61,62
 818 1316 818 1316 764 1316 c 0,63,64
 574 1316 574 1316 398 1176 c 0,65,66
 208 1028 208 1028 208 844 c 0,67,68
 208 738 208 738 232 654 c 1,69,70
 268 560 268 560 312 516 c 1,71,-1
 382 844 l 1,72,-1
 1184 844 l 1,73,-1
 1184 766 l 1,74,-1
 860 766 l 1,75,-1
 800 484 l 1,76,-1
 898 484 l 2,77,78
 1024 484 1024 484 1110 406 c 0,79,80
 1208 316 1208 316 1208 176 c 0,0,1
1078 1126 m 0,81,82
 1078 1186 1078 1186 1044 1242 c 0,83,84
 1006 1306 1006 1306 950 1304 c 0,85,86
 898 1302 898 1302 898 1176 c 0,87,88
 898 1130 898 1130 926 1080 c 0,89,90
 958 1020 958 1020 1000 1020 c 0,91,92
 1078 1020 1078 1020 1078 1126 c 0,81,82
708 766 m 1,93,-1
 450 766 l 1,94,-1
 390 484 l 1,95,-1
 644 484 l 1,96,-1
 708 766 l 1,93,-1
632 406 m 1,97,-1
 258 406 l 2,98,99
 190 406 190 406 146 364 c 128,-1,100
 102 322 102 322 102 254 c 0,101,102
 102 156 102 156 196 108 c 0,103,104
 262 74 262 74 382 74 c 0,105,106
 484 74 484 74 544 146 c 0,107,108
 596 210 596 210 618 328 c 2,109,-1
 632 406 l 1,97,-1
EndSplineSet
Ligature2: "'abvs' Above Base Substitutions lookup 6 subtable" tm_ta tm_iikaar
EndChar

